<svg xmlns="http://www.w3.org/2000/svg" xmlns:xlink="http://www.w3.org/1999/xlink" width="35.994" height="36.701" viewBox="0 0 35.994 36.701"><defs><style>.a{fill:rgba(233,233,233,0.61);stroke:#00a54f;stroke-dasharray:3;}.b{fill:#00a54f;}.c{stroke:none;}.d{fill:none;}.e{filter:url(#a);}</style><filter id="a" x="2.595" y="3.303" width="33.398" height="33.398" filterUnits="userSpaceOnUse"><feOffset dy="3" input="SourceAlpha"/><feGaussianBlur stdDeviation="3" result="b"/><feFlood flood-opacity="0.161"/><feComposite operator="in" in2="b"/><feComposite in="SourceGraphic"/></filter></defs><g transform="translate(-323 -294)"><g class="a" transform="translate(323 294)"><rect class="c" width="34" height="34" rx="3"/><rect class="d" x="0.5" y="0.5" width="33" height="33" rx="2.5"/></g><g transform="translate(334.541 303.301)"><g class="e" transform="matrix(1, 0, 0, 1, -11.54, -9.3)"><path class="b" d="M6516.458,17862.1v-12.311h3.089v-3.088h8.58v4.191l-1.981,1.977h-7.715v.906h6.814l-1.018,1.012h-5.8v.906h4.9l-1.335,1.336-.848,2-.681-.682-1.058,1.063H6517.9v.9h1.878l.686-.686.767.768,2.9-1.225,3.994-3.994v6.922Zm3.322-10.244h5.025v-.9h-5.025Zm2.878,5.9.74.74-1.282.541Zm.574-.7,5.312-5.316.87.865-5.317,5.316Zm5.953-5.953.574-.574a.5.5,0,0,1,.372-.148l1.085-1.084.641.637-1.084,1.09v.014a.51.51,0,0,1-.148.357l-.574.574Zm-12.668-2.219,2.129-2.129v2.129Z" transform="translate(-6504.86 -17837.4)"/></g></g></g></svg>