<svg xmlns="http://www.w3.org/2000/svg" xmlns:xlink="http://www.w3.org/1999/xlink" width="34" height="36.979" viewBox="0 0 34 36.979"><defs><style>.a{fill:rgba(233,233,233,0.61);stroke:#00a54f;stroke-dasharray:3;}.b{fill:#00a54f;}.c{stroke:none;}.d{fill:none;}.e{filter:url(#a);}</style><filter id="a" x="0.519" y="4.018" width="32.962" height="32.961" filterUnits="userSpaceOnUse"><feOffset dy="3" input="SourceAlpha"/><feGaussianBlur stdDeviation="3" result="b"/><feFlood flood-opacity="0.161"/><feComposite operator="in" in2="b"/><feComposite in="SourceGraphic"/></filter></defs><g transform="translate(-323 -450)"><g class="a" transform="translate(323 450)"><rect class="c" width="34" height="34" rx="3"/><rect class="d" x="0.5" y="0.5" width="33" height="33" rx="2.5"/></g><g transform="translate(332.52 460.016)"><g class="e" transform="matrix(1, 0, 0, 1, -9.52, -10.02)"><path class="b" d="M6523.082,17704.885l-3.754-1.248a1.261,1.261,0,0,1-.849-1.186v-11.221a1.25,1.25,0,0,1,1.249-1.248.733.733,0,0,1,.089.018.417.417,0,0,1,.066-.018h6.7a1.874,1.874,0,0,1,1.871,1.871v1.869a.624.624,0,0,1-1.249,0v-1.869a.625.625,0,0,0-.622-.623h-2.906l.187.063a1.255,1.255,0,0,1,.849,1.186v9.35h1.871a.623.623,0,0,0,.622-.621v-2.5a.624.624,0,0,1,1.249,0v2.5a1.872,1.872,0,0,1-1.871,1.865h-1.871v.627a1.248,1.248,0,0,1-1.244,1.244A1.226,1.226,0,0,1,6523.082,17704.885Zm7-5.6a.627.627,0,0,1-.387-.578v-1.865h-2.493a.625.625,0,0,1,0-1.25h2.493v-1.871a.626.626,0,0,1,1.066-.439l2.493,2.494a.618.618,0,0,1,0,.879l-2.493,2.5a.629.629,0,0,1-.44.182A.639.639,0,0,1,6530.085,17699.287Z" transform="translate(-6508.96 -17679.96)"/></g></g></g></svg>