<svg xmlns="http://www.w3.org/2000/svg" width="16.703" height="21.618" viewBox="0 0 16.703 21.618"><defs><style>.a{fill:#00a54f;}.b{fill:#ff5d5d;}.c{fill:#fed284;}.d{fill:#2cb26c;}.e{fill:#b3f6d3;}</style></defs><g transform="translate(-58.197)"><circle class="a" cx="1.436" cy="1.436" r="1.436" transform="translate(66.731 0.422)"/><path class="b" d="M277.852,122.984a1.984,1.984,0,1,0-3.969,0Z" transform="translate(-206.579 -115.891)"/><circle class="c" cx="1.436" cy="1.436" r="1.436" transform="translate(61.498 4.222)"/><path class="d" d="M91.664,168H77a.422.422,0,0,0-.35.658l5.738,8.533V182.1l3.884-1.692v-3.22l5.738-8.533A.422.422,0,0,0,91.664,168Z" transform="translate(-17.608 -160.907)"/><path class="e" d="M91.664,168H77a.422.422,0,0,0-.35.658l.92,1.369H91.094l.921-1.369A.422.422,0,0,0,91.664,168Z" transform="translate(-17.608 -160.907)"/><path d="M82.842,93.319a.843.843,0,0,0-.745-.448H79.7a2.406,2.406,0,0,0-4.738,0H72.53a1.858,1.858,0,1,0-3.112,0H67.437a.844.844,0,0,0-.7,1.316l5.666,8.426V107.4a.422.422,0,0,0,.591.387l3.884-1.692a.422.422,0,0,0,.254-.387v-3.092L82.8,94.187A.843.843,0,0,0,82.842,93.319Zm-5.513-1.588a1.565,1.565,0,0,1,1.5,1.14H75.825A1.565,1.565,0,0,1,77.329,91.731Zm-7.368.127a1.013,1.013,0,1,1,1.013,1.013A1.015,1.015,0,0,1,69.961,91.858Zm6.4,10.39a.422.422,0,0,0-.072.236v2.944l-3.04,1.324v-3.845h1.525a.422.422,0,0,0,0-.844H73.05L68.8,95.742h8.529a.422.422,0,1,0,0-.844h-9.1l-.795-1.182H82.1Z" transform="translate(-8.041 -86.2)"/><path d="M252.182,3.716a1.858,1.858,0,1,0-1.858-1.858A1.86,1.86,0,0,0,252.182,3.716Zm0-2.871a1.013,1.013,0,1,1-1.013,1.013A1.015,1.015,0,0,1,252.182.844Z" transform="translate(-184.015)"/><path d="M391.619,51.577a.422.422,0,0,0,.422-.422v-2.4a.422.422,0,1,0-.844,0v2.4A.422.422,0,0,0,391.619,51.577Z" transform="translate(-318.94 -46.292)"/><path d="M391.619,16.344a.422.422,0,1,0-.3-.124A.425.425,0,0,0,391.619,16.344Z" transform="translate(-318.94 -14.846)"/><path d="M194.8,15.331a.422.422,0,0,0,.422-.422V13.177a.422.422,0,0,0-.844,0v1.731A.422.422,0,0,0,194.8,15.331Z" transform="translate(-130.428 -12.216)"/><path d="M58.619,3.6a.422.422,0,0,0,.422-.422V.422a.422.422,0,1,0-.844,0V3.174A.422.422,0,0,0,58.619,3.6Z"/><path d="M58.918,103.391a.422.422,0,1,0-.3.124A.425.425,0,0,0,58.918,103.391Z" transform="translate(0 -98.335)"/><path d="M355.471,206.124a.422.422,0,1,0,.3-.124A.424.424,0,0,0,355.471,206.124Z" transform="translate(-284.604 -197.302)"/></g></svg>