<svg xmlns="http://www.w3.org/2000/svg" width="221.279" height="177.659" viewBox="0 0 221.279 177.659"><defs><style>.a{fill:#00a54f;}.b{fill:#f2f2f2;}.c{fill:#2f2e41;}.d{fill:#a0616a;}.e{fill:#e6e6e6;}.f{fill:#3f3d56;}.g{fill:#ffb8b8;}.h{fill:#ccc;}</style></defs><g transform="translate(-24.76)"><circle class="a" cx="13.748" cy="13.748" r="13.748" transform="translate(119.618 150.032)"/><path class="b" d="M475.42,362c7.691-2.31,15.868-4.719,21.968-10.21,5.451-4.907,9.13-12.4,6.872-19.759-2.253-7.344-9-12.241-15.972-14.676a65.531,65.531,0,0,0-12.221-2.75c-4.493-.654-9.007-1.191-13.518-1.707q-27.4-3.134-55-3.829c-9.081-.229-18.16-.223-27.242-.091-8.111.118-16.654.115-24.178-3.332-5.851-2.681-11.162-7.558-12.793-13.967-1.882-7.4,1.589-14.933,6.569-20.291a53.184,53.184,0,0,1,8.857-7.387c3.433-2.371,6.986-4.575,10.616-6.631a147.832,147.832,0,0,1,22.345-10.3c3.809-1.385,7.675-2.58,11.574-3.683a99.037,99.037,0,0,0,9.778-3.131c6.152-2.452,12-6.6,13.567-13.414,1.482-6.453-1.017-13.458-5.4-18.252-5.07-5.546-12.714-7.977-20.042-8.371-8.227-.442-16.265,1.617-24,4.231-8.248,2.787-16.318,5.992-24.74,8.25A166.459,166.459,0,0,1,327,217.437a69.069,69.069,0,0,1-12.779.611,15.451,15.451,0,0,1-9.693-3.849,9.587,9.587,0,0,1-3.119-8.258c.083-.569.947-.327.865.238-.559,3.812,2.032,7.325,5.225,9.124,3.69,2.08,8.181,2.082,12.29,1.845a160.745,160.745,0,0,0,26.454-3.824,212.6,212.6,0,0,0,25.016-7.723c7.817-2.831,15.809-5.594,24.161-6.207,7.246-.532,14.869.524,21.182,4.311a23.433,23.433,0,0,1,10.928,15.248,17.674,17.674,0,0,1-5.2,16.831c-4.878,4.5-11.566,6.419-17.8,8.19a163.073,163.073,0,0,0-23.13,8.28,145.2,145.2,0,0,0-21.758,12.232c-6.649,4.544-13.21,10.26-15.313,18.366a16.919,16.919,0,0,0,.84,11.346,20.735,20.735,0,0,0,6.653,7.9c6.671,4.909,15.079,5.917,23.137,6.017,9.05.113,18.1-.193,27.154-.044q27.675.454,55.236,3.369,6.906.731,13.795,1.616a124.743,124.743,0,0,1,12.337,2c7.221,1.676,14.248,4.9,18.737,11.022a17.429,17.429,0,0,1,1.484,19.058c-3.447,6.781-9.9,11.095-16.759,13.929a118.916,118.916,0,0,1-11.283,3.809.449.449,0,0,1-.238-.865Z" transform="translate(-259.924 -185.25)"/><circle class="b" cx="7.173" cy="7.173" r="7.173" transform="translate(34.889 13.598)"/><circle class="b" cx="7.173" cy="7.173" r="7.173" transform="translate(84.65 27.197)"/><circle class="b" cx="7.173" cy="7.173" r="7.173" transform="translate(126.791)"/><circle class="b" cx="7.173" cy="7.173" r="7.173" transform="translate(153.091 30.485)"/><circle class="b" cx="7.173" cy="7.173" r="7.173" transform="translate(117.526 65.751)"/><circle class="b" cx="7.173" cy="7.173" r="7.173" transform="translate(72.397 82.786)"/><circle class="b" cx="7.173" cy="7.173" r="7.173" transform="translate(120.216 109.386)"/><circle class="b" cx="7.173" cy="7.173" r="7.173" transform="translate(171.621 124.329)"/><circle class="b" cx="7.173" cy="7.173" r="7.173" transform="translate(231.693 121.041)"/><path class="a" d="M511.726,220.371a39.784,39.784,0,0,0-39.384,39.1c0,.2,0,1.593,0,3.417a10.086,10.086,0,0,0,10.085,10.086h0a10.092,10.092,0,0,0,10.09-10.1c0-1.243,0-2.1,0-2.155a19.128,19.128,0,1,1,29.445,16.1l0,0s-14.354,9.241-18.73,21.918h0a28.1,28.1,0,0,0-1.158,8c0,1.113.066,10.855.192,18.762a10.4,10.4,0,0,0,10.4,10.228h0a10.4,10.4,0,0,0,10.4-10.464c-.044-7.241-.068-15.673-.068-16.285,0-7.784,7.509-15.54,13.677-20.6a41.485,41.485,0,0,0,14.267-22.714,25.928,25.928,0,0,0,.747-5.629,39.675,39.675,0,0,0-39.961-39.674Z" transform="translate(-379.832 -200.046)"/><circle class="c" cx="8.966" cy="8.966" r="8.966" transform="translate(183.294 63.658)"/><path class="d" d="M560.327,548.974h-3.664l-1.743-14.133h5.408Z" transform="translate(-384.636 -374.994)"/><path class="c" d="M541.558,578.626h7.066v4.449H537.109A4.449,4.449,0,0,1,541.558,578.626Z" transform="translate(-372.148 -405.693)"/><path class="d" d="M655.327,548.974h-3.664l-1.743-14.133h5.408Z" transform="translate(-451.243 -374.994)"/><path class="c" d="M636.558,578.626h7.066v4.449H632.109A4.449,4.449,0,0,1,636.558,578.626Z" transform="translate(-438.756 -405.693)"/><circle class="d" cx="7.34" cy="7.34" r="7.34" transform="translate(183.557 66.961)"/><path class="c" d="M754.621,455.633l3.284-7.546a9.379,9.379,0,0,0-2.077-10.64,9.528,9.528,0,0,0-.918-.8,9.247,9.247,0,0,0-5.675-1.964,9.618,9.618,0,0,0-4,.891c-.108.048-.212.1-.32.149-.206.1-.409.206-.607.317a9.468,9.468,0,0,0-4.692,7.137l-1.45,12.146c-.365.953-13.371,35.383-8.822,61.668a1.335,1.335,0,0,0,1.142,1.1l4.612.628a1.344,1.344,0,0,0,1.5-1.055l7.738-36.883a1.047,1.047,0,0,1,2.032-.069L757.293,519.5a1.336,1.336,0,0,0,1.288.98,1.529,1.529,0,0,0,.26-.024l5.634-1.085a1.336,1.336,0,0,0,1.085-1.437C764.732,508.7,760.332,462.456,754.621,455.633Z" transform="translate(-559.349 -350.31)"/><path class="d" d="M706.055,415.106a3.005,3.005,0,0,0,3.166,3.348l4.1,9.86,3.1-4.6-4.372-8.658a3.022,3.022,0,0,0-6,.05Z" transform="translate(-543.684 -334.696)"/><path class="d" d="M792.214,509.625a3.005,3.005,0,0,0,2.519-3.859l8.633-6.288-5.2-1.946-7.4,6.269a3.022,3.022,0,0,0,1.447,5.824Z" transform="translate(-601.724 -394.374)"/><path class="c" d="M728.211,453.1a5.091,5.091,0,0,1-.986-.1,4.873,4.873,0,0,1-3.571-2.874l-5.749-7.009a1.345,1.345,0,0,1,.332-2l4.09-2.532a1.345,1.345,0,0,1,1.858.445l4.052,6.675L736,439.978a2.905,2.905,0,0,1,3.38,4.651l-7.744,7.064A4.857,4.857,0,0,1,728.211,453.1Z" transform="translate(-551.795 -352.908)"/><path class="c" d="M811.567,468.784h-.031a1.347,1.347,0,0,1-.989-.469l-3.636-4.242a1.345,1.345,0,0,1,.275-1.994l6.809-4.539-6.168-7.416a2.905,2.905,0,0,1,4.449-3.641l7.5,7.326a4.939,4.939,0,0,1-1.1,8.052l-6.127,6.5A1.347,1.347,0,0,1,811.567,468.784Z" transform="translate(-614.184 -358.05)"/><path class="e" d="M785.781,443.662a1.4,1.4,0,0,1-.174-.011,1.333,1.333,0,0,1-1.109-.917l-2.732-8.377a.921.921,0,0,1,.476-1.113l.089-.042c.08-.038.16-.076.241-.112a9.735,9.735,0,0,1,4.066-.9,9.363,9.363,0,0,1,5.129,1.541.936.936,0,0,1,.269,1.284l-5.126,8.03A1.331,1.331,0,0,1,785.781,443.662Z" transform="translate(-596.75 -348.557)"/><circle class="c" cx="2.934" cy="2.934" r="2.934" transform="translate(196.395 62.753)"/><path class="c" d="M777.882,361.365h0a7.771,7.771,0,0,0-7.771,7.771v3.288h4.044l1.934-3.288.58,3.288H788.94l-3.288-3.288A7.771,7.771,0,0,0,777.882,361.365Z" transform="translate(-588.611 -298.903)"/><path class="c" d="M834.809,358.044a4.528,4.528,0,0,1,4.926-3.107,6.274,6.274,0,0,1,4.229,3.494,34.406,34.406,0,0,1,1.88,5.358,9.7,9.7,0,0,0,2.927,4.777,4.356,4.356,0,0,0,5.257.283,6.013,6.013,0,0,1-11.2,2.146,13.009,13.009,0,0,1-1.2-4.558,9.961,9.961,0,0,0-1.453-4.465,3.693,3.693,0,0,0-4.125-1.536Z" transform="translate(-633.973 -294.367)"/><path class="f" d="M484.939,306.727h0a10.086,10.086,0,0,1-10.085-10.084c0-1.825,0-3.22,0-3.418a39.3,39.3,0,0,1,4.59-17.9,39.391,39.391,0,0,0-7.579,22.687c0,.2,0,1.593,0,3.417a10.086,10.086,0,0,0,10.084,10.086h0a10.093,10.093,0,0,0,9.71-7.349A10.048,10.048,0,0,1,484.939,306.727Z" transform="translate(-379.501 -238.573)"/><path class="f" d="M570.12,280.209a19.129,19.129,0,0,1,16.635,26.723,19.127,19.127,0,1,0-32.106-20.02A19.089,19.089,0,0,1,570.12,280.209Z" transform="translate(-437.543 -238.634)"/><path class="f" d="M584.943,494.723h0a10.4,10.4,0,0,1-10.4-10.23c-.126-7.9-.192-17.646-.192-18.76a28.094,28.094,0,0,1,1.158-8h0a28.406,28.406,0,0,1,1.642-3.8,32.888,32.888,0,0,0-4.631,8.578h0a28.091,28.091,0,0,0-1.158,8c0,1.113.065,10.855.192,18.762a10.4,10.4,0,0,0,10.4,10.228h0a10.4,10.4,0,0,0,9.982-7.484A10.359,10.359,0,0,1,584.943,494.723Z" transform="translate(-449.263 -363.808)"/><path class="g" d="M126.539,549.429H130.2l1.743-14.133h-5.408Z" transform="translate(-84.283 -375.313)"/><path class="c" d="M0,0H11.516V4.449H4.449A4.449,4.449,0,0,1,0,0Z" transform="translate(52.985 177.518) rotate(179.997)"/><path class="g" d="M82.539,549.429H86.2L87.946,535.3H82.538Z" transform="translate(-53.434 -375.313)"/><path class="c" d="M0,0H11.516V4.449H4.449A4.449,4.449,0,0,1,0,0Z" transform="translate(39.835 177.518) rotate(179.997)"/><path class="c" d="M259.416,605.381l-3.579-.188a1.4,1.4,0,0,1-1.321-1.484l4.278-47.36,19.7,5.316,1.9-.518-5.935,41.927a1.4,1.4,0,0,1-1.3,1.179l-3.858.18A1.4,1.4,0,0,1,267.821,603l.7-25.164a.466.466,0,0,0-.922-.108l-6.742,26.543a1.388,1.388,0,0,1-1.366,1.113Z" transform="translate(-227.109 -435.612)"/><circle class="g" cx="7.34" cy="7.34" r="7.34" transform="translate(35.573 67.304)"/><path class="h" d="M265.482,447l.807,17.414.292,6.335A1.387,1.387,0,0,0,267.5,472l18.929,6.857a1.338,1.338,0,0,0,.478.084,1.388,1.388,0,0,0,1.394-1.431l-.776-31.312a11.037,11.037,0,0,0-9.188-10.663c-.183-.028-.369-.056-.556-.081a10.834,10.834,0,0,0-8.717,2.822A11.128,11.128,0,0,0,265.482,447Z" transform="translate(-234.79 -350.793)"/><path class="g" d="M347.032,537.741a3.008,3.008,0,0,1-1.6-4.551l-6.419-8.536,5.539-.343,5.246,8.158a3.022,3.022,0,0,1-2.762,5.271Z" transform="translate(-286.351 -413.15)"/><path class="h" d="M325.6,480.908a1.388,1.388,0,0,1-.76-.753l-9.671-23.041a3.725,3.725,0,0,1,6.869-2.883l9.671,23.041a1.4,1.4,0,0,1-.747,1.829l-4.293,1.8a1.387,1.387,0,0,1-1.069.005Z" transform="translate(-269.433 -362.413)"/><path class="f" d="M298.12,502.573l9.289-17.785a1.458,1.458,0,0,1,1.965-.617l13.482,7.041a1.458,1.458,0,0,1,.617,1.965l-9.289,17.785a1.458,1.458,0,0,1-1.965.617l-13.482-7.041A1.458,1.458,0,0,1,298.12,502.573Z" transform="translate(-257.567 -384.891)"/><path class="g" d="M287.557,501.966a3.008,3.008,0,0,0-4.638-1.333l-8.9-5.9-.015,5.55,8.454,4.755a3.022,3.022,0,0,0,5.1-3.069Z" transform="translate(-240.775 -392.408)"/><path class="h" d="M256.434,467.677l-7.274-5.761a5.13,5.13,0,0,1-2.338-8.11l6.6-8.655a3.017,3.017,0,0,1,5.119,3.074l-5.225,8.548L261,460.414a1.4,1.4,0,0,1,.582,2.008l-3.1,4.906a1.4,1.4,0,0,1-.946.631l-.023,0A1.4,1.4,0,0,1,256.434,467.677Z" transform="translate(-220.904 -356.872)"/><path class="c" d="M279.379,382.787a.638.638,0,0,1,.555-.843,1.474,1.474,0,0,1,1.039.513,4.134,4.134,0,0,0,.918.788.79.79,0,0,0,1.039-.188,1.445,1.445,0,0,0-.055-1.122,11.029,11.029,0,0,1-.487-2.92,5.142,5.142,0,0,1,.735-3.123,4.131,4.131,0,0,1,3.54-1.505,23.781,23.781,0,0,1,3.977.7,1.336,1.336,0,0,0,1.3-.218,1.676,1.676,0,0,0,.067-1.5,10.386,10.386,0,0,0-1.574-3.751,5.648,5.648,0,0,0-3.6-2.029,8.649,8.649,0,0,0-4.023.457,10.788,10.788,0,0,0-5.285,3.682,8.737,8.737,0,0,0-1.667,6.456,7.97,7.97,0,0,0,2.955,5.037Z" transform="translate(-242.012 -303.227)"/><path class="f" d="M573.717,685.026a13.746,13.746,0,0,1-5.1-21.366,13.747,13.747,0,1,0,18.7,19.864,13.739,13.739,0,0,1-13.6,1.5Z" transform="translate(-443.38 -510.852)"/></g></svg>