<svg xmlns="http://www.w3.org/2000/svg" xmlns:xlink="http://www.w3.org/1999/xlink" width="165.063" height="113.947" viewBox="0 0 165.063 113.947"><defs><style>.a,.b{fill:#00a54f;}.a,.l,.n{opacity:0.1;}.c{fill:#444053;}.d{fill:#3f3d56;}.e{fill:#fff;}.f{fill:#fa5959;}.f,.g,.h{opacity:0.8;}.g{fill:#fed253;}.h{fill:#8ccf4d;}.i{opacity:0.05;}.j{fill:url(#a);}.k{fill:#fbbebe;}.m{fill:#33313f;}</style><linearGradient id="a" y1="0.5" x2="1" y2="0.5" gradientUnits="objectBoundingBox"><stop offset="0" stop-color="gray" stop-opacity="0.251"/><stop offset="0.54" stop-color="gray" stop-opacity="0.122"/><stop offset="1" stop-color="gray" stop-opacity="0.102"/></linearGradient></defs><g transform="translate(0 0.006)"><path class="a" d="M110.274,62.969c-10.58.014-20.764-2.985-30.505-6.317s-19.407-7.063-29.79-8.644c-6.678-1.016-14.272-.923-19.492,2.767-5.025,3.55-6.48,9.425-7.182,14.853-.528,4.083-.771,8.369,1.206,12.1,1.373,2.593,3.723,4.73,5.379,7.2,5.781,8.6,2.3,19.58-3.313,28.376-2.634,4.127-5.72,8.083-7.711,12.447s-2.808,9.312-.777,13.619c2.013,4.269,6.559,7.367,11.438,9.483,9.908,4.306,21.444,5.229,32.669,5.584,24.849.788,49.746-.82,74.577-2.427,9.189-.594,18.419-1.193,27.418-2.916,5-.955,10.141-2.374,13.684-5.482a11.31,11.31,0,0,0,2.144-15.02c-5.488-7.768-19.957-9.233-23.892-17.638-2.17-4.627-.3-9.933,2.457-14.393,5.911-9.57,16.085-18.141,16.256-28.845.117-7.35-5.173-14.521-13.076-17.715-8.283-3.346-19.577-2.485-25.38,3.751C130.417,60.184,119.616,62.959,110.274,62.969Z" transform="translate(-16.91 -47.46)"/><path class="b" d="M988.434,689.032a3.847,3.847,0,0,0-3.464-.331s.531,1.022,2.713.926Z" transform="translate(-847.949 -597.692)"/><path class="b" d="M1004.006,693.25a3.846,3.846,0,0,1-.8,3.387s-.8-.831,0-2.866Z" transform="translate(-863.301 -601.849)"/><path class="b" d="M1002.02,671.933s-.129-1.714-4-1.145a1.846,1.846,0,0,0,1.34,1.629A2.235,2.235,0,0,0,1002.02,671.933Z" transform="translate(-859.152 -582.467)"/><path class="b" d="M1021.116,679.5s1.636.525.177,4.156a1.852,1.852,0,0,1-1.274-1.686A2.219,2.219,0,0,1,1021.116,679.5Z" transform="translate(-878.004 -590.045)"/><path class="b" d="M1020.757,646.836s.222-2.821-3.734-2.532c0,0-.283,2.548,3.036,3.21Z" transform="translate(-875.46 -559.813)"/><path class="b" d="M1034.637,625.13s-.542-3.2-4.5-2.245c0,0-.014,2.764,3.851,3.006Z" transform="translate(-886.725 -541.291)"/><path class="b" d="M1046.137,602.268s-.909-3.114-4.827-2.183a4.527,4.527,0,0,0,4.566,2.757Z" transform="translate(-896.314 -521.722)"/><path class="b" d="M1059.9,579.01s-.887-3.231-4.671-2.265c0,0,1.263,3.07,4.42,2.811Z" transform="translate(-908.264 -501.679)"/><path class="b" d="M1070.959,552.831s-.682-3.952-4.209-3.077c0,0,1.025,3.6,3.95,3.653Z" transform="translate(-918.153 -478.554)"/><path class="b" d="M1077.628,527.752s-.82-3.983-4.388-2.831c0,0,1.4,3.765,4.134,3.376Z" transform="translate(-923.725 -457.166)"/><path class="b" d="M1084.379,498.4s-1.3-3.984-4.059-3.877c0,0,1.329,4.208,3.829,4.671Z" transform="translate(-929.803 -431.252)"/><path class="b" d="M1089.88,471.283s-1.415-4.8-3.66-4.426c0,0,.979,3.666,3.581,5.173Z" transform="translate(-934.868 -407.482)"/><path class="b" d="M1092.359,444.8s-1.328-4-3.539-4.156c0,0,.9,3.932,3.495,5.195Z" transform="translate(-937.099 -384.994)"/><path class="b" d="M1096.824,418.831s-1.655-4-3.114-4.091c0,0,.719,3.939,2.972,4.747Z" transform="translate(-941.297 -362.76)"/><path class="b" d="M1101.96,390.585s-1.018-4.344-2.48-4.7c0,0,.2,3.554,2.333,5.03Z" transform="translate(-946.251 -337.984)"/><path class="b" d="M1107.225,362.791s-1.07-3.464-2.255-3.991c0,0,.234,4.083,1.982,4.838Z" transform="translate(-950.964 -314.737)"/><path class="b" d="M1118.728,328.966l.215-6.106s-2.215,4.6-.375,7.178Z" transform="translate(-962.01 -283.884)"/><path class="b" d="M1130.983,294.538s1.6-4.459,1.982-4.708c0,0-3.128,2.893-2.822,6.614Z" transform="translate(-972.555 -255.53)"/><path class="b" d="M1040.311,662.116s2.805-.367,2.722,3.6c0,0-2.535.413-3.363-2.866Z" transform="translate(-894.906 -575.114)"/><path class="b" d="M1058.927,639.06s3.241-.01,2.972,4.048c0,0-2.722.487-3.619-3.281Z" transform="translate(-910.882 -555.329)"/><path class="b" d="M1074.05,616.815s2.943-1.38,4.825,2.183a4.528,4.528,0,0,1-5.086-1.607Z" transform="translate(-924.197 -536.007)"/><path class="b" d="M1087.179,592.186s3.013-1.468,4.783,2.011c0,0-3.139,1.081-5.032-1.461Z" transform="translate(-935.477 -514.825)"/><path class="b" d="M1095.413,565.459s2.9-2.77,5.214.031c0,0-2.962,2.28-5.347.586Z" transform="translate(-942.645 -491.096)"/><path class="b" d="M1102.445,538.118s2.917-2.831,5.213.13c0,0-3.274,2.326-5.318.464Z" transform="translate(-948.706 -467.627)"/><path class="b" d="M1106.93,503.761s2.248-3.539,4.895-2.749c0,0-2.333,3.747-4.869,3.58Z" transform="translate(-952.646 -436.722)"/><path class="b" d="M1111.258,475.22s2.265-4.456,4.408-3.68c0,0-1.633,3.425-4.466,4.432Z" transform="translate(-956.312 -411.442)"/><path class="b" d="M1111.346,449.468s2.328-3.507,4.51-3.079c0,0-1.9,3.557-4.736,4.093Z" transform="translate(-956.243 -389.898)"/><path class="b" d="M1114,419.053s1.8-3.936,3.271-3.963c0,0-.866,3.908-3.149,4.631Z" transform="translate(-958.716 -363.06)"/><path class="b" d="M1116.5,394.294s2.006-3.986,3.513-3.994c0,0-1.026,3.408-3.447,4.344Z" transform="translate(-960.862 -341.779)"/><path class="b" d="M1118.63,366.492s1.5-3.3,2.743-3.672c0,0-.75,4.02-2.578,4.546Z" transform="translate(-962.69 -318.188)"/><path class="b" d="M1122.42,334.168l3.353-5.108s-.859,5.039-3.843,6.086Z" transform="translate(-965.523 -289.207)"/><path class="b" d="M1131.8,307.054s3.9-2.689,4.038-3.124c0,0-1.982,3.766-5.662,4.432Z" transform="translate(-972.605 -267.634)"/><path class="b" d="M1142.648,291.387s4.474-4.3,5.616-4.3a7.3,7.3,0,0,0-5.724,4.068Z" transform="translate(-983.216 -253.177)"/><path class="c" d="M1118.94,326.036l.163.021c.841-6.58,2.066-10.474,3.451-10.951l-.054-.156C1121.032,315.46,1119.8,319.294,1118.94,326.036Z" transform="translate(-962.956 -277.094)"/><path class="c" d="M1110.2,406.045l.246.02c.052-.614.092-1.243.119-1.87.235-5.447.6-10.449,1.077-14.2l-.141-.177c-.48,3.758-.947,8.91-1.182,14.365C1110.292,404.808,1110.252,405.434,1110.2,406.045Z" transform="translate(-955.453 -341.367)"/><path class="c" d="M976.193,531.4a32.06,32.06,0,0,0,8.878-6.572,35.7,35.7,0,0,0,6.49-9.2,41.678,41.678,0,0,0,3.773-14.5l-.256.12a37.857,37.857,0,0,1-10.232,23.333,31.726,31.726,0,0,1-8.786,6.511Z" transform="translate(-840.3 -436.922)"/><path class="d" d="M224.087,132.69h-136A1.212,1.212,0,0,0,86.87,133.9v3.53H225.3V133.9A1.212,1.212,0,0,0,224.087,132.69Z" transform="translate(-76.968 -120.631)"/><path class="e" d="M86.87,166.19v79.439a2.443,2.443,0,0,0,2.443,2.443H222.855a2.443,2.443,0,0,0,2.443-2.443V166.19Z" transform="translate(-76.968 -149.39)"/><circle class="f" cx="0.566" cy="0.566" r="0.566" transform="translate(11.529 13.828)"/><circle class="g" cx="0.566" cy="0.566" r="0.566" transform="translate(13.086 13.828)"/><circle class="h" cx="0.566" cy="0.566" r="0.566" transform="translate(14.643 13.828)"/><rect class="i" width="111.252" height="48.92" transform="translate(22.77 30.046)"/><rect class="d" width="109.554" height="47.841" transform="translate(23.619 30.417)"/><path class="b" d="M328.679,349.38a10.9,10.9,0,1,0,10.9,10.9A10.9,10.9,0,0,0,328.679,349.38Zm1.955,11.161V365.7h-3.853v-5.161a3.192,3.192,0,1,1,3.853,0Z" transform="translate(-275.194 -306.651)"/><path class="i" d="M328.679,349.38a10.9,10.9,0,1,0,10.9,10.9A10.9,10.9,0,0,0,328.679,349.38Zm1.955,11.161V365.7h-3.853v-5.161a3.192,3.192,0,1,1,3.853,0Z" transform="translate(-275.194 -306.651)"/><path class="b" d="M309.793,327.38a14.013,14.013,0,1,0,14.013,14.013A14.013,14.013,0,0,0,309.793,327.38Zm2.512,14.35v6.634h-4.954V341.73a4.1,4.1,0,1,1,4.954,0Z" transform="translate(-256.308 -287.765)"/><rect class="e" width="45.293" height="4.812" transform="translate(73.3 51.789)"/><rect class="b" width="9.766" height="4.812" transform="translate(108.828 60.565)"/><path class="b" d="M553.832,423.871h-.82l.729-.728a.072.072,0,0,0,0-.1.071.071,0,0,0-.1,0l-.729.729v-.821a.071.071,0,0,0-.071-.071.072.072,0,0,0-.071.071v.821l-.728-.733a.071.071,0,0,0-.1,0,.072.072,0,0,0,0,.1l.729.728h-.821a.072.072,0,0,0-.071.071.071.071,0,0,0,.071.071h.821l-.729.729a.072.072,0,0,0,0,.1.074.074,0,0,0,.1,0l.728-.729v.82a.071.071,0,1,0,.142,0v-.82l.729.729a.074.074,0,0,0,.1,0,.072.072,0,0,0,0-.1l-.729-.729h.82a.069.069,0,1,0,0-.137Z" transform="translate(-476.073 -369.747)"/><path class="b" d="M574.832,423.871h-.82l.729-.728a.072.072,0,0,0,0-.1.071.071,0,0,0-.1,0l-.729.729v-.821a.071.071,0,0,0-.071-.071.072.072,0,0,0-.071.071v.821l-.728-.733a.071.071,0,0,0-.1,0,.072.072,0,0,0,0,.1l.729.728h-.821a.072.072,0,0,0-.071.071.071.071,0,0,0,.071.071h.821l-.729.729a.072.072,0,0,0,0,.1.074.074,0,0,0,.1,0l.728-.729v.82a.071.071,0,1,0,.142,0v-.82l.729.729a.074.074,0,0,0,.1,0,.072.072,0,0,0,0-.1l-.729-.729h.82a.069.069,0,1,0,0-.137Z" transform="translate(-494.101 -369.747)"/><path class="b" d="M595.832,423.871h-.82l.729-.728a.072.072,0,0,0,0-.1.071.071,0,0,0-.1,0l-.729.729v-.821a.071.071,0,0,0-.071-.071.072.072,0,0,0-.071.071v.821l-.727-.733a.071.071,0,0,0-.1,0,.072.072,0,0,0,0,.1l.729.728h-.821a.072.072,0,0,0-.071.071.071.071,0,0,0,.071.071h.821l-.729.729a.072.072,0,0,0,0,.1.074.074,0,0,0,.1,0l.727-.729v.82a.071.071,0,0,0,.142,0v-.82l.729.729a.074.074,0,0,0,.1,0,.072.072,0,0,0,0-.1l-.729-.729h.82a.069.069,0,1,0,0-.137Z" transform="translate(-512.129 -369.747)"/><path class="b" d="M616.832,423.871h-.82l.729-.728a.072.072,0,0,0,0-.1.071.071,0,0,0-.1,0l-.729.729v-.821a.071.071,0,0,0-.071-.071.072.072,0,0,0-.071.071v.821l-.728-.733a.071.071,0,0,0-.1,0,.072.072,0,0,0,0,.1l.729.728h-.821a.072.072,0,0,0-.071.071.071.071,0,0,0,.071.071h.821l-.729.729a.072.072,0,0,0,0,.1.074.074,0,0,0,.1,0l.728-.729v.82a.071.071,0,1,0,.142,0v-.82l.729.729a.074.074,0,0,0,.1,0,.072.072,0,0,0,0-.1l-.729-.729h.82a.069.069,0,1,0,0-.137Z" transform="translate(-530.156 -369.747)"/><path class="b" d="M637.832,423.871h-.82l.729-.728a.072.072,0,0,0,0-.1.071.071,0,0,0-.1,0l-.729.729v-.821a.071.071,0,0,0-.071-.071.072.072,0,0,0-.071.071v.821l-.728-.733a.071.071,0,0,0-.1,0,.072.072,0,0,0,0,.1l.729.728h-.821a.072.072,0,0,0-.071.071.071.071,0,0,0,.071.071h.821l-.729.729a.072.072,0,0,0,0,.1.074.074,0,0,0,.1,0l.728-.729v.82a.071.071,0,1,0,.142,0v-.82l.729.729a.074.074,0,0,0,.1,0,.072.072,0,0,0,0-.1l-.729-.729h.82a.069.069,0,1,0,0-.137Z" transform="translate(-548.184 -369.747)"/><path class="b" d="M658.832,423.871h-.82l.729-.728a.072.072,0,0,0,0-.1.071.071,0,0,0-.1,0l-.729.729v-.821a.071.071,0,0,0-.071-.071.072.072,0,0,0-.071.071v.821l-.728-.733a.071.071,0,0,0-.1,0,.072.072,0,0,0,0,.1l.729.728h-.821a.072.072,0,0,0-.071.071.071.071,0,0,0,.071.071h.821l-.729.729a.072.072,0,0,0,0,.1.074.074,0,0,0,.1,0l.728-.729v.82a.071.071,0,0,0,.142,0v-.82l.729.729a.074.074,0,0,0,.1,0,.072.072,0,0,0,0-.1l-.729-.729h.82a.069.069,0,1,0,0-.137Z" transform="translate(-566.211 -369.747)"/><path class="b" d="M679.832,423.871h-.82l.729-.728a.072.072,0,0,0,0-.1.071.071,0,0,0-.1,0l-.729.729v-.821a.071.071,0,0,0-.071-.071.072.072,0,0,0-.071.071v.821l-.728-.733a.071.071,0,0,0-.1,0,.072.072,0,0,0,0,.1l.729.728h-.821a.072.072,0,0,0-.071.071.071.071,0,0,0,.071.071h.821l-.729.729a.072.072,0,0,0,0,.1.074.074,0,0,0,.1,0l.728-.729v.82a.071.071,0,1,0,.142,0v-.82l.729.729a.074.074,0,0,0,.1,0,.072.072,0,0,0,0-.1l-.729-.729h.82a.069.069,0,1,0,0-.137Z" transform="translate(-584.239 -369.747)"/><path class="b" d="M700.832,423.871h-.82l.729-.728a.072.072,0,0,0,0-.1.071.071,0,0,0-.1,0l-.729.729v-.821a.071.071,0,0,0-.071-.071.072.072,0,0,0-.071.071v.821l-.728-.733a.071.071,0,0,0-.1,0,.072.072,0,0,0,0,.1l.729.728h-.821a.072.072,0,0,0-.071.071.071.071,0,0,0,.071.071h.821l-.729.729a.072.072,0,0,0,0,.1.074.074,0,0,0,.1,0l.728-.729v.82a.071.071,0,1,0,.142,0v-.82l.729.729a.074.074,0,0,0,.1,0,.072.072,0,0,0,0-.1l-.729-.729h.82a.069.069,0,1,0,0-.137Z" transform="translate(-602.267 -369.747)"/><path class="b" d="M721.832,423.871h-.819l.729-.728a.072.072,0,0,0,0-.1.071.071,0,0,0-.1,0l-.729.729v-.821a.071.071,0,0,0-.071-.071.072.072,0,0,0-.071.071v.821l-.728-.733a.071.071,0,0,0-.1,0,.072.072,0,0,0,0,.1l.729.728h-.821a.072.072,0,0,0-.071.071.071.071,0,0,0,.071.071h.821l-.729.729a.072.072,0,0,0,0,.1.074.074,0,0,0,.1,0l.728-.729v.82a.071.071,0,1,0,.142,0v-.82l.729.729a.074.074,0,0,0,.1,0,.072.072,0,0,0,0-.1l-.729-.729h.819a.069.069,0,1,0,0-.137Z" transform="translate(-620.294 -369.747)"/><path class="b" d="M742.832,423.871h-.82l.729-.728a.072.072,0,0,0,0-.1.071.071,0,0,0-.1,0l-.729.729v-.821a.071.071,0,0,0-.071-.071.072.072,0,0,0-.071.071v.821l-.728-.733a.071.071,0,0,0-.1,0,.072.072,0,0,0,0,.1l.729.728h-.821a.072.072,0,0,0-.071.071.071.071,0,0,0,.071.071h.821l-.729.729a.072.072,0,0,0,0,.1.074.074,0,0,0,.1,0l.728-.729v.82a.071.071,0,1,0,.142,0v-.82l.729.729a.074.074,0,0,0,.1,0,.072.072,0,0,0,0-.1l-.729-.729h.82a.069.069,0,1,0,0-.137Z" transform="translate(-638.322 -369.747)"/><path class="b" d="M763.832,423.871h-.82l.729-.728a.072.072,0,0,0,0-.1.071.071,0,0,0-.1,0l-.729.729v-.821a.071.071,0,0,0-.071-.071.072.072,0,0,0-.071.071v.821l-.728-.733a.071.071,0,0,0-.1,0,.072.072,0,0,0,0,.1l.729.728h-.821a.072.072,0,0,0-.071.071.071.071,0,0,0,.071.071h.821l-.729.729a.072.072,0,0,0,0,.1.074.074,0,0,0,.1,0l.728-.729v.82a.071.071,0,1,0,.142,0v-.82l.729.729a.074.074,0,0,0,.1,0,.072.072,0,0,0,0-.1l-.729-.729h.82a.069.069,0,1,0,0-.137Z" transform="translate(-656.349 -369.747)"/><path class="j" d="M806.934,479.268a2.54,2.54,0,0,0-.064-.508,1.65,1.65,0,0,0-.887-1.2,7.449,7.449,0,0,1-1.407-.594c-.085-1.517.263-3.07-.116-4.541a11.55,11.55,0,0,1-.437-1.6,7.1,7.1,0,0,0-.164-2.047,2.02,2.02,0,0,0-1.2-1.033,6.372,6.372,0,0,0-1.6-.283c-.679-.055-2.879-.316-3.646.292h0a.8.8,0,0,0-.142.142h0a.558.558,0,0,0-.045.074l-.007.011a.577.577,0,0,0-.038.092h0a.71.71,0,0,0-.024.106v.255c.01.127.028.255.028.381a.817.817,0,0,1-.017.187,1.307,1.307,0,0,1-.235.459h0l-.025.037c-.016.023-.031.044-.045.067s-.026.04-.037.059-.023.033-.033.051a.7.7,0,0,0-.037.072c0,.014-.016.027-.021.041a.7.7,0,0,0-.042.119.79.79,0,0,0-.008.376,1.4,1.4,0,0,0,.194.446c.035.058.074.115.113.171l.1.134a3.065,3.065,0,0,0-.03.4,2.928,2.928,0,0,0,1.118,2.3,8.668,8.668,0,0,1-.018,1.8c-.013.125-.028.251-.045.375s-.03.207-.047.31a1.437,1.437,0,0,1-.619-.047,2.923,2.923,0,0,0-.283-.109c-.412-.1-.832.307-1.24.183a.166.166,0,0,1-.018.057.555.555,0,0,0-.283-.084,1.032,1.032,0,0,1-.614-.352l-.539-.508a.6.6,0,0,1-.094-.1.739.739,0,0,1-.065-.174,2,2,0,0,0-.522-.749.353.353,0,0,0-.154-.112.238.238,0,0,0-.071,0,.633.633,0,0,0-.047-.057,1.333,1.333,0,0,0-.117-.119c-.258-.238-.283-.442-.507-.708a6.81,6.81,0,0,1-.529-.8c-.018-.149-.044-.3-.075-.456a5.861,5.861,0,0,0-.31-1.033l-.283-.627-.033.033c-.205-.306-.425-.473-.621-.433-.33.068-.493.708-.44,1.544l.113.849a.264.264,0,0,0,.016.064,1.572,1.572,0,0,0-.031.306c0,.119.11.207.168.313a.884.884,0,0,1,.142.483c-.007.061-.025.119-.028.178a.687.687,0,0,0,.133.368l.708,1.189.142.249.008.011a.6.6,0,0,0,.19.218,2.592,2.592,0,0,0,.234.859c.024.054.051.1.079.156a5.011,5.011,0,0,0,.668.868l.337.378c.333.371.665.743,1.026,1.086a1.375,1.375,0,0,0,.459.321.519.519,0,0,0,.515-.075v.527a.3.3,0,0,1,.224.466,11.673,11.673,0,0,1-1.047,2.217,4.719,4.719,0,0,1,.878.669,3.947,3.947,0,0,1,.457.619c.013.1.023.208.028.311a12.684,12.684,0,0,1-1.132,4.97,3.873,3.873,0,0,0-.338,1.407,2.77,2.77,0,0,0-.317.228,2.1,2.1,0,0,1,.058.9,1.587,1.587,0,0,1-.117.566,3.976,3.976,0,0,1-.2.364,5.4,5.4,0,0,0-.521,2.154c-.044.446.129.991-.074,1.39a5.686,5.686,0,0,0-.708,2.177,2.182,2.182,0,0,1-.065.508c-.044.142-.122.262-.161.4a1.714,1.714,0,0,0-.028.566,5.419,5.419,0,0,1-.3,2,2.716,2.716,0,0,0-.234,1.565,2.207,2.207,0,0,0-.6,1.315,2.068,2.068,0,0,1-.045.375,1.823,1.823,0,0,1-.17.361,3.16,3.16,0,0,0-.385,1.7,4.726,4.726,0,0,0-.763,1.993c-.126.706-.181,1.425-.343,2.123a19.8,19.8,0,0,0-.681,2.8,1.973,1.973,0,0,0-.745,1.4,6.218,6.218,0,0,1-.327,1.6c-.116.258-.283.488-.394.752a3.449,3.449,0,0,0-.17.647,2.524,2.524,0,0,0-.044,1.062,1.6,1.6,0,0,1-.415.316c.023-.088.041-.176.057-.265-.365.331-1.028.215-1.319.613a.6.6,0,0,0,.142.82,1.131,1.131,0,0,0,.293.126,4.68,4.68,0,0,0,2.163.334.646.646,0,0,0,.245-.078.789.789,0,0,0,.228-.263c.109-.173.218-.345.326-.518a6.717,6.717,0,0,0,.794.185c.027.226.047.453.057.679.142.028.331.037.4-.095a.344.344,0,0,0,.024-.157c0-.1.014-.234.023-.369h.028a2.689,2.689,0,0,0,1.253-.253,8.1,8.1,0,0,1,.781-3.666c.457-1.248.849-2.519,1.244-3.79.283-.895.6-1.761.873-2.657q.524-1.7,1.052-3.4c.153-.5.307-.991.483-1.486a23.139,23.139,0,0,1,1.312-2.92c.141-.268.283-.532.4-.81.142-.338.242-.692.355-1.042a16.132,16.132,0,0,1,.889-2.092c.01-.018.017-.035.027-.052.115.469.229.944.306,1.415a5.378,5.378,0,0,1,.024,1.749,5.766,5.766,0,0,0-.181,1.186,7.321,7.321,0,0,0,.463,1.59,6.046,6.046,0,0,1,.159,1.217c.04.637.385,1.352.142,1.942-.757,1.87-.391,3.982-.822,5.945-.222,1.008-.9,1.955-.849,2.985q.057,1.1.193,2.188a2.083,2.083,0,0,0,.177.664,2.449,2.449,0,0,0,.194.317c-.062.024-.115.088-.16.222a.873.873,0,0,0,.314.991,1.377,1.377,0,0,0,.409.142,2.155,2.155,0,0,0,.592.082,1.382,1.382,0,0,0,.185-.023,6.742,6.742,0,0,0,.669.241,1.453,1.453,0,0,0,.018.174.217.217,0,0,0,.074.16.222.222,0,0,0,.113.02h.769v-.193a.632.632,0,0,0,.488-.159.755.755,0,0,0,.142-.294q.314-1.066.624-2.133a6.818,6.818,0,0,0,.3-2.435c-.273-2.609.327-5.226.132-7.841a18.786,18.786,0,0,1,.241-4.7c.064-.351.142-.708.17-1.057.062-.66-.014-1.326.033-1.982.016-.229.047-.457.075-.685a32.9,32.9,0,0,0,.3-4.267,13.445,13.445,0,0,0-.088-1.415.808.808,0,0,0,.386-.226.963.963,0,0,0,.092-.6,4.38,4.38,0,0,1,.381-1.447,17.2,17.2,0,0,0,.535-1.99,6.949,6.949,0,0,0,.238-1.663q0-.085-.009-.17a.439.439,0,0,0,.13-.142.824.824,0,0,0,.068-.262c.051-.361.1-.723.154-1.086q.057-.389.112-.777l.45-3.141c.038-.273.078-.545.116-.817l.117-.812c.013-.1.027-.193.037-.283C807.3,480.7,806.971,479.925,806.934,479.268Zm-3.755,11.759a2.588,2.588,0,0,1-.283-1.23h-.016a.631.631,0,0,0-.018-.4c-.044-.1-.12-.191-.167-.294a1.077,1.077,0,0,1-.076-.4,10.8,10.8,0,0,1,.2-2.568c.018-.1.038-.2.057-.3a.739.739,0,0,0,.161-.126,1.151,1.151,0,0,0,.183-.283c.16-.321.306-.648.44-.981.044-.108.108-.232.217-.259a6.214,6.214,0,0,1-.275,2.42,1.537,1.537,0,0,0-.142.382c-.031.211.057.425.026.634-.016.109-.062.209-.081.317a.31.31,0,0,0,.082.3.247.247,0,0,0,.061.031c-.008.057-.016.115-.021.17-.011.116-.017.225-.024.293a9.146,9.146,0,0,0-.038,1.042c0,.375.014.75.009,1.132a.768.768,0,0,1-.054.321.558.558,0,0,1-.108.142,3.654,3.654,0,0,0-.135-.35Z" transform="translate(-676.665 -407.926)"/><ellipse class="k" cx="0.798" cy="2.26" rx="0.798" ry="2.26" transform="matrix(0.98, -0.201, 0.201, 0.98, 113.653, 62.409)"/><path class="d" d="M878.133,836.23a.857.857,0,0,0,.314.981,1.4,1.4,0,0,0,.406.142,2.142,2.142,0,0,0,.59.081c.245-.011.48-.108.725-.142a.113.113,0,0,1,.083.011.12.12,0,0,1,.031.1,3.751,3.751,0,0,0,.031.416.214.214,0,0,0,.074.16.222.222,0,0,0,.113.02h.767a7.485,7.485,0,0,0-.219-2,.448.448,0,0,0-.057-.141.468.468,0,0,0-.245-.142,1.368,1.368,0,0,0-.593-.1,1.737,1.737,0,0,0-.665.326,1.014,1.014,0,0,1-.754.183C878.478,836.05,878.264,835.836,878.133,836.23Z" transform="translate(-756.196 -724.057)"/><path class="k" d="M793.057,833.846a2.123,2.123,0,0,1-.774.527l-.13.062a.091.091,0,0,0-.044.035.076.076,0,0,0,.014.064.916.916,0,0,0,1.039.378.55.55,0,0,0,.228-.119.747.747,0,0,0,.176-.456.932.932,0,0,0-.021-.522C793.347,833.371,793.275,833.572,793.057,833.846Z" transform="translate(-682.384 -722.294)"/><path class="d" d="M790.741,836.084a.344.344,0,0,1-.024.157c-.067.13-.252.123-.4.095a9.528,9.528,0,0,0-.174-1.43c-.275-.013-.473.248-.62.481l-.379.6a.787.787,0,0,1-.227.263.671.671,0,0,1-.245.078,4.641,4.641,0,0,1-2.156-.334,1.144,1.144,0,0,1-.293-.125.6.6,0,0,1-.142-.818c.293-.4.951-.283,1.316-.612a3.291,3.291,0,0,1-.187.675c.488-.074.817-.521,1.21-.819a.744.744,0,0,1,.345-.164.76.76,0,0,1,.283.03,3.32,3.32,0,0,1,1.246.613,1.343,1.343,0,0,1,.446.464A3.438,3.438,0,0,1,790.741,836.084Z" transform="translate(-677.127 -722.789)"/><circle class="k" cx="2.924" cy="2.924" r="2.924" transform="translate(120.427 60.746)"/><path class="d" d="M910.7,613.72a6.941,6.941,0,0,1-.236,1.655,17.086,17.086,0,0,1-.535,1.982,4.359,4.359,0,0,0-.378,1.444.96.96,0,0,1-.093.6.88.88,0,0,1-.413.236.517.517,0,0,0-.348.31,2.186,2.186,0,0,1-.294-.648q-.381-1.166-.708-2.345a.3.3,0,0,1,.02-.283.352.352,0,0,1,.123-.069,1.273,1.273,0,0,0,.392-.252.573.573,0,0,0,.13-.168.763.763,0,0,0,.055-.32c0-.375,0-.749-.01-1.124a9.389,9.389,0,0,1,.04-1.037c0-.068.013-.177.024-.293.021-.222.064-.48.184-.566.18-.12.718.041.921.069.351.048.708.1,1.05.171A2.8,2.8,0,0,1,910.7,613.72Z" transform="translate(-781.588 -532.785)"/><path class="d" d="M826.248,502.693c-.113.226-.385.335-.594.478l-.718.493a.478.478,0,0,1-.355.122.467.467,0,0,1-.265-.248.05.05,0,0,0,0-.011l-.149-.249-.708-1.186a.675.675,0,0,1-.132-.365c0-.061.021-.117.027-.178a.857.857,0,0,0-.142-.481c-.057-.106-.17-.194-.167-.313a1.131,1.131,0,0,1,.079-.457.926.926,0,0,1,.31-.331c.067-.048.135-.093.205-.142a.4.4,0,0,1,.123-.057c.117-.024.234.074.352.078.511.343.708.991,1.11,1.458.227.266.249.47.505.708.041.037.081.076.119.117a.819.819,0,0,1,.127.184C826.024,502.433,826.306,502.576,826.248,502.693Z" transform="translate(-708.943 -435.748)"/><path class="k" d="M873.135,504.948a2.635,2.635,0,0,1,.314,1.425.89.89,0,0,1-.123.375,1.212,1.212,0,0,1-1,.388.592.592,0,0,0-.436.142.4.4,0,0,0,.027.484,1.093,1.093,0,0,0,.433.283,3.835,3.835,0,0,0,1.864.413c.3-.028.586-.115.882-.159a9.257,9.257,0,0,1,.971-.054c.385-.014.769-.052,1.152-.091l1.016-.1a.226.226,0,0,0,.151-.055c.075-.088-.021-.217-.115-.283-.539-.4-1.226-.674-1.533-1.274a7.5,7.5,0,0,1-.29-.926,7.783,7.783,0,0,1-.337-.893,5.919,5.919,0,0,1-.047-.824,1.105,1.105,0,0,0-.283-.753,1.18,1.18,0,0,0-.77-.248,2.493,2.493,0,0,0-1.877.609c-.129.129-.239.283-.372.4s-.314.15-.226.3.26.248.354.382A3.261,3.261,0,0,1,873.135,504.948Z" transform="translate(-750.811 -438.352)"/><path class="d" d="M860.314,525.022a16.083,16.083,0,0,1-.866,3.189,12,12,0,0,0-.51,1.43c-.109.439-.088.909-.188,1.349-.125.548-.249,1.1-.35,1.649a10.809,10.809,0,0,0-.2,2.562,1.07,1.07,0,0,0,.076.395c.047.1.122.19.166.294a.708.708,0,0,1-.04.566,1.638,1.638,0,0,1-.292.442,18.1,18.1,0,0,1-4.1.348,16.508,16.508,0,0,1-3.8.12,3.009,3.009,0,0,1,.3-1.711,12.571,12.571,0,0,0,1.132-4.954,5.139,5.139,0,0,0-.067-.585,7.75,7.75,0,0,1,.377-3.577,6.137,6.137,0,0,0,.161-2.234,4.087,4.087,0,0,1-.01-.732,1.287,1.287,0,0,1,.266-.684c0-.01.013-.02.02-.03a.194.194,0,0,1,.106,0h0a.091.091,0,0,0,.071,0l.016-.01a.035.035,0,0,1,.041,0c.033.02.051.088.122.1a2.819,2.819,0,0,0,.316.03,1.7,1.7,0,0,1,.377.054h.017a1.106,1.106,0,0,0,.549-.047,1.46,1.46,0,0,0,.337-.13c.031-.034.227-.065.266-.089.129-.078.1-.443.127-.593a1.63,1.63,0,0,1,.106-.439.747.747,0,0,1,.606-.352,3.229,3.229,0,0,1,.726.065c.528.075,1.069.062,1.587.184a1.182,1.182,0,0,0,.784.034c.065.016.075.072.075.142a.91.91,0,0,1-.04.194c-.091.391.217.75.5,1.033a1.6,1.6,0,0,0,.418.333c.142.065.283.092.425.163a.772.772,0,0,1,.283.259,1.082,1.082,0,0,1,.161.412A2.465,2.465,0,0,1,860.314,525.022Z" transform="translate(-732.225 -454.308)"/><path class="l" d="M868.393,533.878a16.084,16.084,0,0,1-.866,3.189,12,12,0,0,0-.51,1.43c-.109.439-.088.909-.188,1.349-.125.548-.249,1.1-.35,1.649-.03.017-.061.033-.092.047a2.172,2.172,0,0,1-.555.178,3.4,3.4,0,0,1-1.036-.034l-2.02-.27a4.069,4.069,0,0,1-2.265-.787,4.829,4.829,0,0,1-.79-1.079,5.138,5.138,0,0,0-.067-.585,7.748,7.748,0,0,1,.376-3.577,6.138,6.138,0,0,0,.161-2.234,4.077,4.077,0,0,1-.01-.732,1.287,1.287,0,0,1,.266-.684,1.011,1.011,0,0,1,.126-.028h0a.631.631,0,0,1,.086-.011h.041a.618.618,0,0,1,.142.017,2.554,2.554,0,0,1,.283.109h.017a1.084,1.084,0,0,0,.376.054c.187,0,.379-.03.566-.042a1.044,1.044,0,0,1,.671.12,4.018,4.018,0,0,1,.374.341,1.605,1.605,0,0,0,.471.256,5.009,5.009,0,0,0,3.768-.079.737.737,0,0,1,.378-.1.708.708,0,0,1,.272.116c.085.049.168.1.255.142a1.081,1.081,0,0,1,.161.412A2.464,2.464,0,0,1,868.393,533.878Z" transform="translate(-740.304 -463.165)"/><path class="b" d="M862.211,531.294a7.556,7.556,0,0,1-1.614-.708.723.723,0,0,0-.272-.116.76.76,0,0,0-.379.1,5.006,5.006,0,0,1-3.766.079,1.639,1.639,0,0,1-.471-.256,4.243,4.243,0,0,0-.374-.341c-.466-.3-1.11.052-1.631-.141a2.894,2.894,0,0,0-.283-.109c-.412-.1-.831.307-1.236.183a6.882,6.882,0,0,0-.333,1.263,13.781,13.781,0,0,0-.092,1.489c0,.3-.014.6,0,.9a.294.294,0,0,1,.224.464,11.6,11.6,0,0,1-1.045,2.209,4.8,4.8,0,0,1,.875.668c.5.524.739,1.258,1.274,1.742a4.09,4.09,0,0,0,2.265.786l2.02.27a3.453,3.453,0,0,0,1.037.035,2.185,2.185,0,0,0,.553-.18.991.991,0,0,0,.309-.2,1.133,1.133,0,0,0,.182-.283c.16-.32.306-.647.44-.978.047-.117.117-.255.245-.265.75-.677,1.458-1.37,2.208-2.047a4.894,4.894,0,0,0,.805-.849c.372-.551.034-1.33,0-2a2.52,2.52,0,0,0-.064-.505A1.622,1.622,0,0,0,862.211,531.294Z" transform="translate(-732.89 -461.517)"/><path class="l" d="M833.945,516.878c-.113.226-.385.335-.594.478l-.718.493a.478.478,0,0,1-.355.122.467.467,0,0,1-.265-.248v-.1a.949.949,0,0,1,.045-.338,1.054,1.054,0,0,1,.317-.408,2.6,2.6,0,0,1,.93-.566.318.318,0,0,1,.17-.017.223.223,0,0,1,.062.027.822.822,0,0,1,.127.184C833.722,516.619,834,516.762,833.945,516.878Z" transform="translate(-716.641 -449.933)"/><path class="b" d="M836.7,518.925a1.031,1.031,0,0,1-.613-.351l-.536-.5a.5.5,0,0,1-.093-.1.731.731,0,0,1-.065-.174,2,2,0,0,0-.521-.747.34.34,0,0,0-.154-.11.31.31,0,0,0-.171.017,2.587,2.587,0,0,0-.93.566,1.057,1.057,0,0,0-.317.408.942.942,0,0,0-.045.338,2.6,2.6,0,0,0,.246,1.081c.024.052.051.1.079.156a4.9,4.9,0,0,0,.665.865l.337.377c.331.371.662.742,1.022,1.083a1.351,1.351,0,0,0,.459.32.512.512,0,0,0,.527-.085.761.761,0,0,0,.15-.269,5.3,5.3,0,0,0,.437-1.765,6.673,6.673,0,0,0-.031-.732C837.123,519.041,836.94,518.94,836.7,518.925Z" transform="translate(-717.705 -450.488)"/><path class="m" d="M815.16,631.441a32.7,32.7,0,0,1-.3,4.256c-.028.228-.059.456-.075.684-.047.661.03,1.325-.033,1.982-.033.355-.106.708-.168,1.054a18.755,18.755,0,0,0-.241,4.692c.2,2.609-.4,5.219-.132,7.82a6.323,6.323,0,0,1-.083,1.513,6.424,6.424,0,0,1-.219.914q-.31,1.063-.623,2.123a.736.736,0,0,1-.142.294.671.671,0,0,1-.531.157,6.121,6.121,0,0,1-2.327-.722.809.809,0,0,1-.234-.142c-.154-.16-.142-.412-.209-.623a5.931,5.931,0,0,0-.357-.626,2.04,2.04,0,0,1-.154-.644q-.142-1.087-.193-2.183c-.054-1.028.626-1.973.849-2.972.425-1.965.065-4.071.819-5.935.238-.589-.108-1.3-.141-1.936a6.133,6.133,0,0,0-.159-1.214,7.528,7.528,0,0,1-.461-1.585,5.828,5.828,0,0,1,.18-1.182,5.314,5.314,0,0,0-.024-1.745c-.075-.476-.19-.951-.3-1.415l-.026.052a15.986,15.986,0,0,0-.888,2.088c-.113.347-.212.7-.354,1.037-.116.283-.259.542-.4.808a23.212,23.212,0,0,0-1.309,2.909c-.175.49-.33.991-.483,1.482l-1.049,3.4c-.283.893-.593,1.757-.87,2.648-.392,1.274-.784,2.536-1.24,3.782a8.17,8.17,0,0,0-.779,3.655,2.689,2.689,0,0,1-1.25.253,7.32,7.32,0,0,1-2.123-.515,1.65,1.65,0,0,1-.733-.436,1.734,1.734,0,0,1-.142-1.434,3.468,3.468,0,0,1,.17-.645c.108-.26.283-.491.393-.749a6.279,6.279,0,0,0,.324-1.59,1.962,1.962,0,0,1,.742-1.394,20.139,20.139,0,0,1,.679-2.794c.161-.7.215-1.415.343-2.123a4.663,4.663,0,0,1,.76-1.989,3.152,3.152,0,0,1,.385-1.7,1.855,1.855,0,0,0,.168-.361,2.064,2.064,0,0,0,.045-.374,2.21,2.21,0,0,1,.6-1.312,2.663,2.663,0,0,1,.232-1.557,5.412,5.412,0,0,0,.3-1.991,1.747,1.747,0,0,1,.027-.566c.04-.142.117-.262.163-.4a2.263,2.263,0,0,0,.064-.508,5.878,5.878,0,0,1,.708-2.171c.2-.4.031-.941.074-1.386a5.357,5.357,0,0,1,.521-2.147c.068-.122.142-.238.2-.364a1.574,1.574,0,0,0,.117-.566,2.084,2.084,0,0,0-.058-.895,4.587,4.587,0,0,1,2.776-.849,17.3,17.3,0,0,0,2.945-.163c.283-.064.566-.151.865-.194a5.6,5.6,0,0,1,2.035.208,2.424,2.424,0,0,0,.283,1.227A13.174,13.174,0,0,1,815.16,631.441Z" transform="translate(-687.588 -543.189)"/><path class="l" d="M882.8,673.29l-1.626,3.657c-.075-.476-.19-.951-.3-1.415l-.025.052v-.076l.886-1.949Z" transform="translate(-758.557 -584.714)"/><path class="l" d="M915.492,613.721a.612.612,0,0,1-.323.12,1.572,1.572,0,0,1-.529-.072l-1.274-.318a.625.625,0,0,1-.116-.041c.021-.222.064-.48.184-.566.18-.12.718.041.921.069.351.048.708.1,1.05.171A2.807,2.807,0,0,1,915.492,613.721Z" transform="translate(-786.38 -532.785)"/><path class="b" d="M915.768,557.07c.027.117.065.234.088.352a2.688,2.688,0,0,1-.03.876l-.116.81-.116.814-.449,3.132-.11.776-.156,1.083a.779.779,0,0,1-.068.26.542.542,0,0,1-.443.262,1.607,1.607,0,0,1-.529-.072l-1.274-.32a.4.4,0,0,1-.156-.064.307.307,0,0,1-.082-.3c.018-.108.065-.208.081-.316.031-.209-.057-.425-.025-.633a1.575,1.575,0,0,1,.141-.381c.425-.938.178-2.034.323-3.053a4.628,4.628,0,0,1,.982-2.185,6.272,6.272,0,0,1,1.084-1.064,2.181,2.181,0,0,1,.61-.425C915.779,556.57,915.726,556.891,915.768,557.07Z" transform="translate(-785.579 -484.556)"/><path class="m" d="M860.581,469.312c-.093.3.052.624-.014.927-.072.334-.386.566-.476.9-.142.511.292.977.609,1.4,1.175,1.577,1.021,3.759.619,5.683a29.35,29.35,0,0,1-1.338,4.529,3.472,3.472,0,0,1-.72,1.264,3.726,3.726,0,0,1,2-.194c.827.229,1.54,1.032,2.378.849.5-.112.858-.559,1.311-.807a4.49,4.49,0,0,1,2.82-.023,1.107,1.107,0,0,0,.616-.031,1.023,1.023,0,0,0,.374-.344,3.49,3.49,0,0,0,.728-1.883,2.415,2.415,0,0,0-.695-1.858,3.974,3.974,0,0,1-.6-.566,1.759,1.759,0,0,1-.234-.858c-.112-1.557.268-3.146-.123-4.652a11.489,11.489,0,0,1-.434-1.6,7.1,7.1,0,0,0-.164-2.041,2,2,0,0,0-1.193-1.03,6.539,6.539,0,0,0-1.591-.283C863.675,468.633,860.9,468.3,860.581,469.312Z" transform="translate(-740.032 -408.991)"/><g class="n" transform="translate(119.228 59.997)"><path d="M865.73,490.987A29.285,29.285,0,0,1,864.4,495.5c.1-.194.18-.4.258-.6A29.194,29.194,0,0,0,866,490.369c.4-1.925.558-4.1-.617-5.683a2.22,2.22,0,0,1-.634-1.226,1.507,1.507,0,0,0-.241.444c-.142.511.292.977.609,1.4C866.287,486.881,866.132,489.064,865.73,490.987Z" transform="translate(-863.672 -481.75)"/><path d="M868.384,472.488a1.376,1.376,0,0,0,.249-.477,2.427,2.427,0,0,0-.017-.631.681.681,0,0,0-.235.324A2.8,2.8,0,0,0,868.384,472.488Z" transform="translate(-867.061 -471.38)"/><path d="M869.019,566.277a1.018,1.018,0,0,1-.374.343,1.081,1.081,0,0,1-.616.031,4.528,4.528,0,0,0-2.819.024c-.454.246-.807.694-1.312.807-.837.187-1.55-.616-2.376-.849a3.318,3.318,0,0,0-1.793.142,2.474,2.474,0,0,1-.469.677,3.725,3.725,0,0,1,2-.194c.827.229,1.54,1.032,2.378.849.5-.112.858-.559,1.311-.807a4.49,4.49,0,0,1,2.819-.023,1.108,1.108,0,0,0,.616-.031,1.023,1.023,0,0,0,.374-.344,3.8,3.8,0,0,0,.586-1.121A4.109,4.109,0,0,1,869.019,566.277Z" transform="translate(-859.26 -552.418)"/></g></g></svg>