<svg xmlns="http://www.w3.org/2000/svg" width="33" height="33" viewBox="0 0 33 33"><defs><style>.a{fill:#00a54f;}.b{fill:rgba(255,255,255,0);stroke:#fff;stroke-dasharray:3;}.c{fill:#fcfdfd;}.d{fill:#fbfdfc;}.e{fill:#fafdfc;}.f{stroke:none;}.g{fill:none;}</style></defs><g transform="translate(-22 -240)"><g transform="translate(22 240)"><circle class="a" cx="16.5" cy="16.5" r="16.5"/><g class="b" transform="translate(1 1)"><circle class="f" cx="15.5" cy="15.5" r="15.5"/><circle class="g" cx="15.5" cy="15.5" r="15"/></g></g><g transform="translate(29.738 246.945)"><path class="c" d="M675.885,356.947h.211q3.911,0,7.822-.008a.221.221,0,0,1,.234.141c.348.694.7,1.384,1.057,2.075.027.054.051.109.077.164a.285.285,0,0,1-.171.021c-1.486,0-2.971,0-4.457,0a.674.674,0,0,0-.665.395c-.543,1.042-1.1,2.079-1.642,3.12-.19.363-.185.371.225.371,1.388,0,2.776,0,4.165-.009a.647.647,0,0,1,.673.438c.251.57.536,1.125.805,1.687a.637.637,0,0,1,.05.144.092.092,0,0,1-.093.126c-.087.005-.174.011-.261.011-2.116.009-4.231.021-6.347-.013a1.028,1.028,0,0,0-1.065.677c-.345.781-.779,1.518-1.19,2.265a.464.464,0,0,1-.445.265c-.717-.009-1.434,0-2.151,0h-.062c-.157-.011-.177-.043-.123-.189a9.2,9.2,0,0,1,.578-1.149q1.951-3.633,3.908-7.263c.121-.225.239-.452.368-.672a.461.461,0,0,0-.049-.565c-.413-.546-.818-1.1-1.222-1.652C676.037,357.209,675.973,357.088,675.885,356.947Z" transform="translate(-672.507 -352.023)"/><path class="d" d="M1024.515,472.94c.333,0,.666.007,1,0a.518.518,0,0,1,.522.324q.445.916.9,1.829,1.41,2.859,2.821,5.717a2.431,2.431,0,0,1,.109.253c.039.107.016.182-.117.185-.061,0-.122.013-.184.013-.661,0-1.321,0-1.982.009a.568.568,0,0,1-.567-.357q-1.513-3.105-3.04-6.2-.344-.7-.678-1.408c-.144-.3-.11-.356.222-.358s.666,0,1,0Z" transform="translate(-1012.431 -464.456)"/><path class="e" d="M893.833,197.048c.254.413.48.836.706,1.26q.7,1.3,1.386,2.612c.147.277.12.328-.188.329q-1.936.008-3.871.009c-.259,0-.3-.078-.182-.306q.976-1.833,1.954-3.665A.676.676,0,0,1,893.833,197.048Z" transform="translate(-884.883 -197.048)"/></g></g></svg>