<svg xmlns="http://www.w3.org/2000/svg" width="248.285" height="185" viewBox="0 0 248.285 185"><defs><style>.a{fill:#3f3d56;}.b{fill:#ffb9b9;}.c{fill:#cfcce0;}.d{fill:#2f2e41;}.e{fill:#f2f2f2;}.f{fill:#00a54f;}</style></defs><g transform="translate(0 0)"><rect class="a" width="151.244" height="0.642" transform="translate(27.742 174.405)"/><path class="b" d="M538.309,424.543s-3.21,14.444,3.21,11.876,2.568-12.518,2.568-12.518Z" transform="translate(-430.36 -338.499)"/><path class="b" d="M750.583,443.964s7.7,9.308,2.889,11.234-7.382-8.666-6.741-9.629S750.583,443.964,750.583,443.964Z" transform="translate(-582.611 -353.106)"/><circle class="b" cx="9.629" cy="9.629" r="9.629" transform="translate(140.047 5.8)"/><path class="b" d="M520.352,70.3l-1.284,9.95,10.592,3.852,2.247-11.234Z" transform="translate(-377.898 -51.184)"/><path class="c" d="M603.653,203.139s-5.441-2.686-6.572-4.874l-2.415,2.306s-17.333-1.6-19.9,7.061-.321,40.122-.321,40.122-3.531,14.123-2.568,14.444a50.725,50.725,0,0,0,29.53,2.889s7.382-1.284,8.666-.321-.642-15.407-.642-15.407,12.839-28.888,10.592-32.419-12.2-10.913-12.2-10.913l.642-3.531S603.974,204.423,603.653,203.139Z" transform="translate(-455.261 -174.229)"/><path class="c" d="M550.091,224.447s-5.778,2.889-6.741,7.382-9.95,41.727-8.987,43.974a11.82,11.82,0,0,1,.642,5.136l8.345-.963s-1.6-2.247-.642-3.21,1.926-4.173,1.284-5.457-1.284.963,2.247-3.21S557.794,225.731,550.091,224.447Z" transform="translate(-428.019 -193.29)"/><path class="c" d="M712.2,264.574s2.728.16,3.37,4.654,1.765,32.258,1.765,32.258,4.173,8.987,2.568,10.271a2.665,2.665,0,0,0-.642,3.21l-5.778,1.6-12.518-19.58Z" transform="translate(-549.362 -222.504)"/><path class="d" d="M565.268,428.622s-1.926.321-1.926,7.382-3.531,28.888-1.284,32.419,2.568,35.307,2.568,35.307,6.1,2.568,11.234-5.778l.642-4.494,1.284-21.826,5.136-27.283,7.061,30.172s-.963,36.27,2.568,36.27,10.271-2.889,10.271-2.889,1.6-3.21.963-4.815-1.284-1.284-.642-2.568,1.6-34.666,1.6-34.666-1.284-34.344-2.889-35.307S565.268,428.622,565.268,428.622Z" transform="translate(-447.69 -341.936)"/><path class="d" d="M549.948,686.32l-5.136,5.457s-9.308,8.666-1.284,8.987,12.518-5.136,12.518-5.778.321-2.889,2.568-2.889,7.7-5.457,6.42-7.7-5.136-3.21-5.136-3.21Z" transform="translate(-432.369 -525.81)"/><path class="d" d="M671.18,716.417s-3.852,7.7-1.6,9.308a27.007,27.007,0,0,1,2.889,2.247s1.926-.321,1.6,2.568,11.555,4.494,12.2,2.247.321-6.74-.963-8.024-5.136-10.271-5.136-10.271S675.995,709.677,671.18,716.417Z" transform="translate(-525.998 -548.845)"/><path class="d" d="M672.772,117.583l1.814-.258s-2.525-4.648-7.413-5.492l1.716-1.158s-2.981-2.131-6.834.608a30.186,30.186,0,0,0-6.107,5.278l-1.77-.432.341,1.807-2.982.994,2.724.356a9.354,9.354,0,0,0-.731,2.68,3.593,3.593,0,0,0,.72,2.6h0s3.086-3.741,3.247-4.4l-.4,1.654s2.016-1.085,2.259-2.077l.618,1.378.9-1.709,5.113,3.177-.538-1.709,3.334,1.34-.907-2.149s3.38,3.1,3.086,4.96a8.991,8.991,0,0,0,.427,3.859S676.522,121.128,672.772,117.583Z" transform="translate(-513.378 -109.886)"/><rect class="a" width="51.402" height="0.615" transform="translate(196.884 116.797)"/><rect class="c" width="12.39" height="12.39" transform="translate(43.759 164.189)"/><path class="a" d="M309.087,718.245H296.044V705.2h13.042Zm-12.39-.652h11.738V705.854H296.7Z" transform="translate(-254.567 -543.295)"/><rect class="e" width="8.407" height="8.116" transform="matrix(0.933, -0.361, 0.361, 0.933, 61.865, 58.959)"/><path class="a" d="M375.049,319.829l-8.254,3.192-3.082-7.968,8.254-3.192Zm-8,2.634,7.429-2.873-2.774-7.171-7.429,2.873Z" transform="translate(-303.833 -256.93)"/><rect class="e" width="8.407" height="8.116" transform="translate(211.056 140.255) rotate(71.027)"/><path class="a" d="M896.087,629.569,893.21,621.2l8.079-2.778,2.877,8.369Zm-2.329-8.089,2.589,7.532,7.271-2.5-2.59-7.532Z" transform="translate(-689.323 -480.117)"/><path class="f" d="M264.411,509.5c4.6.1,8.254,3.43,8.254,3.43s-3.8,3.172-8.394,3.073-8.254-3.43-8.254-3.43S259.814,509.4,264.411,509.5Z" transform="translate(-225.426 -400.818)"/><path class="f" d="M185.5,433.192c4.153,1.973,8.916.635,8.916.635s-1.971-4.537-6.125-6.51-8.916-.635-8.916-.635S181.348,431.219,185.5,433.192Z" transform="translate(-169.63 -340.201)"/><path class="a" d="M182.047,444.486c4.579-.418,8.587,2.481,8.587,2.481s-3.416,3.578-8,4-8.587-2.481-8.587-2.481S177.468,444.9,182.047,444.486Z" transform="translate(-165.753 -353.456)"/><path class="a" d="M265.048,426.157c-.439,4.577,2.443,8.6,2.443,8.6s3.593-3.4,4.032-7.978-2.443-8.6-2.443-8.6S265.487,421.58,265.048,426.157Z" transform="translate(-231.968 -334.334)"/><path class="a" d="M339.881,536.274c-2.4,3.921-1.575,8.8-1.575,8.8s4.72-1.48,7.122-5.4,1.575-8.8,1.575-8.8S342.283,532.353,339.881,536.274Z" transform="translate(-285.235 -416.378)"/><path class="a" d="M255.129,522.48l.35-.237a10.966,10.966,0,0,1-1.935-6.081c.01-3.18,1.572-6.122,3.083-8.967.28-.528.56-1.054.829-1.58a34.5,34.5,0,0,0,2.683-6.736c2.343-8.708.036-18.983-6.172-27.484-4.925-6.744-12.266-12.641-22.442-18.028l-.2.373c10.119,5.357,17.413,11.213,22.3,17.9,6.133,8.4,8.415,18.539,6.1,27.125a34.089,34.089,0,0,1-2.651,6.654c-.268.524-.547,1.048-.826,1.575-1.535,2.89-3.122,5.879-3.132,9.164A11.392,11.392,0,0,0,255.129,522.48Z" transform="translate(-207.452 -359.951)"/><circle class="a" cx="4.013" cy="4.013" r="4.013" transform="translate(0 85.945)"/><path class="d" d="M679.765,278.411l-51.656-18.553,9.222-25.677,32.164-7.888,19.493,26.441Z" transform="translate(-457.283 -164.749)"/><path class="e" d="M835.238,368.533l-38.6-14.715c10.021-13.423,14.5-22.892,14.506-37.792l38.6,14.715C840.776,343.479,837.026,353.056,835.238,368.533Z" transform="translate(-619.014 -259.962)"/><rect class="a" width="21.403" height="0.995" transform="translate(199.263 65.167) rotate(20.866)"/><rect class="a" width="21.403" height="0.995" transform="translate(197.845 68.888) rotate(20.866)"/><rect class="a" width="21.403" height="0.995" transform="translate(196.427 72.609) rotate(20.866)"/><rect class="a" width="21.403" height="0.995" transform="translate(195.008 76.33) rotate(20.866)"/><rect class="a" width="21.403" height="0.995" transform="translate(193.59 80.05) rotate(20.866)"/><rect class="a" width="21.403" height="0.995" transform="translate(192.172 83.771) rotate(20.866)"/><rect class="a" width="21.403" height="0.995" transform="translate(190.754 87.492) rotate(20.866)"/><rect class="a" width="21.403" height="0.995" transform="translate(189.335 91.213) rotate(20.866)"/><path class="a" d="M675.377,302.849,623.721,284.3l10.416-29,21.814,20.454,29.843-1.9Z" transform="translate(-454.089 -185.864)"/><path class="f" d="M648.2,325l-25.757-9.251,6.276-17.475.512.184-6.092,16.963,25.245,9.067Z" transform="translate(-453.157 -217.155)"/><rect class="f" width="8.024" height="3.21" transform="translate(178.334 86.551) rotate(19.756)"/><path class="a" d="M261.295,581.295l-40.43-.021.317-22.7,20.092,9.031,20.337-8.465Z" transform="translate(-160.797 -406.661)"/><rect class="f" width="5.911" height="2.365" transform="translate(63.288 164.251) rotate(0.801)"/><path class="f" d="M262.312,558.932,241.877,569.35l-20.236-10.418v-.6h40.671Z" transform="translate(-161.361 -406.483)"/><ellipse class="f" cx="2.456" cy="6.799" rx="2.456" ry="6.799" transform="translate(204.849 63.992) rotate(-69.134)"/><path class="f" d="M931.473,211.184a10.335,10.335,0,0,0-12.937,6.8c-1.695,5.45,2.924,25.4,2.924,25.4s15.119-13.815,16.813-19.266A10.335,10.335,0,0,0,931.473,211.184Zm-4.522,14.543a4.9,4.9,0,1,1,6.128-3.221A4.9,4.9,0,0,1,926.95,225.727Z" transform="translate(-707.489 -183.293)"/></g></svg>