<svg xmlns="http://www.w3.org/2000/svg" xmlns:xlink="http://www.w3.org/1999/xlink" width="34.69" height="38.324" viewBox="0 0 34.69 38.324"><defs><style>.a{fill:rgba(233,233,233,0.61);stroke:#00a54f;stroke-dasharray:3;}.b{fill:#00a54f;}.c{stroke:none;}.d{fill:none;}.e{filter:url(#a);}</style><filter id="a" x="0" y="1.678" width="34.69" height="36.646" filterUnits="userSpaceOnUse"><feOffset dy="3" input="SourceAlpha"/><feGaussianBlur stdDeviation="3" result="b"/><feFlood flood-opacity="0.161"/><feComposite operator="in" in2="b"/><feComposite in="SourceGraphic"/></filter></defs><g transform="translate(-322.655 -190)"><g class="a" transform="translate(323 190)"><rect class="c" width="34" height="34" rx="3"/><rect class="d" x="0.5" y="0.5" width="33" height="33" rx="2.5"/></g><g transform="translate(307.49 197.678)"><g class="e" transform="matrix(1, 0, 0, 1, 15.16, -7.68)"><path class="b" d="M6546.086,17969.064c-.338-.275-.676-.551-.974-.848a7.874,7.874,0,0,1-.974-1.1,8.534,8.534,0,0,1-.568-.844.462.462,0,0,1-.022-.406,5.388,5.388,0,0,1,.487-.889,5.986,5.986,0,0,1,4.163-2.619.8.8,0,0,1,.613.148,5.151,5.151,0,0,0,6.089,0,.882.882,0,0,1,.613-.148,6.043,6.043,0,0,1,4.167,2.619,4.862,4.862,0,0,1,.487.889.373.373,0,0,1-.067.406,7.336,7.336,0,0,1-.568.844,9.642,9.642,0,0,1-.974,1.1,8.736,8.736,0,0,1-.97.848,9.635,9.635,0,0,1-11.5,0Zm.929-11.9a4.842,4.842,0,1,1,4.839,4.84A4.855,4.855,0,0,1,6547.016,17957.162Z" transform="translate(-6534.51 -17944.64)"/></g></g></g></svg>