<svg xmlns="http://www.w3.org/2000/svg" width="12.852" height="12.949" viewBox="0 0 12.852 12.949"><defs><style>.a{fill:#fff;}</style></defs><path class="a" d="M12.642,1.926A6.425,6.425,0,0,0,1.633,6.62a6.123,6.123,0,0,0,.439,2.15,6.365,6.365,0,0,0,.909,1.59l-.53,1.257A.952.952,0,0,0,3.5,12.934l2.453-.424A6.433,6.433,0,0,0,12.642,1.926ZM7.584,9H5.9a.485.485,0,0,1,0-.969H7.584a.488.488,0,0,1,.485.485A.478.478,0,0,1,7.584,9ZM10.2,7.029H5.9a.488.488,0,0,1-.485-.485A.478.478,0,0,1,5.9,6.06h4.3a.485.485,0,0,1,0,.969Zm0-1.984H5.9a.485.485,0,0,1,0-.969h4.3a.488.488,0,0,1,.485.485A.5.5,0,0,1,10.2,5.045Z" transform="translate(-1.63 0)"/></svg>