<svg xmlns="http://www.w3.org/2000/svg" xmlns:xlink="http://www.w3.org/1999/xlink" width="53.544" height="53.161" viewBox="0 0 53.544 53.161"><defs><style>.a{fill:rgba(233,233,233,0.61);stroke:#00a54f;stroke-dasharray:3;}.b{fill:#00a54f;stroke:rgba(0,0,0,0);stroke-miterlimit:10;}.c{stroke:none;}.d{fill:none;}.e{filter:url(#a);}</style><filter id="a" x="0" y="0" width="53.544" height="53.161" filterUnits="userSpaceOnUse"><feOffset dy="3" input="SourceAlpha"/><feGaussianBlur stdDeviation="6" result="b"/><feFlood flood-opacity="0.361"/><feComposite operator="in" in2="b"/><feComposite in="SourceGraphic"/></filter></defs><g transform="translate(-313.523 -338.904)"><g class="a" transform="translate(323 346)"><rect class="c" width="34" height="34" rx="3"/><rect class="d" x="0.5" y="0.5" width="33" height="33" rx="2.5"/></g><g transform="translate(332.023 354.625)"><g class="e" transform="matrix(1, 0, 0, 1, -18.5, -15.72)"><path class="b" d="M13.828,15.6q-1.436-2.944-2.883-5.885c-.216-.441-.431-.887-.642-1.336-.137-.283-.105-.336.21-.336h.947c.315,0,.632.006.947-.006a.5.5,0,0,1,.495.311q.418.87.847,1.73,1.342,2.716,2.678,5.426a1.682,1.682,0,0,1,.1.236c.037.105.016.176-.11.18-.058,0-.116.012-.174.012-.626,0-1.252,0-1.878,0h-.018A.532.532,0,0,1,13.828,15.6ZM.2,15.92H.142c-.148-.018-.168-.043-.116-.18a9.713,9.713,0,0,1,.547-1.1L4.283,7.762c.111-.215.226-.432.348-.641a.437.437,0,0,0-.048-.531c-.389-.521-.773-1.041-1.157-1.568C3.347,4.916,3.289,4.8,3.2,4.67h.2q3.71,0,7.419-.008a.213.213,0,0,1,.221.135c.332.656.668,1.309,1,1.965.026.053.053.105.074.158-.058.037-.11.018-.163.018-1.4,0-2.815,0-4.225,0a.635.635,0,0,0-.626.371c-.516.992-1.042,1.969-1.558,2.959-.184.342-.179.354.211.354,1.315,0,2.636,0,3.951-.012a.628.628,0,0,1,.637.416c.237.543.5,1.066.763,1.6a.706.706,0,0,1,.047.139.088.088,0,0,1-.089.121c-.079.006-.163.01-.247.01-2.005.012-4.01.021-6.015-.01a.968.968,0,0,0-1.01.643c-.332.736-.742,1.436-1.132,2.145a.446.446,0,0,1-.421.254C1.563,15.914.884,15.92.2,15.92ZM6.451,3.7Q7.374,1.964,8.3.227A.679.679,0,0,1,8.487,0c.242.389.458.789.668,1.193Q9.818,2.438,10.47,3.67c.137.262.116.311-.179.314-1.22,0-2.447,0-3.672.012C6.377,4,6.334,3.922,6.451,3.7Z" transform="translate(18.5 15.72)"/></g></g></g></svg>