<svg xmlns="http://www.w3.org/2000/svg" width="20.708" height="20.671" viewBox="0 0 20.708 20.671"><defs><style>.a{fill:#b1b1b1;}</style></defs><g transform="translate(-854.264 -452.507)"><path class="a" d="M857.22,463.59c-.717,0-1.366-.01-2.014,0a.825.825,0,0,1-.87-.459c-.183-.39.011-.671.275-.933,2.626-2.619,8.769-8.754,9.219-9.2.665-.656.923-.662,1.579-.009q2.71,2.7,5.412,5.4,1.866,1.863,3.733,3.724c.283.282.548.57.352,1.012s-.565.469-.974.461c-.614-.012-1.228,0-1.916,0v.584q0,3.291,0,6.582a2.235,2.235,0,0,1-2.431,2.422c-.863,0-1.725.005-2.588,0-.633-.005-.9-.267-.9-.9-.006-1.316,0-2.633,0-3.949,0-.826-.227-1.048-1.072-1.049-.334,0-.669-.006-1,0-.6.016-.872.282-.876.876-.01,1.211,0,2.422,0,3.633,0,1.285-.1,1.39-1.367,1.389l-2.06,0a2.245,2.245,0,0,1-2.5-2.467q0-3.239,0-6.477Z" transform="translate(0 0)"/></g></svg>