<?xml version="1.0" encoding="UTF-8"?><svg xmlns="http://www.w3.org/2000/svg" xmlns:xlink="http://www.w3.org/1999/xlink" width="375pt" zoomAndPan="magnify" viewBox="0 0 375 374.999991" height="374.999991pt" preserveAspectRatio="xMidYMid meet" version="1.2"><defs><filter x="0%" y="0%" width="100%" xmlns:xlink="http://www.w3.org/1999/xlink" xlink:type="simple" filterUnits="objectBoundingBox" xlink:actuate="onLoad" id="alpha" height="100%" xlink:show="other" xml:id="alpha"><feColorMatrix values="0 0 0 0 1 0 0 0 0 1 0 0 0 0 1 0 0 0 1 0" type="matrix" in="SourceGraphic"/></filter><clipPath xml:id="clip2" id="clip2"><path d="M 0.238281 0.238281 L 206.640625 0.238281 L 206.640625 206.640625 L 0.238281 206.640625 Z M 0.238281 0.238281 "/></clipPath><clipPath xml:id="clip1" id="clip1"><rect x="0" width="207" y="0" height="207"/></clipPath><clipPath xml:id="clip3" id="clip3"><path d="M 121.773438 162 L 259 162 L 259 258 L 121.773438 258 Z M 121.773438 162 "/></clipPath></defs><g xml:id="surface1" id="surface1"><rect x="0" width="375" y="0" height="374.999991" style="fill:rgb(100%,100%,100%);fill-opacity:1;stroke:none;"/><rect x="0" width="375" y="0" height="374.999991" style="fill:rgb(100%,100%,100%);fill-opacity:1;stroke:none;"/><rect x="0" width="375" y="0" height="374.999991" style="fill:rgb(100%,100%,100%);fill-opacity:1;stroke:none;"/><g mask="url(#mask0)" transform="matrix(1,0,0,1,84,84)"><g xml:id="surface5" id="surface5" clip-path="url(#clip1)"><g clip-rule="nonzero" clip-path="url(#clip2)"><path style=" stroke:none;fill-rule:nonzero;fill:rgb(49.409485%,85.099792%,34.118652%);fill-opacity:1;" d="M 103.5 0.375 C 101.8125 0.375 100.125 0.417969 98.441406 0.5 C 96.753906 0.582031 95.070312 0.707031 93.390625 0.871094 C 91.710938 1.035156 90.039062 1.242188 88.367188 1.492188 C 86.699219 1.738281 85.035156 2.027344 83.382812 2.355469 C 81.726562 2.6875 80.078125 3.054688 78.441406 3.464844 C 76.804688 3.875 75.179688 4.324219 73.5625 4.816406 C 71.949219 5.304688 70.347656 5.835938 68.757812 6.402344 C 67.167969 6.972656 65.59375 7.578125 64.035156 8.226562 C 62.476562 8.871094 60.933594 9.554688 59.410156 10.277344 C 57.882812 10.996094 56.375 11.757812 54.886719 12.550781 C 53.398438 13.347656 51.929688 14.179688 50.484375 15.046875 C 49.035156 15.914062 47.609375 16.816406 46.207031 17.753906 C 44.804688 18.691406 43.425781 19.664062 42.070312 20.667969 C 40.714844 21.675781 39.382812 22.710938 38.078125 23.785156 C 36.773438 24.855469 35.496094 25.957031 34.246094 27.089844 C 32.996094 28.222656 31.773438 29.386719 30.578125 30.578125 C 29.386719 31.773438 28.222656 32.996094 27.089844 34.246094 C 25.957031 35.496094 24.855469 36.773438 23.785156 38.078125 C 22.710938 39.382812 21.675781 40.714844 20.667969 42.070312 C 19.664062 43.425781 18.691406 44.804688 17.753906 46.207031 C 16.816406 47.609375 15.914062 49.035156 15.046875 50.484375 C 14.179688 51.929688 13.347656 53.398438 12.550781 54.886719 C 11.757812 56.375 10.996094 57.882812 10.277344 59.410156 C 9.554688 60.933594 8.871094 62.476562 8.226562 64.035156 C 7.578125 65.59375 6.972656 67.167969 6.402344 68.757812 C 5.835938 70.347656 5.304688 71.949219 4.816406 73.5625 C 4.324219 75.179688 3.875 76.804688 3.464844 78.441406 C 3.054688 80.078125 2.6875 81.726562 2.355469 83.382812 C 2.027344 85.035156 1.738281 86.699219 1.492188 88.367188 C 1.242188 90.039062 1.035156 91.710938 0.871094 93.390625 C 0.707031 95.070312 0.582031 96.753906 0.5 98.441406 C 0.417969 100.125 0.375 101.8125 0.375 103.5 C 0.375 105.1875 0.417969 106.875 0.5 108.558594 C 0.582031 110.246094 0.707031 111.929688 0.871094 113.609375 C 1.035156 115.289062 1.242188 116.960938 1.492188 118.632812 C 1.738281 120.300781 2.027344 121.964844 2.355469 123.617188 C 2.6875 125.273438 3.054688 126.921875 3.464844 128.558594 C 3.875 130.195312 4.324219 131.820312 4.816406 133.4375 C 5.304688 135.050781 5.835938 136.652344 6.402344 138.242188 C 6.972656 139.832031 7.578125 141.40625 8.226562 142.964844 C 8.871094 144.523438 9.554688 146.066406 10.277344 147.589844 C 10.996094 149.117188 11.757812 150.625 12.550781 152.113281 C 13.347656 153.601562 14.179688 155.070312 15.046875 156.515625 C 15.914062 157.964844 16.816406 159.390625 17.753906 160.792969 C 18.691406 162.195312 19.664062 163.574219 20.667969 164.929688 C 21.675781 166.285156 22.710938 167.617188 23.785156 168.921875 C 24.855469 170.226562 25.957031 171.503906 27.089844 172.753906 C 28.222656 174.003906 29.386719 175.226562 30.578125 176.421875 C 31.773438 177.613281 32.996094 178.777344 34.246094 179.910156 C 35.496094 181.042969 36.773438 182.144531 38.078125 183.214844 C 39.382812 184.289062 40.714844 185.324219 42.070312 186.332031 C 43.425781 187.335938 44.804688 188.308594 46.207031 189.246094 C 47.609375 190.183594 49.035156 191.085938 50.484375 191.953125 C 51.929688 192.820312 53.398438 193.652344 54.886719 194.449219 C 56.375 195.242188 57.882812 196.003906 59.410156 196.722656 C 60.933594 197.445312 62.476562 198.128906 64.035156 198.773438 C 65.59375 199.421875 67.167969 200.027344 68.757812 200.597656 C 70.347656 201.164062 71.949219 201.695312 73.5625 202.183594 C 75.179688 202.675781 76.804688 203.125 78.441406 203.535156 C 80.078125 203.945312 81.726562 204.3125 83.382812 204.644531 C 85.035156 204.972656 86.699219 205.261719 88.367188 205.507812 C 90.039062 205.757812 91.710938 205.964844 93.390625 206.128906 C 95.070312 206.292969 96.753906 206.417969 98.441406 206.5 C 100.125 206.582031 101.8125 206.625 103.5 206.625 C 105.1875 206.625 106.875 206.582031 108.558594 206.5 C 110.246094 206.417969 111.929688 206.292969 113.609375 206.128906 C 115.289062 205.964844 116.960938 205.757812 118.632812 205.507812 C 120.300781 205.261719 121.964844 204.972656 123.617188 204.644531 C 125.273438 204.3125 126.921875 203.945312 128.558594 203.535156 C 130.195312 203.125 131.820312 202.675781 133.4375 202.183594 C 135.050781 201.695312 136.652344 201.164062 138.242188 200.597656 C 139.832031 200.027344 141.40625 199.421875 142.964844 198.773438 C 144.523438 198.128906 146.066406 197.445312 147.589844 196.722656 C 149.117188 196.003906 150.625 195.242188 152.113281 194.449219 C 153.601562 193.652344 155.070312 192.820312 156.515625 191.953125 C 157.964844 191.085938 159.390625 190.183594 160.792969 189.246094 C 162.195312 188.308594 163.574219 187.335938 164.929688 186.332031 C 166.285156 185.324219 167.617188 184.289062 168.921875 183.214844 C 170.226562 182.144531 171.503906 181.042969 172.753906 179.910156 C 174.003906 178.777344 175.226562 177.613281 176.421875 176.421875 C 177.613281 175.226562 178.777344 174.003906 179.910156 172.753906 C 181.042969 171.503906 182.144531 170.226562 183.214844 168.921875 C 184.289062 167.617188 185.324219 166.285156 186.332031 164.929688 C 187.335938 163.574219 188.308594 162.195312 189.246094 160.792969 C 190.183594 159.390625 191.085938 157.964844 191.953125 156.515625 C 192.820312 155.070312 193.652344 153.601562 194.449219 152.113281 C 195.242188 150.625 196.003906 149.117188 196.722656 147.589844 C 197.445312 146.066406 198.128906 144.523438 198.773438 142.964844 C 199.421875 141.40625 200.027344 139.832031 200.597656 138.242188 C 201.164062 136.652344 201.695312 135.050781 202.183594 133.4375 C 202.675781 131.820312 203.125 130.195312 203.535156 128.558594 C 203.945312 126.921875 204.3125 125.273438 204.644531 123.617188 C 204.972656 121.964844 205.261719 120.300781 205.507812 118.632812 C 205.757812 116.960938 205.964844 115.289062 206.128906 113.609375 C 206.292969 111.929688 206.417969 110.246094 206.5 108.558594 C 206.582031 106.875 206.625 105.1875 206.625 103.5 C 206.625 101.8125 206.582031 100.125 206.5 98.441406 C 206.417969 96.753906 206.292969 95.070312 206.128906 93.390625 C 205.964844 91.710938 205.757812 90.039062 205.507812 88.367188 C 205.261719 86.699219 204.972656 85.035156 204.644531 83.382812 C 204.3125 81.726562 203.945312 80.078125 203.535156 78.441406 C 203.125 76.804688 202.675781 75.179688 202.183594 73.5625 C 201.695312 71.949219 201.164062 70.347656 200.597656 68.757812 C 200.027344 67.167969 199.421875 65.59375 198.773438 64.035156 C 198.128906 62.476562 197.445312 60.933594 196.722656 59.410156 C 196.003906 57.882812 195.242188 56.375 194.449219 54.886719 C 193.652344 53.398438 192.820312 51.929688 191.953125 50.484375 C 191.085938 49.035156 190.183594 47.609375 189.246094 46.207031 C 188.308594 44.804688 187.335938 43.425781 186.332031 42.070312 C 185.324219 40.714844 184.289062 39.382812 183.214844 38.078125 C 182.144531 36.773438 181.042969 35.496094 179.910156 34.246094 C 178.777344 32.996094 177.613281 31.773438 176.421875 30.578125 C 175.226562 29.386719 174.003906 28.222656 172.753906 27.089844 C 171.503906 25.957031 170.226562 24.855469 168.921875 23.785156 C 167.617188 22.710938 166.285156 21.675781 164.929688 20.667969 C 163.574219 19.664062 162.195312 18.691406 160.792969 17.753906 C 159.390625 16.816406 157.964844 15.914062 156.515625 15.046875 C 155.070312 14.179688 153.601562 13.347656 152.113281 12.550781 C 150.625 11.757812 149.117188 10.996094 147.589844 10.277344 C 146.066406 9.554688 144.523438 8.871094 142.964844 8.226562 C 141.40625 7.578125 139.832031 6.972656 138.242188 6.402344 C 136.652344 5.835938 135.050781 5.304688 133.4375 4.816406 C 131.820312 4.324219 130.195312 3.875 128.558594 3.464844 C 126.921875 3.054688 125.273438 2.6875 123.617188 2.355469 C 121.964844 2.027344 120.300781 1.738281 118.632812 1.492188 C 116.960938 1.242188 115.289062 1.035156 113.609375 0.871094 C 111.929688 0.707031 110.246094 0.582031 108.558594 0.5 C 106.875 0.417969 105.1875 0.375 103.5 0.375 Z M 103.5 0.375 "/></g></g><mask xml:id="mask0" id="mask0"><g filter="url(#alpha)"><rect x="0" width="375" y="0" height="374.999991" style="fill:rgb(0%,0%,0%);fill-opacity:0.6784;stroke:none;"/></g></mask></g><path style=" stroke:none;fill-rule:nonzero;fill:rgb(100%,96.078491%,90.19928%);fill-opacity:1;" d="M 216.398438 158.78125 C 214.058594 157.304688 212.210938 154.992188 211.285156 152.375 C 210.269531 149.414062 210.394531 146.210938 209.960938 143.128906 C 209.6875 141.035156 209.007812 138.847656 207.746094 137.183594 C 209.871094 139.554688 210.363281 142.757812 210.484375 146.054688 C 210.484375 146.148438 210.640625 146.179688 210.671875 146.085938 C 211.253906 142.265625 209.777344 138.230469 206.605469 135.980469 C 206.300781 135.703125 205.960938 135.488281 205.589844 135.269531 C 205.804688 132.40625 205.714844 129.507812 204.882812 126.765625 C 204.050781 124.023438 202.421875 121.46875 200.019531 119.925781 C 198.265625 118.785156 196.078125 118.230469 194.015625 118.476562 C 195.523438 117.953125 197.15625 117.738281 198.695312 117.246094 C 198.757812 117.214844 198.757812 117.089844 198.664062 117.089844 C 196.507812 117.277344 193.460938 117.429688 191.796875 119.03125 C 189.980469 117.335938 182.902344 112.5 173.664062 116.535156 C 167.015625 119.464844 163.226562 127.566406 164.796875 134.65625 C 164.613281 134.777344 164.429688 134.933594 164.273438 135.085938 C 161.964844 135.703125 160.550781 138.597656 159.902344 140.695312 C 158.917969 143.867188 159.070312 147.195312 159.839844 150.402344 C 159.871094 150.492188 159.996094 150.460938 159.996094 150.371094 C 159.625 147.535156 159.410156 144.578125 160.089844 141.773438 C 160.640625 139.523438 161.84375 136.75 163.90625 135.425781 C 162.121094 137.210938 161.320312 139.707031 161.011719 142.296875 C 160.671875 145.316406 160.980469 148.367188 160.765625 151.386719 C 160.550781 154.34375 159.839844 157.242188 158.671875 159.953125 C 158.578125 160.136719 158.457031 160.324219 158.363281 160.476562 C 157.347656 162.140625 155.902344 163.15625 154.640625 164.574219 C 154.640625 164.574219 154.640625 164.605469 154.640625 164.605469 C 155.4375 164.390625 156.207031 163.960938 156.886719 163.375 C 156.238281 164.453125 155.53125 165.46875 154.730469 166.425781 C 157.5625 170.398438 162.429688 172.1875 167.199219 173.265625 C 172.957031 174.589844 178.929688 174.835938 184.808594 174.25 C 188.105469 173.910156 191.429688 173.265625 194.539062 172.125 C 197.339844 171.078125 199.957031 169.628906 202.695312 168.457031 C 205.191406 167.410156 207.808594 166.578125 210.148438 165.191406 C 211.53125 164.359375 213.257812 163.1875 214.582031 161.832031 C 213.320312 160.816406 212.179688 159.214844 211.285156 157.734375 C 212.457031 158.875 213.6875 159.890625 215.074219 160.722656 C 215.136719 160.753906 215.195312 160.660156 215.164062 160.601562 C 214.027344 159.152344 212.703125 157.890625 211.441406 156.5625 C 213.074219 158.105469 215.105469 159.398438 215.964844 159.953125 C 216.152344 159.550781 216.304688 159.183594 216.398438 158.78125 Z M 156.917969 166.578125 C 156.886719 166.609375 156.855469 166.546875 156.886719 166.546875 C 158.457031 165.039062 160.027344 163.527344 161.195312 161.679688 C 162.398438 159.828125 163.105469 157.796875 163.8125 155.699219 C 163.84375 155.578125 164.027344 155.640625 163.996094 155.761719 C 163.382812 159.921875 160.519531 164.390625 156.917969 166.578125 Z M 163.628906 164.113281 C 163.628906 164.144531 163.597656 164.113281 163.628906 164.113281 C 165.9375 159.984375 164.984375 155.515625 165.042969 151.015625 C 165.042969 150.957031 165.136719 150.925781 165.167969 151.015625 C 165.875 155.207031 166.429688 160.601562 163.628906 164.113281 Z M 167.96875 163.3125 C 167.9375 163.34375 167.90625 163.3125 167.9375 163.28125 C 169.199219 161.742188 169.417969 160.046875 169.417969 158.136719 C 169.417969 158.011719 169.570312 158.011719 169.601562 158.105469 C 170.125 159.953125 169.292969 161.988281 167.96875 163.3125 Z M 201.679688 161.339844 C 199.988281 160.199219 199.0625 157.488281 198.726562 155.546875 C 198.726562 155.484375 198.789062 155.453125 198.816406 155.515625 C 199.371094 157.613281 200.265625 159.644531 201.742188 161.277344 C 201.742188 161.308594 201.710938 161.339844 201.679688 161.339844 Z M 208.515625 162.695312 C 206.300781 161.894531 204.636719 159.769531 203.898438 157.613281 C 203.867188 157.550781 203.960938 157.519531 203.988281 157.582031 C 204.542969 158.535156 205.253906 159.460938 206.023438 160.261719 C 206.824219 161.09375 207.746094 161.679688 208.667969 162.324219 C 208.824219 162.449219 208.730469 162.789062 208.515625 162.695312 Z M 212.394531 162.109375 C 212.425781 162.109375 212.394531 162.140625 212.394531 162.109375 C 210.761719 161.03125 209.285156 159.675781 208.117188 158.105469 C 207.191406 156.871094 205.746094 154.714844 205.898438 153.113281 C 205.898438 153.019531 206.023438 152.957031 206.082031 153.019531 C 206.636719 153.667969 206.792969 154.46875 207.160156 155.207031 C 207.53125 156.007812 207.992188 156.808594 208.453125 157.550781 C 209.53125 159.304688 210.855469 160.816406 212.394531 162.109375 Z M 212.394531 162.109375 "/><g clip-rule="nonzero" clip-path="url(#clip3)"><path style=" stroke:none;fill-rule:nonzero;fill:rgb(52.549744%,21.179199%,10.5896%);fill-opacity:1;" d="M 205.804688 162.542969 C 210.300781 163.804688 215.597656 164.945312 220.585938 165.347656 C 232.777344 166.269531 241.179688 173.511719 244.011719 179.242188 C 249.339844 190.058594 254.851562 211.136719 258.976562 219.238281 C 257.652344 223.523438 252.910156 225.15625 252.910156 225.15625 C 252.234375 228.914062 252.386719 232.210938 251.523438 235.941406 C 251 238.160156 249.769531 240.132812 248.261719 241.792969 C 245.027344 245.339844 240.503906 247.527344 235.855469 248.726562 C 231.207031 249.929688 226.371094 250.175781 221.570312 250.390625 C 204.605469 251.101562 187.582031 251.039062 170.800781 253.566406 C 160.304688 255.136719 149.867188 257.757812 139.246094 257.601562 C 138.8125 257.601562 138.320312 257.570312 138.042969 257.261719 C 137.796875 257.015625 137.738281 256.648438 137.707031 256.277344 C 137.429688 253.195312 138.539062 250.175781 138.628906 247.09375 C 138.84375 240.410156 134.75 234.03125 130.164062 229.160156 C 124.222656 228.453125 121.820312 225.15625 121.820312 225.15625 C 121.820312 225.15625 124.066406 218.46875 126.5625 198.039062 C 128.714844 180.445312 136.105469 172.339844 145.402344 169.8125 C 151.160156 168.242188 160.488281 166.085938 167.324219 164.238281 C 168.03125 165.714844 169.941406 166.363281 171.511719 166.824219 C 173.082031 167.285156 174.742188 167.316406 176.375 167.316406 C 180.070312 167.347656 183.761719 167.378906 187.488281 167.410156 C 190.660156 167.441406 191.460938 163.28125 194.570312 162.695312 C 197.679688 162.140625 202.421875 162.726562 205.804688 162.542969 Z M 205.804688 162.542969 "/></g><path style=" stroke:none;fill-rule:nonzero;fill:rgb(89.7995%,62.348938%,38.038635%);fill-opacity:1;" d="M 190.566406 127.105469 C 191 126.984375 191.519531 127.136719 191.953125 127.382812 C 192.539062 127.691406 192.96875 128.277344 193.277344 128.894531 C 193.890625 130.0625 194.230469 131.359375 194.601562 132.652344 C 193.523438 130.433594 193 127.660156 190.566406 127.105469 Z M 168.308594 146.117188 C 169.664062 146.457031 170.648438 145.902344 171.324219 145.070312 C 171.324219 145.070312 172.433594 148.214844 175.082031 151.046875 C 175.144531 151.386719 175.574219 154.5625 175.726562 157.765625 C 175.851562 160.015625 174.433594 162.046875 172.28125 162.757812 C 170.894531 163.1875 169.199219 163.683594 167.355469 164.207031 C 167.691406 165.160156 168.183594 166.085938 168.769531 166.886719 C 170.21875 168.828125 172.28125 170.214844 174.496094 171.167969 C 176.714844 172.125 179.054688 172.710938 181.421875 173.296875 C 183.484375 173.789062 183.886719 176.992188 184.378906 179.058594 C 184.871094 181.121094 185.027344 183.25 185.363281 185.34375 C 185.640625 187.007812 186.011719 188.640625 186.535156 190.273438 C 186.257812 193.847656 186.070312 198.46875 187.089844 201.796875 L 187.394531 201.707031 C 186.410156 198.46875 186.566406 193.972656 186.84375 190.460938 C 187.335938 188.242188 188.226562 185.746094 188.6875 183.558594 C 189.273438 180.660156 189.890625 177.703125 191.214844 175.050781 C 194.015625 169.382812 199.617188 165.714844 205.222656 162.851562 C 205.40625 162.757812 205.621094 162.632812 205.835938 162.542969 C 201.742188 161.988281 198.910156 161.0625 197.0625 160.292969 C 195.339844 159.550781 194.230469 157.890625 194.230469 156.007812 C 194.261719 153.234375 194.601562 150.585938 194.816406 149.136719 C 194.785156 149.136719 194.753906 149.167969 194.691406 149.167969 C 196.078125 147.410156 196.847656 145.933594 196.847656 145.933594 C 196.847656 145.933594 199.988281 149.074219 202.789062 145.59375 C 205.589844 142.082031 204.605469 136.132812 203.128906 135.609375 C 199.402344 134.253906 197.863281 137.984375 198.109375 138.660156 C 196.632812 137.796875 195.738281 136.195312 195.15625 134.5625 C 193.277344 132.558594 193.308594 128.152344 190.476562 127.105469 C 190.351562 127.167969 190.199219 127.230469 190.105469 127.351562 C 189.398438 126.519531 188.136719 126.242188 187.089844 126.644531 C 186.964844 126.675781 186.84375 126.734375 186.75 126.796875 C 185.640625 128.398438 186.101562 130.558594 185.519531 132.621094 C 185.519531 132.652344 185.488281 132.621094 185.488281 132.621094 C 185.519531 131.417969 185.300781 129.324219 185.734375 127.691406 C 185.425781 128.089844 185.179688 128.585938 185.054688 129.078125 C 184.65625 130.648438 185.179688 132.746094 184.226562 134.070312 C 184.101562 134.132812 183.980469 134.160156 183.855469 134.191406 C 184.164062 133.269531 184.226562 132.3125 184.007812 131.234375 C 184.007812 131.171875 183.917969 131.203125 183.917969 131.234375 C 183.824219 132.128906 183.855469 133.082031 183.515625 133.914062 C 183.457031 134.039062 183.394531 134.160156 183.332031 134.285156 C 182.101562 134.46875 180.777344 134.039062 179.546875 133.792969 C 179.484375 133.792969 179.453125 133.761719 179.390625 133.761719 C 179.300781 132.898438 179.328125 132.003906 179.390625 131.140625 C 179.207031 131.726562 179.023438 132.3125 178.898438 132.929688 C 178.898438 132.960938 178.835938 132.960938 178.835938 132.929688 C 178.804688 132.3125 178.777344 131.417969 178.898438 130.527344 C 178.5 131.511719 178.253906 132.558594 178.191406 133.636719 C 176.988281 133.546875 175.789062 133.667969 174.621094 133.914062 C 174.621094 133.855469 174.621094 133.792969 174.621094 133.730469 C 174.621094 132.003906 174.898438 130.25 175.417969 128.585938 C 174.621094 130.09375 174.464844 132.066406 174.375 133.636719 C 174.375 133.699219 174.25 133.699219 174.25 133.636719 C 174.25 131.757812 174.527344 129.785156 175.203125 128.03125 C 175.328125 127.691406 175.511719 127.289062 175.757812 126.859375 C 174.867188 128.089844 174.3125 129.570312 174.035156 131.050781 C 173.851562 132.066406 173.757812 133.113281 173.726562 134.160156 C 173.078125 134.378906 172.464844 134.625 171.847656 134.933594 C 171.539062 135.519531 171.015625 136.011719 170.523438 136.351562 C 170.523438 136.351562 170.523438 136.351562 170.492188 136.351562 C 170.433594 136.503906 170.402344 136.65625 170.402344 136.78125 C 170.402344 136.78125 170.277344 136.6875 170.09375 136.566406 C 169.015625 136.996094 168.0625 136.441406 166.984375 135.980469 C 166.738281 136.074219 166.460938 136.226562 166.214844 136.441406 C 164.273438 138.074219 164.796875 145.253906 168.308594 146.117188 Z M 169.722656 136.378906 C 169.109375 136.042969 168.125 135.671875 167.136719 135.980469 C 168 136.257812 168.894531 136.597656 169.722656 136.378906 Z M 187.582031 242.84375 C 191.398438 241.210938 195.246094 244.90625 195.246094 244.90625 C 198.449219 245.339844 209.777344 242.472656 217.691406 241.917969 C 227.910156 241.210938 231.605469 243.644531 231.605469 243.644531 C 230.992188 242.347656 230.375 237.511719 230.035156 234.183594 C 247.0625 232.242188 252.878906 225.09375 252.878906 225.09375 C 255.25 238.160156 257.375 262.65625 246.722656 265.089844 C 236.101562 267.523438 193.738281 259.542969 190.320312 259.820312 C 186.902344 260.097656 176.652344 262.53125 173.019531 263.242188 C 169.417969 263.949219 158.671875 262.101562 155.59375 260.4375 C 155.410156 260.34375 155.222656 260.222656 155.070312 260.097656 C 151.128906 265.984375 144.941406 269.25 141.183594 268.972656 C 135.398438 268.570312 128.5625 259.699219 129.238281 243.828125 C 129.425781 239.207031 129.671875 235.292969 129.917969 232.210938 C 131.210938 231.226562 135.949219 231.011719 138.382812 228.390625 C 138.96875 226.972656 140.136719 223.523438 140.601562 221.644531 C 140.601562 221.644531 144.726562 207.097656 144.109375 205.710938 C 143.464844 204.324219 140.199219 203.492188 140.816406 198.378906 C 140.816406 198.378906 139.214844 196.035156 139.953125 191.691406 C 139.953125 191.691406 139.089844 189.257812 140.261719 187.222656 C 141.429688 185.21875 142.171875 184.574219 142.078125 182.753906 C 141.984375 180.9375 143.246094 179.890625 147.589844 178.410156 C 151.929688 176.933594 155.746094 176.40625 158.949219 176.714844 C 161.011719 176.933594 165.136719 176.992188 167.90625 177.640625 C 169.261719 176.625 170.523438 178.503906 170.710938 179.273438 C 170.957031 180.289062 170.863281 181.308594 170.308594 182.078125 C 169.941406 183.558594 168.675781 184.789062 166.953125 183.527344 C 166.644531 183.527344 166.308594 183.527344 165.9375 183.527344 C 161.6875 183.308594 158.519531 183.003906 158.519531 183.003906 C 158.519531 183.003906 159.902344 183.527344 161.382812 185.21875 C 162.859375 186.914062 163.8125 190.304688 163.382812 191.691406 C 162.953125 193.078125 162.210938 195.945312 160.734375 196.375 C 159.257812 196.804688 156.484375 196.160156 156.484375 196.160156 C 156.484375 196.160156 158.054688 197.914062 156.949219 199.023438 C 157.902344 198.46875 158.734375 198.007812 159.839844 197.609375 L 174.621094 196.375 C 174.621094 196.375 179.851562 196.40625 184.316406 198.902344 C 184.625 199.085938 184.933594 199.273438 185.242188 199.519531 C 185.210938 199.765625 185.179688 200.011719 185.148438 200.226562 C 186.964844 204.261719 187.765625 209.378906 186.6875 213.691406 C 185.855469 216.929688 184.226562 219.886719 182.960938 222.96875 C 181.699219 226.050781 180.777344 229.4375 181.484375 232.703125 C 181.886719 234.585938 182.808594 236.308594 183.730469 238.003906 C 184.65625 239.761719 186.625 241.085938 187.582031 242.84375 Z M 219.261719 211.105469 C 220.644531 216.433594 221.199219 221.921875 220.921875 227.40625 C 220.863281 227.4375 220.800781 227.464844 220.769531 227.527344 C 220.738281 227.652344 220.832031 227.742188 220.921875 227.835938 C 223.078125 229.808594 225.847656 230.980469 228.742188 231.164062 L 228.773438 230.855469 C 225.972656 230.703125 223.292969 229.5625 221.199219 227.683594 L 221.230469 227.558594 C 221.539062 221.980469 220.984375 216.433594 219.566406 211.042969 C 219.230469 209.71875 218.828125 208.363281 218.429688 207.035156 C 216.859375 201.796875 215.257812 196.375 216.765625 191.199219 L 216.457031 191.105469 C 214.949219 196.375 216.550781 201.828125 218.121094 207.128906 C 218.523438 208.421875 218.921875 209.777344 219.261719 211.105469 Z M 231.359375 169.136719 L 231.296875 168.828125 C 227.296875 169.628906 223.695312 172.371094 221.878906 176.007812 L 222.15625 176.128906 C 223.941406 172.585938 227.449219 169.90625 231.359375 169.136719 Z M 146.820312 178.195312 L 147.125 178.132812 C 146.910156 176.808594 146.171875 175.484375 145.03125 174.3125 C 144.015625 173.265625 142.816406 172.402344 141.648438 171.601562 L 141.460938 171.847656 C 142.632812 172.648438 143.832031 173.480469 144.816406 174.527344 C 145.894531 175.667969 146.601562 176.933594 146.820312 178.195312 Z M 199.988281 229.097656 C 197.863281 228.574219 196.109375 227.496094 195.125 226.019531 L 194.878906 226.203125 C 195.925781 227.742188 197.742188 228.882812 199.925781 229.40625 C 201.25 229.714844 202.605469 229.808594 203.929688 229.808594 C 204.605469 229.808594 205.28125 229.777344 205.929688 229.746094 L 205.929688 229.4375 C 204.019531 229.53125 201.957031 229.59375 199.988281 229.097656 Z M 190.320312 197.269531 C 190.78125 196.589844 190.382812 195.359375 189.457031 195.328125 C 188.535156 195.296875 188.164062 196.777344 188.597656 197.421875 C 188.71875 197.609375 188.90625 197.699219 189.121094 197.761719 C 189.582031 197.855469 190.074219 197.636719 190.320312 197.269531 Z M 190.503906 207.34375 C 191.984375 207.992188 192.320312 205.125 190.90625 204.789062 C 189.367188 204.386719 189.367188 206.851562 190.503906 207.34375 Z M 170.125 135.179688 C 170.554688 132.804688 170.648438 130.433594 171.601562 128.183594 C 172.496094 126.027344 173.972656 124.238281 175.789062 122.792969 C 175.820312 122.761719 175.789062 122.730469 175.757812 122.761719 C 171.757812 125.78125 169.96875 130.25 169.910156 135.179688 C 169.878906 135.269531 170.09375 135.332031 170.125 135.179688 Z M 181.730469 133.144531 C 182.933594 131.050781 182.222656 127.539062 184.441406 126.152344 C 184.441406 126.152344 184.441406 126.121094 184.441406 126.121094 C 183.300781 126.335938 182.839844 127.167969 182.5625 128.214844 C 182.132812 129.816406 182.191406 131.480469 181.609375 133.054688 C 181.546875 133.144531 181.699219 133.207031 181.730469 133.144531 Z M 190.8125 125.011719 C 190.9375 123.191406 191.089844 121.527344 191.613281 119.773438 C 191.613281 119.773438 191.582031 119.742188 191.582031 119.773438 C 190.84375 121.34375 190.382812 123.285156 190.660156 125.042969 C 190.660156 125.101562 190.78125 125.070312 190.8125 125.011719 Z M 190.8125 125.011719 "/><path style=" stroke:none;fill-rule:nonzero;fill:rgb(53.329468%,72.938538%,53.729248%);fill-opacity:1;" d="M 150.082031 242.226562 C 146.726562 235.601562 145.402344 227.4375 145.957031 221.058594 C 146.757812 211.84375 149.28125 206.113281 151.589844 203.09375 C 151.589844 203.09375 151.589844 203.09375 151.589844 203.125 C 152.546875 203.617188 152.667969 204.910156 153.285156 205.804688 C 153.992188 206.851562 155.347656 207.222656 156.609375 207.375 C 157.871094 207.53125 159.164062 207.589844 160.273438 208.207031 C 160.828125 208.515625 161.320312 208.976562 161.90625 209.195312 C 162.367188 209.378906 162.890625 209.378906 163.414062 209.378906 C 164.613281 209.347656 165.8125 209.195312 166.984375 208.886719 C 168.371094 208.546875 169.847656 208.023438 171.203125 208.484375 C 173.019531 209.132812 173.789062 211.257812 174.34375 213.105469 C 174.648438 214.1875 174.957031 215.296875 175.296875 216.375 C 175.113281 214 174.742188 211.628906 174.15625 209.316406 C 175.019531 210.304688 175.757812 211.441406 176.28125 212.675781 C 176.097656 211.320312 175.882812 209.933594 175.695312 208.578125 C 177.296875 207.589844 179.636719 208.578125 181.144531 207.46875 C 181.667969 207.066406 182.039062 206.480469 182.4375 205.957031 C 183.148438 205.066406 184.070312 204.355469 184.75 203.402344 C 185.394531 202.476562 185.734375 201.152344 185.117188 200.195312 C 185.179688 199.980469 185.210938 199.734375 185.210938 199.488281 C 185.054688 199.363281 184.902344 199.242188 184.777344 199.148438 C 189.058594 202.105469 192.722656 212.523438 192.722656 226.511719 C 192.722656 232.488281 190.84375 238.191406 187.582031 242.8125 C 183.761719 244.445312 178.898438 246.015625 176.066406 245.585938 C 173.234375 245.152344 166.492188 242.964844 165.015625 246.109375 C 163.535156 249.28125 167.046875 251.378906 169.261719 251.902344 C 169.261719 251.902344 167.105469 252.519531 166.183594 252.425781 C 165.351562 252.332031 161.257812 251.625 158.917969 251.964844 C 156.703125 250.761719 154.792969 249.066406 153.160156 247.035156 C 152.699219 245.585938 151.714844 243.210938 150.082031 242.226562 Z M 150.082031 242.226562 "/><path style=" stroke:none;fill-rule:nonzero;fill:rgb(100%,96.078491%,90.19928%);fill-opacity:1;" d="M 170.339844 181.308594 C 169.878906 182.664062 166.921875 181.644531 166.921875 181.644531 C 165.785156 180.289062 166.921875 178.75 166.921875 178.75 C 169.695312 179.089844 170.832031 179.953125 170.339844 181.308594 Z M 147.988281 242.625 C 147.988281 242.625 147.835938 242.441406 147.3125 242.535156 C 147.402344 245.769531 148.019531 247.003906 148.019531 247.003906 C 148.019531 247.003906 148.359375 246.910156 148.417969 246.601562 C 148.574219 245.832031 148.480469 245.0625 148.328125 244.289062 C 148.203125 243.734375 148.113281 243.179688 147.988281 242.625 Z M 164.707031 247.0625 C 164.707031 247.0625 163.996094 249.746094 169.140625 250.023438 C 169.140625 250.023438 169.140625 247.464844 169.722656 246.230469 C 169.722656 246.261719 165.597656 244.199219 164.707031 247.0625 Z M 177.421875 138.570312 C 176.21875 138.261719 175.019531 138.507812 174.1875 138.753906 C 173.480469 138.96875 173.050781 139.648438 173.171875 140.386719 C 173.355469 141.527344 174.15625 143.003906 176.804688 143.160156 C 178.375 143.253906 179.824219 142.449219 181.332031 142.667969 C 181.363281 142.699219 180.683594 139.402344 177.421875 138.570312 Z M 194.261719 138.785156 C 193.460938 138.539062 192.230469 138.292969 191.027344 138.597656 C 187.765625 139.402344 187.089844 142.699219 187.089844 142.699219 C 188.597656 142.511719 190.042969 143.28125 191.613281 143.191406 C 194.261719 143.035156 195.09375 141.527344 195.246094 140.417969 C 195.402344 139.679688 194.96875 139 194.261719 138.785156 Z M 166.953125 183.527344 C 165.84375 190.765625 164.644531 199.949219 164.644531 199.949219 L 168.03125 200.105469 C 168.03125 200.105469 169.476562 188.855469 170.308594 182.109375 C 169.722656 182.878906 168.648438 183.433594 166.953125 183.527344 Z M 178.28125 154.683594 C 178.28125 154.683594 177.667969 155.609375 178.097656 156.964844 C 175.972656 160.753906 169.261719 172.679688 168.460938 175.144531 C 168.308594 175.574219 168.125 176.46875 167.90625 177.640625 C 169.292969 177.949219 170.339844 178.410156 170.648438 179.089844 C 170.742188 178.195312 170.832031 177.515625 170.832031 177.238281 C 170.925781 175.574219 177.976562 163.1875 180.46875 158.84375 C 181.945312 158.382812 182.285156 156.75 182.285156 156.75 C 182.070312 154.683594 178.28125 154.683594 178.28125 154.683594 Z M 178.28125 154.683594 "/><path style=" stroke:none;fill-rule:nonzero;fill:rgb(82.749939%,36.079407%,14.898682%);fill-opacity:1;" d="M 235.699219 246.109375 L 235.640625 246.417969 C 234.039062 246.078125 232.558594 245.121094 231.574219 243.796875 L 231.820312 243.613281 C 232.746094 244.84375 234.160156 245.769531 235.699219 246.109375 Z M 252.910156 225.125 C 252.910156 225.125 240.132812 232.398438 229.726562 230.980469 C 229.726562 230.980469 229.851562 232.335938 230.066406 234.183594 C 234.714844 234.738281 239.519531 233.90625 243.859375 232.089844 C 247.214844 230.671875 250.324219 228.699219 253.125 226.355469 C 253.066406 225.957031 252.972656 225.523438 252.910156 225.125 Z M 200.910156 163.988281 C 198.417969 163.960938 195.769531 164.296875 193.492188 165.285156 C 192.722656 165.621094 192.015625 166.023438 191.367188 166.546875 C 190.382812 167.316406 189.734375 168.644531 188.597656 169.167969 C 188.535156 169.199219 188.597656 169.257812 188.628906 169.257812 C 189.398438 169.105469 189.890625 168.703125 190.414062 168.179688 C 191.304688 167.285156 192.199219 166.578125 193.308594 166.023438 C 195.707031 164.820312 198.355469 164.730469 200.972656 164.238281 C 201.097656 164.238281 201.035156 163.988281 200.910156 163.988281 Z M 196.722656 146.054688 C 197.523438 144.546875 197.894531 142.851562 198.140625 141.1875 C 198.140625 141.15625 198.109375 141.15625 198.109375 141.1875 C 197.769531 142.851562 197.1875 144.421875 196.632812 146.027344 C 196.632812 146.054688 196.722656 146.085938 196.722656 146.054688 Z M 198.847656 139.894531 C 199.402344 138.597656 200.449219 137.859375 201.804688 137.582031 C 201.867188 137.582031 201.867188 137.460938 201.804688 137.460938 C 200.417969 137.460938 199.15625 138.539062 198.816406 139.863281 C 198.789062 139.894531 198.847656 139.925781 198.847656 139.894531 Z M 202.082031 143.835938 C 200.878906 144.886719 199.371094 144.300781 197.925781 144.546875 C 197.894531 144.546875 197.925781 144.578125 197.925781 144.578125 C 199.308594 144.699219 201.3125 145.441406 202.296875 144.023438 C 202.421875 143.867188 202.203125 143.714844 202.082031 143.835938 Z M 199.925781 143.960938 C 200.203125 143.46875 200.480469 142.976562 200.417969 142.359375 C 200.328125 141.527344 199.585938 140.847656 199.988281 139.957031 C 199.988281 139.925781 199.988281 139.925781 199.957031 139.957031 C 199.742188 140.355469 199.710938 140.726562 199.832031 141.15625 C 199.925781 141.464844 200.082031 141.710938 200.171875 142.019531 C 200.386719 142.757812 200.203125 143.3125 199.925781 143.960938 C 199.894531 143.960938 199.925781 143.992188 199.925781 143.960938 Z M 171.171875 143.992188 C 170.710938 142.234375 170.21875 140.632812 170.277344 138.753906 C 170.277344 138.722656 170.246094 138.722656 170.246094 138.753906 C 170 140.480469 170.125 142.511719 171.078125 144.023438 C 171.140625 144.054688 171.203125 144.023438 171.171875 143.992188 Z M 168.707031 138.570312 C 168.925781 138.96875 169.078125 139.429688 169.292969 139.832031 C 169.355469 139.925781 169.476562 139.863281 169.445312 139.769531 C 169.261719 139.277344 169.015625 138.722656 168.707031 138.292969 C 168.429688 137.890625 168 137.644531 167.601562 137.398438 C 167.539062 137.367188 167.507812 137.429688 167.570312 137.460938 C 168 137.765625 168.429688 138.074219 168.707031 138.570312 Z M 167.753906 143.46875 C 168.214844 143.777344 168.894531 143.867188 169.417969 143.898438 C 169.476562 143.898438 169.476562 143.835938 169.417969 143.808594 C 168.894531 143.652344 168.308594 143.558594 167.878906 143.253906 C 167.355469 142.914062 166.921875 142.359375 166.585938 141.835938 C 166.585938 141.835938 166.554688 141.835938 166.554688 141.835938 C 166.859375 142.421875 167.261719 143.097656 167.753906 143.46875 Z M 168 141.0625 C 168.152344 141.679688 168.738281 141.925781 169.199219 142.296875 C 169.261719 142.328125 169.355469 142.265625 169.292969 142.203125 C 169.078125 142.019531 168.800781 141.867188 168.617188 141.648438 C 168.183594 141.1875 168.183594 140.695312 168.214844 140.078125 C 168.246094 139.523438 168.277344 139.0625 167.96875 138.597656 C 167.9375 138.570312 167.90625 138.597656 167.90625 138.628906 C 168.339844 139.460938 167.785156 140.261719 168 141.0625 Z M 151.28125 183.742188 C 153.839844 183.09375 157.472656 183.0625 158.519531 183.15625 L 158.546875 182.847656 C 157.5 182.753906 153.808594 182.785156 151.222656 183.464844 C 148.574219 184.140625 146.941406 183.679688 146.355469 183.464844 L 146.234375 183.742188 C 146.695312 183.925781 147.433594 184.113281 148.542969 184.113281 C 149.28125 184.113281 150.207031 184.019531 151.28125 183.742188 Z M 156.457031 190.058594 C 157.75 190.335938 158.855469 191.816406 159.132812 192.554688 C 159.316406 193.078125 159.257812 194.371094 158.765625 195.296875 C 158.488281 195.820312 158.117188 196.097656 157.65625 196.222656 L 157.71875 196.53125 C 158.273438 196.40625 158.734375 196.035156 159.042969 195.449219 C 159.441406 194.742188 159.566406 193.816406 159.535156 193.140625 C 159.902344 193.355469 160.335938 193.449219 160.765625 193.449219 C 161.195312 193.449219 161.628906 193.355469 162.027344 193.140625 L 161.875 192.863281 C 161.164062 193.261719 160.242188 193.230469 159.535156 192.800781 L 159.503906 192.832031 C 159.472656 192.675781 159.472656 192.554688 159.410156 192.460938 C 159.070312 191.539062 157.808594 190.058594 156.515625 189.75 C 155.191406 189.441406 146.972656 190.582031 144.757812 190.921875 L 144.816406 191.230469 C 147.648438 190.796875 155.253906 189.8125 156.457031 190.058594 Z M 156.515625 196.3125 L 156.457031 196.003906 C 156.054688 196.066406 155.253906 196.003906 154.332031 195.945312 C 153.53125 195.882812 152.605469 195.789062 151.746094 195.789062 C 150.511719 195.789062 148.234375 196.714844 146.757812 197.332031 C 146.109375 197.609375 145.433594 197.855469 145.308594 197.855469 L 145.308594 198.164062 C 145.496094 198.164062 145.957031 197.976562 146.847656 197.609375 C 148.328125 196.992188 150.542969 196.097656 151.746094 196.097656 C 152.574219 196.097656 153.5 196.160156 154.300781 196.253906 C 155.253906 196.3125 156.085938 196.375 156.515625 196.3125 Z M 153.40625 196.746094 L 153.222656 196.992188 C 154.023438 197.609375 154.546875 198.65625 154.546875 199.671875 L 154.855469 199.671875 C 154.855469 198.5625 154.300781 197.421875 153.40625 196.746094 Z M 156.671875 191.289062 L 156.363281 191.382812 C 156.640625 192.246094 156.703125 193.140625 156.515625 194.035156 L 156.824219 194.09375 C 157.039062 193.171875 156.976562 192.183594 156.671875 191.289062 Z M 159.070312 186.882812 C 159.472656 186.175781 159.503906 185.28125 159.195312 184.542969 L 158.917969 184.664062 C 159.195312 185.3125 159.164062 186.113281 158.824219 186.730469 Z M 160.089844 185.867188 L 159.78125 185.835938 L 159.71875 186.730469 L 160.027344 186.761719 Z M 156.300781 179.367188 C 156.148438 178.6875 156.179688 177.980469 156.425781 177.332031 L 156.148438 177.238281 C 155.902344 177.949219 155.839844 178.75 156.023438 179.457031 Z M 165.261719 180.042969 C 165.167969 179.457031 165.136719 178.871094 165.507812 178.535156 L 165.289062 178.316406 C 164.828125 178.75 164.859375 179.457031 164.953125 180.105469 Z M 157.59375 177.792969 L 157.316406 177.703125 C 157.226562 177.980469 157.164062 178.289062 157.195312 178.59375 L 157.5 178.59375 C 157.472656 178.316406 157.5 178.042969 157.59375 177.792969 Z M 149.710938 203.769531 L 149.464844 203.585938 C 148.789062 204.480469 147.558594 204.878906 146.480469 204.539062 L 146.386719 204.847656 C 146.664062 204.941406 146.941406 204.972656 147.21875 204.972656 C 148.203125 204.941406 149.160156 204.511719 149.710938 203.769531 Z M 144.292969 205.773438 L 144.015625 205.925781 C 144.480469 206.699219 145.339844 207.160156 146.234375 207.160156 C 146.386719 207.160156 146.542969 207.160156 146.695312 207.128906 L 146.632812 206.820312 C 145.773438 207.007812 144.785156 206.542969 144.292969 205.773438 Z M 176.683594 252.886719 C 176.191406 252.949219 175.695312 252.980469 175.203125 252.980469 C 173.140625 253.011719 171.109375 252.363281 169.171875 251.746094 L 169.078125 252.054688 C 171.046875 252.703125 173.078125 253.351562 175.203125 253.320312 C 175.695312 253.320312 176.21875 253.257812 176.714844 253.226562 C 177.511719 253.132812 178.3125 253.074219 179.113281 253.164062 C 180.253906 253.289062 181.332031 253.78125 182.191406 254.550781 L 182.410156 254.335938 C 181.515625 253.535156 180.347656 253.011719 179.175781 252.886719 C 178.34375 252.734375 177.511719 252.828125 176.683594 252.886719 Z M 176.589844 254.367188 L 176.28125 254.429688 C 176.375 254.984375 176.742188 255.507812 177.265625 255.753906 L 177.421875 255.476562 C 176.988281 255.261719 176.683594 254.828125 176.589844 254.367188 Z M 173.820312 250.761719 L 174.097656 250.636719 C 173.851562 250.054688 173.851562 249.375 174.097656 248.789062 L 173.820312 248.667969 C 173.542969 249.34375 173.542969 250.082031 173.820312 250.761719 Z M 174.804688 249.40625 L 174.496094 249.375 L 174.433594 250.023438 L 174.742188 250.054688 Z M 160.613281 258.1875 C 159.101562 258.15625 157.6875 258.125 156.457031 257.449219 C 155.683594 257.046875 155.070312 256.402344 154.453125 255.785156 L 151.746094 253.042969 C 151.746094 252.980469 151.714844 252.949219 151.714844 252.949219 L 151.714844 252.886719 L 151.683594 252.855469 C 148.511719 250.300781 148.359375 247.464844 148.359375 247.433594 L 148.328125 247.371094 C 147.433594 245.617188 147.433594 242.625 147.433594 242.011719 C 148.328125 241.734375 149.1875 241.824219 149.960938 242.320312 L 150.113281 242.042969 C 149.21875 241.515625 148.265625 241.394531 147.21875 241.734375 L 147.125 241.765625 L 147.125 241.855469 C 147.125 242.011719 147.035156 245.398438 148.050781 247.433594 C 148.082031 247.773438 148.359375 250.484375 151.4375 252.980469 L 151.375 253.042969 L 151.46875 253.132812 C 151.652344 254.089844 152.574219 258.3125 154.976562 260.128906 L 155.160156 259.882812 C 154.117188 259.082031 153.34375 257.757812 152.792969 256.460938 C 153.59375 257.632812 154.640625 258.648438 155.839844 259.390625 L 155.992188 259.144531 C 154.332031 258.125 152.976562 256.585938 152.175781 254.796875 C 152.023438 254.304688 151.898438 253.84375 151.835938 253.535156 L 154.207031 255.9375 C 154.824219 256.554688 155.46875 257.203125 156.269531 257.632812 C 157.59375 258.34375 159.101562 258.371094 160.582031 258.402344 C 161.226562 258.402344 161.90625 258.433594 162.550781 258.496094 C 164.890625 258.773438 167.015625 259.820312 169.078125 260.867188 L 169.199219 260.589844 C 167.199219 259.605469 164.953125 258.464844 162.550781 258.1875 C 161.964844 258.21875 161.289062 258.1875 160.613281 258.1875 Z M 152.574219 249.46875 L 152.851562 249.558594 C 153.007812 249.160156 153.285156 248.789062 153.621094 248.542969 L 153.4375 248.296875 C 153.070312 248.605469 152.761719 249.003906 152.574219 249.46875 Z M 157.902344 253.597656 L 158.210938 253.566406 C 158.179688 253.074219 158.300781 252.550781 158.578125 252.117188 L 158.332031 251.964844 C 158.023438 252.457031 157.871094 253.011719 157.902344 253.597656 Z M 173.386719 260.929688 L 173.449219 261.238281 C 174.464844 261.023438 175.359375 260.253906 175.695312 259.296875 L 175.417969 259.203125 C 175.113281 260.066406 174.3125 260.746094 173.386719 260.929688 Z M 194.476562 251.285156 C 193.984375 253.226562 193 254.828125 191.707031 255.753906 L 191.890625 256 C 193.644531 254.738281 194.414062 252.765625 194.785156 251.347656 C 195.246094 249.558594 195.277344 247.679688 195.308594 245.863281 L 195 245.863281 C 194.9375 247.648438 194.90625 249.527344 194.476562 251.285156 Z M 156.609375 199.117188 C 154.484375 200.9375 152.824219 201.492188 151.589844 201.921875 C 151.34375 202.015625 151.128906 202.074219 150.945312 202.167969 C 150.699219 202.261719 150.484375 202.414062 150.265625 202.570312 C 150.050781 202.722656 149.867188 202.847656 149.652344 202.9375 C 149.160156 203.125 148.667969 203.125 148.296875 202.9375 L 148.171875 203.214844 C 148.417969 203.339844 148.667969 203.371094 148.941406 203.371094 C 149.21875 203.371094 149.496094 203.308594 149.773438 203.214844 C 150.019531 203.125 150.265625 202.96875 150.484375 202.816406 C 150.699219 202.660156 150.882812 202.539062 151.097656 202.445312 C 151.3125 202.351562 151.527344 202.292969 151.746094 202.199219 C 152.976562 201.769531 154.699219 201.183594 156.855469 199.332031 Z M 183.761719 145.195312 C 184.195312 145.316406 185.054688 145.378906 185.054688 144.945312 C 185.210938 141.28125 184.316406 139.371094 184.316406 139.371094 C 184.347656 140.261719 183.761719 143.652344 182.746094 144.332031 C 182.933594 144.761719 183.332031 145.101562 183.761719 145.195312 Z M 184.964844 149.816406 C 186.347656 149.660156 187.335938 148.550781 187.582031 147.226562 C 187.582031 147.164062 187.519531 147.132812 187.488281 147.195312 C 187.210938 148.519531 186.164062 149.476562 184.808594 149.507812 C 183.671875 149.539062 182.164062 149.136719 181.578125 148.089844 C 181.546875 148.058594 181.484375 148.089844 181.484375 148.121094 C 181.976562 149.539062 183.609375 149.96875 184.964844 149.816406 Z M 130.195312 229.128906 C 130.101562 230.117188 130.007812 231.132812 129.917969 232.242188 C 131.488281 232.398438 134.410156 232.582031 136.566406 231.902344 C 135.675781 233.628906 134.6875 235.324219 133.671875 236.804688 C 133.550781 236.988281 133.394531 237.203125 133.273438 237.386719 C 132.316406 238.804688 131.332031 240.253906 130.808594 241.886719 L 131.117188 241.980469 C 131.609375 240.378906 132.59375 238.929688 133.519531 237.542969 C 133.640625 237.328125 133.796875 237.140625 133.917969 236.925781 C 134.964844 235.386719 135.980469 233.628906 136.90625 231.84375 L 136.78125 231.78125 C 136.78125 231.78125 137.582031 230.085938 138.289062 228.421875 C 135.859375 229.316406 132.042969 229.46875 130.195312 229.128906 Z M 194.445312 151.910156 C 194.476562 151.265625 194.660156 149.90625 194.785156 149.167969 C 194.753906 149.167969 194.722656 149.199219 194.660156 149.199219 C 192.382812 152.097656 188.472656 155.855469 183.703125 155.421875 C 179.851562 155.085938 177.019531 153.175781 175.082031 151.078125 C 175.113281 151.292969 175.296875 152.527344 175.390625 153.699219 C 176.003906 154.5625 176.898438 155.824219 178.066406 156.964844 C 178.46875 156.226562 178.714844 155.824219 178.714844 155.824219 C 178.714844 155.824219 181.085938 155.300781 181.332031 157.394531 C 181.332031 157.394531 180.992188 157.949219 180.46875 158.90625 C 181.824219 159.707031 183.394531 160.261719 185.242188 160.261719 C 189.242188 160.199219 193.554688 154.839844 194.445312 151.910156 Z M 172.863281 164.605469 C 173.140625 164.699219 173.417969 164.761719 173.664062 164.851562 C 173.695312 164.820312 173.695312 164.792969 173.726562 164.761719 C 173.449219 164.699219 173.140625 164.636719 172.863281 164.542969 C 172.863281 164.542969 172.832031 164.574219 172.863281 164.605469 Z M 179.453125 165.621094 C 178.589844 165.53125 177.699219 165.4375 176.835938 165.285156 C 176.773438 165.375 176.742188 165.46875 176.683594 165.5625 C 176.988281 165.621094 177.328125 165.683594 177.636719 165.746094 C 178.558594 165.898438 179.546875 165.871094 180.46875 166.085938 C 182.007812 166.484375 182.808594 167.503906 183.546875 168.828125 C 183.609375 168.921875 183.730469 168.859375 183.703125 168.765625 C 183.117188 166.730469 181.453125 165.871094 179.453125 165.621094 Z M 179.453125 165.621094 "/><path style=" stroke:none;fill-rule:nonzero;fill:rgb(52.549744%,21.179199%,10.5896%);fill-opacity:1;" d="M 193.335938 136.074219 C 194.324219 136.320312 195.429688 137.429688 195.429688 137.429688 C 195.429688 137.429688 195.277344 137.273438 193.738281 136.90625 C 192.539062 136.597656 188.566406 137.027344 188.136719 136.964844 C 187.703125 136.875 187.425781 136.074219 187.425781 136.074219 C 187.425781 136.074219 192.351562 135.824219 193.335938 136.074219 Z M 170.832031 176.808594 C 170.523438 176.777344 170.246094 176.65625 170.0625 176.4375 L 169.847656 176.65625 C 170.09375 176.933594 170.464844 177.117188 170.832031 177.148438 Z M 170.402344 177.609375 C 170.339844 177.609375 170.277344 177.609375 170.246094 177.578125 C 169.96875 177.515625 169.695312 177.394531 169.445312 177.269531 L 169.601562 176.992188 C 169.816406 177.117188 170.0625 177.210938 170.339844 177.269531 C 170.371094 177.269531 170.433594 177.300781 170.464844 177.269531 L 170.585938 177.546875 C 170.492188 177.609375 170.433594 177.609375 170.402344 177.609375 Z M 162.429688 201.367188 L 162.703125 201.519531 C 161.996094 202.691406 161.410156 203.925781 160.980469 205.21875 L 160.703125 205.125 C 161.105469 203.800781 161.6875 202.539062 162.429688 201.367188 Z M 176.066406 199.765625 C 177.882812 199.917969 179.699219 200.472656 181.332031 201.335938 L 181.484375 201.058594 C 179.824219 200.164062 177.976562 199.609375 176.097656 199.457031 Z M 163.78125 219.207031 C 163.011719 225.277344 162.859375 231.472656 163.351562 237.605469 L 163.660156 237.574219 C 163.167969 231.472656 163.320312 225.308594 164.089844 219.269531 Z M 184.039062 213.046875 C 185.363281 216.929688 185.980469 221.148438 185.796875 225.277344 L 186.101562 225.277344 C 186.289062 221.089844 185.703125 216.929688 184.347656 212.953125 Z M 151.714844 214.710938 C 151.4375 211.78125 152.144531 208.792969 153.652344 206.265625 L 153.375 206.113281 C 151.835938 208.671875 151.128906 211.75 151.375 214.742188 Z M 151.003906 233.597656 C 151.28125 238.4375 153.34375 243.242188 156.671875 246.785156 L 156.886719 246.570312 C 153.621094 243.089844 151.589844 238.34375 151.3125 233.566406 Z M 174.621094 198.222656 C 174.710938 198.808594 174.433594 199.425781 173.972656 199.734375 C 173.417969 200.132812 172.648438 200.132812 171.847656 200.105469 L 163.226562 199.703125 C 162.921875 199.703125 162.582031 199.671875 162.304688 199.550781 C 162.058594 199.425781 161.84375 199.179688 161.875 198.902344 L 161.566406 198.871094 C 161.503906 199.300781 161.84375 199.671875 162.152344 199.828125 C 162.488281 199.980469 162.859375 200.011719 163.199219 200.011719 L 166.460938 200.164062 C 166.152344 201.058594 166 201.984375 166.03125 202.90625 L 166.335938 202.90625 C 166.308594 201.984375 166.460938 201.089844 166.769531 200.226562 L 166.644531 200.164062 L 171.816406 200.410156 C 172.003906 200.410156 172.1875 200.441406 172.402344 200.441406 C 172.988281 200.441406 173.632812 200.382812 174.125 200.011719 C 174.679688 199.609375 175.019531 198.871094 174.898438 198.191406 Z M 179.207031 156.070312 L 178.992188 156.285156 C 179.328125 156.625 179.605469 156.839844 179.914062 156.996094 C 180.285156 157.179688 180.652344 157.304688 180.992188 157.304688 C 181.023438 157.304688 181.054688 157.304688 181.054688 157.304688 L 181.054688 156.996094 C 180.714844 156.996094 180.375 156.902344 180.039062 156.71875 C 179.792969 156.5625 179.515625 156.378906 179.207031 156.070312 Z M 165.445312 135.855469 C 165.660156 136.101562 166 136.535156 166.335938 136.535156 C 166.429688 136.535156 166.460938 136.472656 166.460938 136.378906 C 166.429688 136.195312 166.308594 136.132812 166.183594 136.011719 C 166.03125 135.855469 165.875 135.703125 165.722656 135.578125 C 165.414062 135.269531 165.136719 134.992188 164.859375 134.65625 C 164.828125 134.625 164.796875 134.65625 164.828125 134.6875 C 164.953125 135.085938 165.167969 135.519531 165.445312 135.855469 Z M 179.605469 136.933594 C 180.039062 136.84375 180.316406 136.042969 180.316406 136.042969 C 180.316406 136.042969 175.417969 135.796875 174.402344 136.042969 C 173.417969 136.289062 172.308594 137.398438 172.308594 137.398438 C 172.308594 137.398438 172.464844 137.242188 174.003906 136.875 C 175.234375 136.597656 179.207031 137.027344 179.605469 136.933594 Z M 205.589844 135.210938 C 205.558594 135.179688 205.53125 135.179688 205.5 135.179688 C 205.3125 135.269531 205.28125 135.394531 205.191406 135.578125 C 205.066406 135.855469 204.914062 136.132812 204.761719 136.378906 C 204.511719 136.71875 204.019531 137.152344 204.144531 137.613281 C 204.175781 137.675781 204.238281 137.738281 204.296875 137.738281 C 204.789062 137.675781 205.097656 136.964844 205.3125 136.597656 C 205.53125 136.289062 205.867188 135.609375 205.589844 135.210938 Z M 195.09375 138.445312 C 194.078125 138.074219 191.460938 137.273438 189.457031 138.570312 C 187.089844 140.109375 187.089844 142.699219 187.089844 142.699219 C 187.089844 142.699219 187.394531 141.25 188.566406 140.015625 C 188.566406 140.015625 188.597656 139.984375 188.597656 139.984375 C 188.597656 140.015625 188.597656 140.046875 188.597656 140.078125 C 188.597656 140.324219 188.628906 140.539062 188.6875 140.757812 C 188.964844 140.449219 189.488281 139.957031 190.199219 139.679688 C 190.199219 139.679688 189.367188 140.726562 189.027344 141.496094 C 189.488281 142.203125 190.289062 142.667969 191.214844 142.667969 C 192.660156 142.667969 193.832031 141.496094 193.832031 140.046875 C 193.832031 139.492188 193.644531 138.96875 193.335938 138.539062 C 193.675781 138.597656 193.984375 138.691406 194.261719 138.753906 C 194.570312 138.847656 194.816406 139.03125 194.96875 139.246094 C 195.339844 140.757812 194.691406 141.742188 194.015625 142.296875 L 193.921875 142.328125 C 193.921875 142.359375 193.921875 142.359375 193.921875 142.390625 C 193.398438 142.789062 192.90625 142.976562 192.90625 142.976562 C 192.90625 142.976562 193.398438 142.851562 193.953125 142.542969 C 193.984375 142.699219 194.046875 142.851562 194.109375 142.976562 L 194.382812 142.820312 C 194.292969 142.667969 194.261719 142.511719 194.230469 142.359375 C 194.355469 142.265625 194.476562 142.171875 194.570312 142.082031 L 194.785156 142.328125 L 195.03125 142.144531 L 194.785156 141.867188 C 194.878906 141.773438 194.9375 141.648438 195.03125 141.558594 C 195.09375 141.589844 195.125 141.617188 195.152344 141.679688 L 195.402344 141.496094 C 195.339844 141.402344 195.246094 141.339844 195.183594 141.28125 C 195.402344 140.816406 195.492188 140.261719 195.371094 139.554688 C 196.046875 139.648438 196.785156 139.339844 197.125 138.597656 C 197.125 138.570312 196.539062 138.9375 195.09375 138.445312 Z M 173.019531 139.554688 C 172.925781 140.015625 172.957031 140.601562 173.234375 141.25 C 173.109375 141.3125 172.988281 141.371094 172.863281 141.433594 L 173.019531 141.710938 C 173.140625 141.648438 173.234375 141.589844 173.355469 141.527344 C 173.386719 141.589844 173.449219 141.679688 173.480469 141.742188 C 173.511719 141.804688 173.542969 141.835938 173.601562 141.894531 L 173.296875 142.234375 L 173.511719 142.449219 L 173.789062 142.144531 C 173.910156 142.265625 174.066406 142.390625 174.1875 142.480469 C 174.097656 142.636719 174.066406 142.789062 174.035156 142.976562 L 174.34375 143.003906 C 174.34375 142.882812 174.402344 142.757812 174.433594 142.636719 C 175.234375 143.066406 176.066406 143.097656 176.066406 143.097656 C 176.066406 143.097656 174.464844 142.726562 173.726562 141.558594 C 173.171875 140.664062 173.171875 139.894531 173.355469 139.371094 C 173.542969 139.09375 173.789062 138.875 174.125 138.785156 C 174.402344 138.691406 174.710938 138.628906 175.050781 138.570312 C 174.898438 138.816406 174.773438 139.0625 174.679688 139.339844 C 175.113281 139.308594 175.726562 139.277344 176.34375 139.429688 C 176.34375 139.429688 175.390625 139.769531 174.589844 140.171875 C 174.621094 141.589844 175.789062 142.699219 177.207031 142.699219 C 178.652344 142.699219 179.824219 141.527344 179.824219 140.078125 C 179.824219 140.078125 179.824219 140.046875 179.824219 139.984375 C 181.023438 141.21875 181.332031 142.699219 181.332031 142.699219 C 181.332031 142.699219 181.453125 140.140625 178.960938 138.570312 C 176.929688 137.304688 174.34375 138.105469 173.328125 138.445312 C 171.878906 138.9375 171.292969 138.570312 171.292969 138.570312 C 171.664062 139.308594 172.339844 139.617188 173.019531 139.554688 Z M 178.128906 245.648438 C 178.253906 245.648438 178.34375 245.617188 178.46875 245.617188 C 179.113281 243.457031 179.421875 241.210938 179.300781 238.960938 L 178.992188 238.960938 C 179.113281 241.238281 178.804688 243.488281 178.128906 245.648438 Z M 178.128906 245.648438 "/></g></svg>