<svg xmlns="http://www.w3.org/2000/svg" width="18.732" height="18.732" viewBox="0 0 18.732 18.732"><defs><style>.a{fill:#b1b1b1;}</style></defs><g transform="translate(4.427)"><path class="a" d="M129.232,0h-6.586A1.648,1.648,0,0,0,121,1.646V5.012a1.648,1.648,0,0,0,1.646,1.646h6.586a1.648,1.648,0,0,0,1.646-1.646V1.646A1.648,1.648,0,0,0,129.232,0Z" transform="translate(-121)"/></g><g transform="translate(0 7.756)"><path class="a" d="M17.635,217.488h-1.1v-.549a1.648,1.648,0,0,0-1.646-1.646H9.915v-1.1h1.646a.547.547,0,1,0,0-1.094h-.549V212H7.72v1.1H7.171a.547.547,0,1,0,0,1.094H8.817v1.1H3.842A1.648,1.648,0,0,0,2.2,216.939v.549H1.1a1.1,1.1,0,0,0-1.1,1.1v1.1a1.1,1.1,0,0,0,1.1,1.1H2.2v1.1H1.646a.549.549,0,1,0,0,1.1h2.2a.549.549,0,1,0,0-1.1H3.293v-1.1h1.1a1.1,1.1,0,0,0,1.1-1.1v-1.1a1.1,1.1,0,0,0-1.1-1.1h-1.1v-.549a.549.549,0,0,1,.549-.549H8.817v1.1H7.72a1.1,1.1,0,0,0-1.1,1.1v1.1a1.1,1.1,0,0,0,1.1,1.1h1.1v1.1H8.269a.549.549,0,1,0,0,1.1h2.2a.549.549,0,1,0,0-1.1H9.915v-1.1h1.1a1.1,1.1,0,0,0,1.1-1.1v-1.1a1.1,1.1,0,0,0-1.1-1.1h-1.1v-1.1h4.976a.549.549,0,0,1,.549.549v.549h-1.1a1.1,1.1,0,0,0-1.1,1.1v1.1a1.1,1.1,0,0,0,1.1,1.1h1.1v1.1h-.549a.549.549,0,1,0,0,1.1h2.2a.549.549,0,1,0,0-1.1h-.549v-1.1h1.1a1.1,1.1,0,0,0,1.1-1.1v-1.1A1.1,1.1,0,0,0,17.635,217.488Z" transform="translate(0 -212)"/></g></svg>