<svg xmlns="http://www.w3.org/2000/svg" width="15.551" height="15.551" viewBox="0 0 15.551 15.551"><defs><style>.a{fill:#00a54f;}</style></defs><g transform="translate(0)"><path class="a" d="M9.433,69.769a3.01,3.01,0,1,0-4.868-2.031,2.4,2.4,0,0,0-2.8,3.852A2.954,2.954,0,0,0,0,74.291v2.787a.931.931,0,0,0,.93.93h9.889A1.079,1.079,0,0,0,11.9,76.931V73.275A3.734,3.734,0,0,0,9.433,69.769Zm-1.87-4.443a2.091,2.091,0,1,1-2.1,2.091A2.1,2.1,0,0,1,7.563,65.325ZM3.412,68.355a1.486,1.486,0,0,1,1.453,1.837,3.757,3.757,0,0,0-1.051,1.081,1.488,1.488,0,1,1-.4-2.917Zm-2.5,8.724V74.291A2.041,2.041,0,0,1,2.95,72.253h.422a3.717,3.717,0,0,0-.143,1.022v3.656a1.083,1.083,0,0,0,.013.166H.93a.02.02,0,0,1-.018-.018Zm10.073-.148a.168.168,0,0,1-.166.166H4.307a.168.168,0,0,1-.166-.166V73.275a2.819,2.819,0,0,1,2.816-2.816H8.168a2.819,2.819,0,0,1,2.816,2.816Z" transform="translate(0 -62.458)"/><path class="a" d="M399.9,1.287h-.837V.456a.456.456,0,0,0-.911,0v.831h-.837a.456.456,0,0,0,0,.911h.837v.831a.456.456,0,0,0,.911,0V2.2h.837a.456.456,0,1,0,0-.911Z" transform="translate(-384.805)"/></g></svg>