<svg xmlns="http://www.w3.org/2000/svg" xmlns:xlink="http://www.w3.org/1999/xlink" width="198" height="198" viewBox="0 0 198 198"><defs><style>.a{fill:#fcfdfd;}.b{fill:#fbfdfc;}.c{fill:#fafdfc;}.d,.f{fill:none;}.d{stroke:#fff;stroke-width:2px;stroke-dasharray:5;}.e{stroke:none;}.g{filter:url(#e);}.h{filter:url(#c);}.i{filter:url(#a);}</style><filter id="a" x="18.001" y="52.694" width="128.808" height="122.221" filterUnits="userSpaceOnUse"><feOffset dy="3" input="SourceAlpha"/><feGaussianBlur stdDeviation="6" result="b"/><feFlood flood-opacity="0.361"/><feComposite operator="in" in2="b"/><feComposite in="SourceGraphic"/></filter><filter id="c" x="96.294" y="78.59" width="84.401" height="96.493" filterUnits="userSpaceOnUse"><feOffset dy="3" input="SourceAlpha"/><feGaussianBlur stdDeviation="6" result="d"/><feFlood flood-opacity="0.361"/><feComposite operator="in" in2="d"/><feComposite in="SourceGraphic"/></filter><filter id="e" x="66.917" y="16.999" width="67.889" height="66.573" filterUnits="userSpaceOnUse"><feOffset dy="3" input="SourceAlpha"/><feGaussianBlur stdDeviation="6" result="f"/><feFlood flood-opacity="0.361"/><feComposite operator="in" in2="f"/><feComposite in="SourceGraphic"/></filter></defs><g transform="translate(-89 -219)"><g transform="translate(-547.506 53.951)"><g class="i" transform="matrix(1, 0, 0, 1, 636.51, 165.05)"><path class="a" d="M697.04,356.995h1.532q28.4-.018,56.8-.056a1.6,1.6,0,0,1,1.7,1.022c2.524,5.041,5.113,10.05,7.677,15.071.2.389.373.791.563,1.194a2.074,2.074,0,0,1-1.245.155c-10.787,0-21.575.019-32.362-.031a4.892,4.892,0,0,0-4.825,2.865c-3.94,7.57-7.961,15.1-11.925,22.654-1.383,2.637-1.347,2.694,1.631,2.7,10.08,0,20.161.02,30.24-.064a4.7,4.7,0,0,1,4.885,3.179c1.824,4.139,3.891,8.171,5.848,12.251a4.657,4.657,0,0,1,.365,1.044.669.669,0,0,1-.677.913c-.631.038-1.262.078-1.894.081-15.362.068-30.725.155-46.086-.094-3.768-.061-6.189,1.426-7.732,4.914-2.508,5.668-5.656,11.021-8.642,16.45a3.371,3.371,0,0,1-3.233,1.922c-5.207-.064-10.414-.024-15.621-.024-.149,0-.3,0-.446-.01-1.141-.081-1.284-.309-.894-1.369a66.736,66.736,0,0,1,4.2-8.344q14.167-26.384,28.381-52.743c.879-1.633,1.735-3.28,2.671-4.88a3.347,3.347,0,0,0-.352-4.1c-3-3.968-5.937-7.98-8.874-11.993C698.146,358.9,697.678,358.025,697.04,356.995Z" transform="translate(-636.51 -289.24)"/></g><g class="h" transform="matrix(1, 0, 0, 1, 636.51, 165.05)"><path class="b" d="M1032.665,472.957c2.417,0,4.835.05,7.251-.016a3.761,3.761,0,0,1,3.793,2.356q3.23,6.649,6.5,13.279,10.239,20.759,20.488,41.514a17.91,17.91,0,0,1,.8,1.836c.281.777.117,1.321-.852,1.345-.445.011-.889.092-1.334.095-4.8.026-9.592.029-14.388.067a4.125,4.125,0,0,1-4.116-2.59q-10.988-22.549-22.078-45.049-2.5-5.1-4.922-10.226c-1.048-2.2-.8-2.588,1.613-2.6s4.834,0,7.251,0Z" transform="translate(-908.92 -379.35)"/></g><g class="g" transform="matrix(1, 0, 0, 1, 636.51, 165.05)"><path class="c" d="M907.7,197.048c1.843,3,3.486,6.074,5.125,9.148q5.05,9.474,10.062,18.97c1.064,2.009.871,2.382-1.362,2.391q-14.056.056-28.112.065c-1.88,0-2.2-.565-1.32-2.223q7.09-13.308,14.19-26.611A4.908,4.908,0,0,1,907.7,197.048Z" transform="translate(-806.7 -165.05)"/></g></g><g class="d" transform="translate(89 219)"><circle class="e" cx="99" cy="99" r="99"/><circle class="f" cx="99" cy="99" r="98"/></g></g></svg>