<svg xmlns="http://www.w3.org/2000/svg" xmlns:xlink="http://www.w3.org/1999/xlink" width="66" height="66" viewBox="0 0 66 66"><defs><style>.a{fill:#fff;}.b{fill:#00a54f;}.c{filter:url(#c);}.d{filter:url(#a);}</style><filter id="a" x="0" y="0" width="66" height="66" filterUnits="userSpaceOnUse"><feOffset dy="3" input="SourceAlpha"/><feGaussianBlur stdDeviation="3" result="b"/><feFlood flood-opacity="0.161"/><feComposite operator="in" in2="b"/><feComposite in="SourceGraphic"/></filter><filter id="c" x="16.483" y="16.483" width="33.037" height="33.037" filterUnits="userSpaceOnUse"><feOffset dy="3" input="SourceAlpha"/><feGaussianBlur stdDeviation="3" result="d"/><feFlood flood-opacity="0.161"/><feComposite operator="in" in2="d"/><feComposite in="SourceGraphic"/></filter></defs><g transform="translate(9 6)"><g class="d" transform="matrix(1, 0, 0, 1, -9, -6)"><circle class="a" cx="24" cy="24" r="24" transform="translate(9 6)"/></g><circle class="b" cx="23" cy="23" r="23" transform="translate(1 1)"/><g transform="translate(4.754 4.754)"><g class="c" transform="matrix(1, 0, 0, 1, -13.75, -10.75)"><path class="a" d="M156,163.518a1.5,1.5,0,0,0,1.5,1.5h4.511v4.511a1.5,1.5,0,1,0,3.007,0v-4.511h4.511a1.5,1.5,0,1,0,0-3.007h-4.511V157.5a1.5,1.5,0,0,0-3.007,0v4.511H157.5A1.5,1.5,0,0,0,156,163.518Z" transform="translate(-130.52 -133.52)"/></g><path class="a" d="M134.826,16.3l1.945-.806a1.5,1.5,0,1,0-1.151-2.778l-1.945.806a1.5,1.5,0,1,0,1.151,2.778Z" transform="translate(-122.766 -11.652)"/><path class="a" d="M19.247,0a1.5,1.5,0,0,0,0,3.007,16.24,16.24,0,1,1-16.24,16.24,1.5,1.5,0,0,0-3.007,0A19.247,19.247,0,1,0,19.247,0Z"/><path class="a" d="M61.79,63.279l1.489-1.489a1.5,1.5,0,0,0-2.127-2.127l-1.489,1.489a1.5,1.5,0,0,0,2.127,2.127Z" transform="translate(-54.77 -54.77)"/><path class="a" d="M13.53,137.585a1.5,1.5,0,0,0,1.965-.814l.806-1.945a1.5,1.5,0,1,0-2.778-1.151l-.806,1.945A1.5,1.5,0,0,0,13.53,137.585Z" transform="translate(-11.654 -122.766)"/></g></g></svg>