<svg xmlns="http://www.w3.org/2000/svg" width="16.704" height="15.207" viewBox="0 0 16.704 15.207"><defs><style>.a{fill:#b1b1b1;}</style></defs><g transform="translate(0 -20.609)"><g transform="translate(0 20.609)"><g transform="translate(0 0)"><path class="a" d="M.928,90.617h9.35V88.761H.928a.928.928,0,0,0,0,1.856Z" transform="translate(0 -86.287)"/><path class="a" d="M.928,193.174h9.35v-1.856H.928a.928.928,0,0,0,0,1.856Z" transform="translate(0 -185.12)"/><path class="a" d="M.928,293.874h0a.928.928,0,0,0,0,1.856h6.5a2.292,2.292,0,0,1,.2-1.856Z" transform="translate(0 -283.953)"/><path class="a" d="M239.979,30.847a1.173,1.173,0,0,0-1.659,0l-.963.963V21.782a1.173,1.173,0,0,0-2.347,0V31.811l-.963-.963a1.173,1.173,0,1,0-1.659,1.659l2.966,2.966a1.174,1.174,0,0,0,1.66,0l2.966-2.966A1.173,1.173,0,0,0,239.979,30.847Z" transform="translate(-223.619 -20.609)"/></g></g></g></svg>