<svg xmlns="http://www.w3.org/2000/svg" width="18.978" height="19.017" viewBox="0 0 18.978 19.017"><defs><style>.a{fill:#707070;stroke:#707070;stroke-width:0.3px;}</style></defs><g transform="translate(0.15 0.151)"><path class="a" d="M.306,18.717H13.894a.328.328,0,0,0,.307-.346V11.347L18.551,7a.325.325,0,0,0,0-.46L16.824,4.8a.336.336,0,0,0-.468,0L14.2,6.944V3.639a.317.317,0,0,0-.086-.23L10.825.1A.323.323,0,0,0,10.6,0H.306A.327.327,0,0,0,0,.345V18.371a.327.327,0,0,0,.306.346ZM10.7,11.662l1,1-1.507.5Zm1.6.684L11.017,11.06l4.131-4.121,1.277,1.277ZM16.6,5.493,17.87,6.766l-.986.988L15.608,6.479ZM10.946,1.131,13.108,3.3H10.946ZM.651.651h9.643V3.639a.294.294,0,0,0,.305.307h2.95V7.594l-3.233,3.235a.291.291,0,0,0-.074.12l-.459,1.38H2.755a.326.326,0,1,0,0,.651H9.566l-.2.594a.319.319,0,0,0,.079.329c.023.023.049.053.076.053H2.755a.326.326,0,1,0,0,.651h8.667a.326.326,0,0,0,0-.651H9.847l2.559-.848a.285.285,0,0,0,.118-.075L13.55,12v6.067H.651Zm0,0"/><path class="a" d="M68.692,383H60.025a.326.326,0,0,0,0,.651h8.667a.326.326,0,0,0,0-.651Zm0,0" transform="translate(-57.27 -367.416)"/><path class="a" d="M60.025,263.651h4.6a.326.326,0,1,0,0-.651h-4.6a.326.326,0,1,0,0,.651Zm0,0" transform="translate(-57.27 -252.299)"/></g></svg>