<svg xmlns="http://www.w3.org/2000/svg" width="24.232" height="26.692" viewBox="0 0 24.232 26.692"><defs><style>.a{fill:#00a54f;}</style></defs><path class="a" d="M25.48,20.075a8.115,8.115,0,0,1-2.882-6.21V10.488A8.488,8.488,0,0,0,15.328,2.1a5.7,5.7,0,0,0-2.423,0,8.487,8.487,0,0,0-7.27,8.384v3.378a8.124,8.124,0,0,1-2.893,6.219A2.12,2.12,0,0,0,4.12,23.816H24.112a2.12,2.12,0,0,0,1.368-3.74Z" transform="translate(-2 -1.97)"/><path class="a" d="M12.777,24.635A4.551,4.551,0,0,0,17.229,21h-8.9A4.551,4.551,0,0,0,12.777,24.635Z" transform="translate(-0.661 2.057)"/></svg>