<svg xmlns="http://www.w3.org/2000/svg" width="18.732" height="18.732" viewBox="0 0 18.732 18.732"><defs><style>.a{fill:#b1b1b1;}</style></defs><path class="a" d="M22.573,17.5v.585a.585.585,0,0,1-.172.414l-3.9,3.9a.585.585,0,0,1-.414.172H17.5V18.085a.59.59,0,0,1,.585-.585Z" transform="translate(-3.841 -3.841)"/><path class="a" d="M16.586,5H10.732V6.756A1.366,1.366,0,0,1,8,6.756V5H2.146A2.145,2.145,0,0,0,0,7.146V17.683A2.145,2.145,0,0,0,2.146,19.83H12.879V15.342a1.367,1.367,0,0,1,1.366-1.366h4.488V7.146A2.145,2.145,0,0,0,16.586,5ZM10.927,16.318H3.707a.585.585,0,0,1,0-1.171h7.22a.585.585,0,0,1,0,1.171Zm4.1-3.122H3.707a.585.585,0,0,1,0-1.171H15.025a.585.585,0,0,1,0,1.171Zm0-3.122H3.707a.585.585,0,0,1,0-1.171H15.025a.585.585,0,0,1,0,1.171Z" transform="translate(0 -1.097)"/><path class="a" d="M11.835,6.848a.586.586,0,0,1-.585-.585V3.335a.585.585,0,0,1,1.171,0V6.262A.586.586,0,0,1,11.835,6.848Z" transform="translate(-2.469 -0.604)"/><path class="a" d="M11.561,3.122a1.561,1.561,0,1,1,1.561-1.561A1.563,1.563,0,0,1,11.561,3.122Z" transform="translate(-2.195)"/></svg>