<svg xmlns="http://www.w3.org/2000/svg" xmlns:xlink="http://www.w3.org/1999/xlink" width="34" height="36.699" viewBox="0 0 34 36.699"><defs><style>.a{fill:rgba(233,233,233,0.61);stroke:#00a54f;stroke-dasharray:3;}.b{fill:#00a54f;}.c{stroke:none;}.d{fill:none;}.e{filter:url(#a);}</style><filter id="a" x="1.603" y="3.299" width="30.794" height="33.4" filterUnits="userSpaceOnUse"><feOffset dy="3" input="SourceAlpha"/><feGaussianBlur stdDeviation="3" result="b"/><feFlood flood-opacity="0.161"/><feComposite operator="in" in2="b"/><feComposite in="SourceGraphic"/></filter></defs><g transform="translate(-323 -398)"><g class="a" transform="translate(323 398)"><rect class="c" width="34" height="34" rx="3"/><rect class="d" x="0.5" y="0.5" width="33" height="33" rx="2.5"/></g><g transform="translate(296.203 407.299)"><g class="e" transform="matrix(1, 0, 0, 1, 26.8, -9.3)"><path class="b" d="M39.769,7.7a.592.592,0,0,1-.592.592H37.992A.592.592,0,0,1,37.4,7.7h0a.592.592,0,0,1,.592-.592h1.185a.592.592,0,0,1,.592.592Zm0-3.791a.592.592,0,0,0-.592-.592H37.992a.592.592,0,0,0-.592.592h0a.592.592,0,0,0,.592.592h1.185a.592.592,0,0,0,.592-.592Zm0,7.582a.592.592,0,0,0-.592-.592H37.992a.592.592,0,0,0-.592.592h0a.592.592,0,0,0,.592.592h1.185a.592.592,0,0,0,.592-.592ZM50.194,1.9V13.5a1.9,1.9,0,0,1-1.9,1.9H40.006a1.9,1.9,0,0,1-1.9-1.9v-.948h1.066a1.066,1.066,0,0,0,0-2.132H38.111V8.766h1.066a1.066,1.066,0,0,0,0-2.132H38.111V4.975h1.066a1.066,1.066,0,0,0,0-2.132H38.111V1.9a1.9,1.9,0,0,1,1.9-1.9H48.3A1.9,1.9,0,0,1,50.194,1.9ZM42.68,5.619a1.828,1.828,0,1,0,1.828-1.828A1.828,1.828,0,0,0,42.68,5.619Zm4.671,4.468A2.031,2.031,0,0,0,45.32,8.056H43.7a2.031,2.031,0,0,0-2.031,2.031V10.9h5.686Z" transform="translate(-26.8 9.3)"/></g></g></g></svg>