<svg xmlns="http://www.w3.org/2000/svg" width="288.08" height="199.434" viewBox="0 0 288.08 199.434"><defs><style>.a{fill:#2f2e41;}.b{fill:#fff;}.c{fill:#3f3d56;}.d{fill:#00a54f;}.e{fill:#e6e6e6;}.f{fill:#f2f2f2;}</style></defs><g transform="translate(-6.777)"><circle class="a" cx="25.211" cy="25.211" r="25.211" transform="translate(214.81 163.779) rotate(-45)"/><circle class="b" cx="8.617" cy="8.617" r="8.617" transform="matrix(0.976, -0.216, 0.216, 0.976, 238.185, 151.136)"/><circle class="c" cx="2.872" cy="2.872" r="2.872" transform="matrix(0.976, -0.216, 0.216, 0.976, 241.545, 153.278)"/><path class="d" d="M752.231,512.771c-10.311-.019-17.549-1.861-17.532-11.2s8.39-16.9,18.7-16.879,18.655,7.607,18.638,16.948S762.542,512.79,752.231,512.771Z" transform="translate(-502.766 -366.036)"/><path class="e" d="M801.887,539.618c-2.958,10.26-11.593,17.442-20.6,23.543q-1.887,1.278-3.774,2.5c-.009,0-.017.012-.026.016-.061.039-.121.078-.178.117l-.777.5.142.064s.139.074-.013.012c-.045-.019-.093-.036-.138-.055-5.233-2.111-10.559-4.377-14.569-8.33-4.16-4.106-6.591-10.545-4.339-15.939a10.3,10.3,0,0,1,1.115-2c.183-.261.38-.512.584-.757a11.038,11.038,0,0,1,18.958,3.354c.662-6.162-4.419-11.323-9.309-15.131s-10.45-7.952-11.4-14.079a11.943,11.943,0,0,1,2.817-9.365c.067-.081.134-.161.2-.239a16.11,16.11,0,0,1,10.354-5.555c7.5-.78,14.787,3.191,20.236,8.406C799.947,515.065,805.249,527.953,801.887,539.618Z" transform="translate(-511.91 -371.625)"/><path class="b" d="M789.186,530.181a27.384,27.384,0,0,1,3.281,7.236,23.774,23.774,0,0,1,.822,7.023,30.464,30.464,0,0,1-3.99,13.865,43.848,43.848,0,0,1-6.615,8.839q-1.887,1.278-3.774,2.5c-.009,0-.017.012-.026.016-.061.039-.121.078-.178.117l-.777.5s.28.137.128.075c-.045-.019-.093-.036-.138-.055a24.024,24.024,0,0,0-17.793-26.271c.183-.261.38-.512.584-.757a25.342,25.342,0,0,1,4.184,1.583,24.835,24.835,0,0,1,11.229,10.826,25.391,25.391,0,0,1,2.764,13.933c.215-.195.43-.394.639-.591a44.521,44.521,0,0,0,9.9-12.874,28.342,28.342,0,0,0,2.968-13.41,25.616,25.616,0,0,0-5.136-13.842,59.329,59.329,0,0,0-11.246-11.59,67.415,67.415,0,0,0-13.986-8.635.485.485,0,0,1-.244-.622.412.412,0,0,1,.2-.239.359.359,0,0,1,.312.013c.617.284,1.23.572,1.837.872a68.181,68.181,0,0,1,14.086,9.292A54.881,54.881,0,0,1,789.186,530.181Z" transform="translate(-513.308 -375.608)"/><ellipse class="a" cx="6.383" cy="2.393" rx="6.383" ry="2.393" transform="translate(36.769 191.642)"/><ellipse class="a" cx="6.383" cy="2.393" rx="6.383" ry="2.393" transform="translate(52.088 191.323)"/><ellipse class="a" cx="12.606" cy="3.957" rx="12.606" ry="3.957" transform="translate(63.93 155.319) rotate(-29.962)"/><circle class="a" cx="25.211" cy="25.211" r="25.211" transform="translate(19.334 181.214) rotate(-80.783)"/><rect class="a" width="7.659" height="13.723" transform="translate(36.769 180.153)"/><rect class="a" width="7.659" height="13.723" transform="translate(52.088 180.153)"/><circle class="b" cx="8.617" cy="8.617" r="8.617" transform="translate(40.28 145.368)"/><circle class="c" cx="2.872" cy="2.872" r="2.872" transform="translate(46.024 151.112)"/><path class="e" d="M378.9,500.969c-2.036-9.117,4.472-18.329,14.535-20.576s19.871,3.322,21.907,12.439-4.633,12.479-14.7,14.726S380.931,510.086,378.9,500.969Z" transform="translate(-355.094 -364.048)"/><ellipse class="a" cx="3.957" cy="12.606" rx="3.957" ry="12.606" transform="translate(6.777 146.842) rotate(-64.626)"/><path class="b" d="M399.782,569.316c0,2.468,6.354,7.34,13.4,7.34s13.66-6.947,13.66-9.414-6.61.479-13.66.479S399.782,566.849,399.782,569.316Z" transform="translate(-363.908 -399.854)"/><ellipse class="a" cx="6.383" cy="2.393" rx="6.383" ry="2.393" transform="translate(129.786 191.642)"/><ellipse class="a" cx="6.383" cy="2.393" rx="6.383" ry="2.393" transform="translate(114.467 191.323)"/><ellipse class="a" cx="3.957" cy="12.606" rx="3.957" ry="12.606" transform="translate(89.591 149.583) rotate(-60.038)"/><circle class="a" cx="25.211" cy="25.211" r="25.211" transform="translate(105.851 135.156)"/><rect class="a" width="7.659" height="13.723" transform="translate(134.892 180.153)"/><rect class="a" width="7.659" height="13.723" transform="translate(119.574 180.153)"/><circle class="b" cx="8.617" cy="8.617" r="8.617" transform="translate(116.539 145.368)"/><ellipse class="c" cx="2.88" cy="2.86" rx="2.88" ry="2.86" transform="translate(116.997 152.825) rotate(-44.974)"/><path class="d" d="M556.35,507.559c-10.063-2.247-16.732-5.609-14.7-14.726s11.844-14.686,21.907-12.439,16.57,11.459,14.535,20.576S566.413,509.805,556.35,507.559Z" transform="translate(-422.577 -364.048)"/><ellipse class="a" cx="3.957" cy="12.606" rx="3.957" ry="12.606" transform="matrix(0.966, -0.257, 0.257, 0.966, 147.128, 156.236)"/><path class="b" d="M546.277,567.721c-4.629,0-8.968-2.946-8.968-.479s4.34,9.414,8.968,9.414,8.8-4.872,8.8-7.34S550.906,567.721,546.277,567.721Z" transform="translate(-420.927 -399.854)"/><path class="d" d="M480.1,433.938h-2.239a7.574,7.574,0,0,1-7.565-7.565v-1.88a23.146,23.146,0,0,1,2.622-11.586,60.948,60.948,0,0,1,7.342-9.865,43.471,43.471,0,0,0,4.992-6.017,10.121,10.121,0,0,0,1.577-5.6c0-4.67-3.043-6.941-9.3-6.941a37.773,37.773,0,0,0-10.253,1.539,8.632,8.632,0,0,1-11-8.3V373.92a8.467,8.467,0,0,1,4.995-7.76,49.558,49.558,0,0,1,36.6-.319,29.014,29.014,0,0,1,12.3,9.322,22.451,22.451,0,0,1,4.412,13.607,22.13,22.13,0,0,1-4.266,13.608,77.8,77.8,0,0,1-11.928,12.153,84.987,84.987,0,0,0-7.647,7.2,13.3,13.3,0,0,0-3.179,5.919,7.545,7.545,0,0,1-7.455,6.283Z" transform="translate(-387.327 -315.372)"/><path class="d" d="M484.706,525.45h-.3a14.021,14.021,0,1,1,0-28.042h.3a14.021,14.021,0,1,1,0,28.042Z" transform="translate(-393.182 -371.309)"/><ellipse class="a" cx="12.606" cy="3.957" rx="12.606" ry="3.957" transform="matrix(1, -0.02, 0.02, 1, 232.505, 171.929)"/><path class="f" d="M733.808,416.074h-15.22a2.93,2.93,0,0,1-2.927-2.927v-15.22A2.93,2.93,0,0,1,718.588,395h15.22a2.93,2.93,0,0,1,2.927,2.927v15.22a2.93,2.93,0,0,1-2.927,2.927Zm-15.22-19.9a1.758,1.758,0,0,0-1.756,1.756v15.22a1.758,1.758,0,0,0,1.756,1.756h15.22a1.758,1.758,0,0,0,1.756-1.756v-15.22a1.758,1.758,0,0,0-1.756-1.756Z" transform="translate(-494.872 -328.85)"/><path class="f" d="M745.808,399.074h-15.22a2.93,2.93,0,0,1-2.927-2.927v-15.22A2.93,2.93,0,0,1,730.588,378h15.22a2.93,2.93,0,0,1,2.927,2.927v15.22A2.93,2.93,0,0,1,745.808,399.074Zm-15.22-19.9a1.758,1.758,0,0,0-1.756,1.756v15.22a1.758,1.758,0,0,0,1.756,1.756h15.22a1.758,1.758,0,0,0,1.756-1.756v-15.22a1.758,1.758,0,0,0-1.756-1.756Z" transform="translate(-499.848 -321.802)"/><path class="f" d="M540.808,316.074h-15.22a2.93,2.93,0,0,1-2.927-2.927v-15.22A2.93,2.93,0,0,1,525.588,295h15.22a2.93,2.93,0,0,1,2.927,2.927v15.22A2.93,2.93,0,0,1,540.808,316.074Zm-15.22-19.9a1.758,1.758,0,0,0-1.756,1.756v15.22a1.758,1.758,0,0,0,1.756,1.756h15.22a1.758,1.758,0,0,0,1.756-1.756v-15.22a1.758,1.758,0,0,0-1.756-1.756Z" transform="translate(-414.854 -287.39)"/><path class="f" d="M524.808,303.074h-15.22a2.93,2.93,0,0,1-2.927-2.927v-15.22A2.93,2.93,0,0,1,509.588,282h15.22a2.93,2.93,0,0,1,2.927,2.927v15.22a2.93,2.93,0,0,1-2.927,2.927Zm-15.22-19.9a1.758,1.758,0,0,0-1.756,1.756v15.22a1.758,1.758,0,0,0,1.756,1.756h15.22a1.758,1.758,0,0,0,1.756-1.756v-15.22a1.758,1.758,0,0,0-1.756-1.756Z" transform="translate(-408.22 -282)"/><circle class="f" cx="3.786" cy="3.786" r="3.786" transform="translate(184.255 103.441)"/><circle class="f" cx="3.786" cy="3.786" r="3.786" transform="translate(32.053 89.977)"/><circle class="f" cx="3.786" cy="3.786" r="3.786" transform="translate(287.285 122.759)"/></g></svg>