<svg xmlns="http://www.w3.org/2000/svg" width="123" height="137" viewBox="0 0 123 137"><defs><style>.a,.c{fill:#fff;}.a{stroke:#00a54f;stroke-dasharray:5;}.b,.d{fill:#00a54f;}.d,.e{font-size:15px;font-family:PNU-Regular, PNU;letter-spacing:0.001em;}.e,.f{fill:#b1b1b1;}.g{stroke:none;}.h{fill:none;}</style></defs><g transform="translate(-218 -215)"><g class="a" transform="translate(218 229)"><rect class="g" width="116" height="123" rx="11"/><rect class="h" x="0.5" y="0.5" width="115" height="122" rx="10.5"/></g><g transform="translate(17 -1)"><rect class="b" width="50" height="50" rx="7" transform="translate(274 216)"/><g transform="translate(275.557 225.82)"><g transform="translate(9 1.513)"><path class="c" d="M22.466,24.668c-4.127-3.227-1.214-16.5-1.214-16.5h5.043a2.6,2.6,0,0,0,2.59-2.8c0-3.04-2.522-2.853-2.522-2.853H7.794C4.745,2.515,1.994,6,.415,8.5-.426,9.834.05,10.208,1.494,9.579,6.554,7.363,7.981,8.161,7.981,8.161c.357,1.707.475,9.408-.823,12.448-1.316,2.862-3.744,6.487-.178,8.618,2.785,1.579,5.706-1.664,5.417-7.184-.136-2.921-.365-13.874-.365-13.874h4.653c-.145,1.707-.934,10.418-.11,15.581.857,8.618,10.223,6.946,11.972,2.064a4.5,4.5,0,0,0,.008-3.168c-.595-1.452-1.588-1.528-1.477-.849a3.738,3.738,0,0,1-.043,1.24C26.83,24.218,24.419,26.069,22.466,24.668Z" transform="translate(0 -2.513)"/></g></g></g><text class="d" transform="translate(318 299)"><tspan x="-83.505" y="0">قسم الرياضيات</tspan></text><g transform="translate(-24 18)"><text class="e" transform="translate(305.684 311)"><tspan x="-28.86" y="0">متابع</tspan></text><g transform="translate(308.242 298)"><g transform="translate(0.44)"><g transform="translate(0)"><path class="f" d="M7.128,13.488H2.156a.572.572,0,0,1-.544-.747A4.41,4.41,0,0,1,5.8,9.758a4.275,4.275,0,0,1,2.457.771.572.572,0,1,0,.654-.937,5.431,5.431,0,0,0-1.14-.609,2.909,2.909,0,0,0,.946-1.919,4.3,4.3,0,0,1,5.455-.446.572.572,0,1,0,.654-.937,5.431,5.431,0,0,0-1.14-.609,2.915,2.915,0,1,0-3.925-.006q-.12.046-.237.1a5.426,5.426,0,0,0-1.007.578A2.914,2.914,0,1,0,3.843,8.971,5.5,5.5,0,0,0,.524,12.391a1.715,1.715,0,0,0,1.632,2.24H7.128a.572.572,0,0,0,0-1.143Zm4.6-12.345A1.772,1.772,0,1,1,9.957,2.915,1.774,1.774,0,0,1,11.729,1.143ZM5.814,5.054A1.772,1.772,0,1,1,4.042,6.826,1.774,1.774,0,0,1,5.814,5.054Z" transform="translate(-0.44)"/><path class="f" d="M269.932,322.456a.571.571,0,0,0-.8.132l-2.817,3.935a.326.326,0,0,1-.47.024l-1.824-1.751a.572.572,0,0,0-.792.824l1.826,1.753a1.474,1.474,0,0,0,1.014.405q.048,0,.1,0a1.473,1.473,0,0,0,1.048-.546l.019-.025,2.828-3.951A.572.572,0,0,0,269.932,322.456Z" transform="translate(-255.539 -313.121)"/></g></g></g></g></g></svg>