<svg xmlns="http://www.w3.org/2000/svg" width="17.909" height="15.359" viewBox="0 0 17.909 15.359"><defs><style>.a{fill:#fff;}</style></defs><path class="a" d="M1.076,38.264a1.28,1.28,0,0,1,.222-.016H13.932l-.276-.128a2.563,2.563,0,0,1-.724-.513L9.39,34.064a1.326,1.326,0,0,1-.186-1.7,1.281,1.281,0,0,1,1.922-.167l6.407,6.407a1.281,1.281,0,0,1,0,1.812h0l-6.407,6.407A1.281,1.281,0,0,1,9.2,46.7,1.326,1.326,0,0,1,9.39,45l3.537-3.55a2.563,2.563,0,0,1,.641-.468l.384-.173H1.368A1.326,1.326,0,0,1,.016,39.734,1.281,1.281,0,0,1,1.076,38.264Z" transform="translate(0 -31.842)"/></svg>