<svg xmlns="http://www.w3.org/2000/svg" width="157.709" height="113" viewBox="0 0 157.709 113"><defs><style>.a{fill:#3f3d56;}.b{fill:#ffb8b8;}.c{fill:#2f2e41;}.d{fill:#00a54f;}.e{opacity:0.2;}.f{fill:#ccc;}.g{fill:#e6e6e6;}</style></defs><g transform="translate(0)"><path class="a" d="M724.926,707.935H659.391a.218.218,0,0,1,0-.435h65.536a.218.218,0,0,1,0,.435Z" transform="translate(-567.435 -594.935)"/><path class="b" d="M521.265,470.556H518.6l-1.27-10.3h3.94Z" transform="translate(-404.69 -360.049)"/><path class="c" d="M502.756,504.045H507.9v3.241h-8.389A3.241,3.241,0,0,1,502.756,504.045Z" transform="translate(-390.757 -394.301)"/><path class="b" d="M596.13,460.013l-2.428,1.109-5.433-8.837,3.583-1.637Z" transform="translate(-460.187 -352.53)"/><path class="c" d="M3.241,0H8.389V3.241H0A3.241,3.241,0,0,1,3.241,0Z" transform="translate(128.515 110.038) rotate(-24.548)"/><path class="b" d="M813.793,500.979a2.189,2.189,0,0,0,.174-3.353l3.138-7.12-3.986.676-2.369,6.657a2.2,2.2,0,0,0,3.043,3.139Z" transform="translate(-685.623 -425.187)"/><path class="c" d="M750.092,545.115h-2.55a.983.983,0,0,1-.977-.909l-2.7-37.135a.98.98,0,0,1,1.072-1.046l16.054,1.566a.98.98,0,0,1,.884.957l.309,16.381a.762.762,0,0,0,.051.26l6.05,15.688a.98.98,0,0,1-.576,1.272l-2.584.952a.98.98,0,0,1-1.21-.471l-7.432-14.45a.97.97,0,0,1-.088-.249l-1.27-6.117a.762.762,0,0,0-1.5.068l-2.561,22.366A.98.98,0,0,1,750.092,545.115Z" transform="translate(-633.687 -437.324)"/><circle class="b" cx="5.348" cy="5.348" r="5.348" transform="translate(112.327 30.017)"/><path class="d" d="M748.551,413.083c.685.472,8.4,5.555,17.188,1.512-.114-.982-1.211-10.838-.253-18.1a9.189,9.189,0,0,0-3.766-8.763,10.828,10.828,0,0,0-10.891-1.176h0q-.217.1-.436.2Z" transform="translate(-637.353 -343.121)"/><path class="d" d="M814.651,436.672a.977.977,0,0,1-.721-.318l-1.17-1.276a.985.985,0,0,1-.217-.94l2.679-9.068-4.076-8.56a1.809,1.809,0,0,1,3.226-1.635l5.51,8.941a2.493,2.493,0,0,1,.15,2.336l-4.487,9.942a.977.977,0,0,1-.738.564A1,1,0,0,1,814.651,436.672Z" transform="translate(-686.182 -365.278)"/><path class="e" d="M759.051,450.025h-2.136l3.729-17.55.215.028-.83,16.591A.979.979,0,0,1,759.051,450.025Z" transform="translate(-643.895 -379.791)"/><path class="b" d="M743.741,493.842a2.189,2.189,0,0,0-.525-3.316l1.591-7.616-3.759,1.488-.935,7a2.2,2.2,0,0,0,3.628,2.439Z" transform="translate(-630.562 -419.245)"/><path class="d" d="M744.944,416.49a1.021,1.021,0,0,1-.111-.006l-2.278-.253a.983.983,0,0,1-.871-1.014l.943-22.814a2.945,2.945,0,0,1,5.821-.5l.607,2.793,0,.02-3.141,20.944A.976.976,0,0,1,744.944,416.49Z" transform="translate(-631.98 -346.234)"/><path class="c" d="M757.809,330.75c-.555.1-1.011-.677-1.08-1.22a9.546,9.546,0,0,1,.15-1.6,1.314,1.314,0,0,0-.793-1.355c-.587-.168-1.132.3-1.733.247-.838-.079-1.258-1.059-1.36-1.853s-.181-1.732-.907-2.185-1.618-.123-2.449-.109a3.345,3.345,0,0,1-3.163-2.369.8.8,0,0,0,.909-.364.806.806,0,0,0-.243-.953l1.592.78a.855.855,0,0,1,.563-1.115,3.007,3.007,0,0,1,1.478-.015c2.493.387,5.381.2,7.034,2.1a8.809,8.809,0,0,1,1.96,5.443C759.64,327.8,757.809,330.75,757.809,330.75Z" transform="translate(-635.729 -290.672)"/><path class="f" d="M299.226,290.872H241.964a1.526,1.526,0,0,1-1.524-1.524l-2.613-97.318a1.527,1.527,0,0,1,1.524-1.53h57.262a1.526,1.526,0,0,1,1.524,1.524l.473,17.63-.435.012L297.7,192.03a1.091,1.091,0,0,0-1.089-1.094H239.351a1.09,1.09,0,0,0-1.089,1.089l2.613,97.318a1.091,1.091,0,0,0,1.089,1.094h57.262a1.09,1.09,0,0,0,1.089-1.089l-.508-18.936.435-.012.509,18.942a1.527,1.527,0,0,1-1.524,1.53Z" transform="translate(-237.827 -190.5)"/><rect class="f" width="0.436" height="8.361" transform="matrix(1, -0.027, 0.027, 1, 61.05, 45.293)"/><path class="f" d="M313.355,313.11H265.921a1.3,1.3,0,0,1-1.3-1.3L262.457,231.2a1.3,1.3,0,0,1,1.3-1.306H311.19a1.3,1.3,0,0,1,1.3,1.3l.392,9.275-.435.018-.392-9.284a.868.868,0,0,0-.865-.874H263.757a.865.865,0,0,0-.864.864l2.164,80.613a.867.867,0,0,0,.865.87h47.434a.865.865,0,0,0,.864-.864l-.28-10.584.435-.011.28,10.59a1.3,1.3,0,0,1-1.3,1.306Z" transform="translate(-257.094 -221.314)"/><rect class="f" width="0.435" height="8.276" transform="translate(55.934 45.511) rotate(-1.516)"/><path class="a" d="M346.112,304.063h-55.52a1.526,1.526,0,0,1-1.524-1.512l-.871-23.527a1.526,1.526,0,0,1,1.524-1.524h55.52a1.526,1.526,0,0,1,1.524,1.512l.871,23.527a1.526,1.526,0,0,1-1.524,1.524Zm-57.48-25.05.871,23.526a1.09,1.09,0,0,0,1.089,1.089h55.52a1.09,1.09,0,0,0,1.089-1.077l-.871-23.526a1.09,1.09,0,0,0-1.089-1.089h-55.52a1.09,1.09,0,0,0-1.089,1.077Z" transform="translate(-277.23 -258.558)"/><path class="a" d="M394.112,463.063h-55.52a1.526,1.526,0,0,1-1.524-1.512l-.871-23.527a1.526,1.526,0,0,1,1.524-1.524h55.52a1.526,1.526,0,0,1,1.524,1.512l.871,23.527A1.526,1.526,0,0,1,394.112,463.063Zm-57.48-25.05.871,23.526a1.09,1.09,0,0,0,1.089,1.089h55.52a1.09,1.09,0,0,0,1.089-1.077l-.871-23.526a1.09,1.09,0,0,0-1.089-1.089h-55.52a1.09,1.09,0,0,0-1.089,1.077Z" transform="translate(-314.779 -382.939)"/><path class="d" d="M402.612,460a1.415,1.415,0,0,0,0,2.83h28.3a1.415,1.415,0,0,0,0-2.83Z" transform="translate(-365.627 -401.323)"/><path class="d" d="M402.612,491a1.415,1.415,0,0,0,0,2.83h28.3a1.415,1.415,0,0,0,0-2.83Z" transform="translate(-365.627 -425.573)"/><path class="d" d="M402.612,522a1.415,1.415,0,0,0,0,2.83h28.3a1.415,1.415,0,0,0,0-2.83Z" transform="translate(-365.627 -449.824)"/><path class="d" d="M354.612,301a1.415,1.415,0,0,0,0,2.83h28.3a1.415,1.415,0,0,0,0-2.83Z" transform="translate(-328.078 -276.941)"/><path class="d" d="M354.612,332a1.415,1.415,0,0,0,0,2.83h28.3a1.415,1.415,0,0,0,0-2.83Z" transform="translate(-328.078 -301.192)"/><path class="d" d="M354.612,363a1.415,1.415,0,0,0,0,2.83h28.3a1.415,1.415,0,1,0,0-2.83Z" transform="translate(-328.078 -325.442)"/><circle class="g" cx="2.177" cy="2.177" r="2.177" transform="translate(28.385 2.177)"/></g></svg>