<svg xmlns="http://www.w3.org/2000/svg" width="12.135" height="14.936" viewBox="0 0 12.135 14.936"><defs><style>.a{fill:#707070;}</style></defs><g transform="translate(-48)"><path class="a" d="M58.968,1.867H56.4V1.4A1.4,1.4,0,0,0,55,0H53.134a1.4,1.4,0,0,0-1.4,1.4v.467H49.167A1.167,1.167,0,0,0,48,3.034v.933a.467.467,0,0,0,.467.467h11.2a.467.467,0,0,0,.467-.467V3.034A1.167,1.167,0,0,0,58.968,1.867Zm-6.3-.467a.467.467,0,0,1,.467-.467H55a.467.467,0,0,1,.467.467v.467h-2.8Z"/><path class="a" d="M73.51,184a.146.146,0,0,0-.146.153l.385,8.082a1.4,1.4,0,0,0,1.4,1.334h7.088a1.4,1.4,0,0,0,1.4-1.334l.385-8.082a.146.146,0,0,0-.146-.153Zm7.049,1.167a.467.467,0,1,1,.933,0v6.068a.467.467,0,0,1-.933,0Zm-2.334,0a.467.467,0,1,1,.933,0v6.068a.467.467,0,1,1-.933,0Zm-2.334,0a.467.467,0,1,1,.933,0v6.068a.467.467,0,1,1-.933,0Z" transform="translate(-24.624 -178.633)"/></g></svg>