<svg xmlns="http://www.w3.org/2000/svg" width="14.632" height="14.658" viewBox="0 0 14.632 14.658"><defs><style>.a{fill:#b1b1b1;}</style></defs><g transform="translate(-0.44)"><g transform="translate(0.44)"><g transform="translate(0)"><path class="a" d="M7.128,13.488H2.156a.572.572,0,0,1-.544-.747A4.41,4.41,0,0,1,5.8,9.758a4.275,4.275,0,0,1,2.457.771.572.572,0,1,0,.654-.937,5.431,5.431,0,0,0-1.14-.609,2.909,2.909,0,0,0,.946-1.919,4.3,4.3,0,0,1,5.455-.446.572.572,0,1,0,.654-.937,5.431,5.431,0,0,0-1.14-.609,2.915,2.915,0,1,0-3.925-.006q-.12.046-.237.1a5.426,5.426,0,0,0-1.007.578A2.914,2.914,0,1,0,3.843,8.971,5.5,5.5,0,0,0,.524,12.391a1.715,1.715,0,0,0,1.632,2.24H7.128a.572.572,0,0,0,0-1.143Zm4.6-12.345A1.772,1.772,0,1,1,9.957,2.915,1.774,1.774,0,0,1,11.729,1.143ZM5.814,5.054A1.772,1.772,0,1,1,4.042,6.826,1.774,1.774,0,0,1,5.814,5.054Z" transform="translate(-0.44)"/><path class="a" d="M269.932,322.456a.571.571,0,0,0-.8.132l-2.817,3.935a.326.326,0,0,1-.47.024l-1.824-1.751a.572.572,0,0,0-.792.824l1.826,1.753a1.474,1.474,0,0,0,1.014.405q.048,0,.1,0a1.473,1.473,0,0,0,1.048-.546l.019-.025,2.828-3.951A.572.572,0,0,0,269.932,322.456Z" transform="translate(-255.539 -313.121)"/></g></g></g></svg>