<svg xmlns="http://www.w3.org/2000/svg" width="11.538" height="11.539" viewBox="0 0 11.538 11.539"><defs><style>.a{fill:#cfd8dc;}.b{fill:#d32f2f;}.c{fill:#f44336;}</style></defs><g transform="translate(-0.009 0)"><path class="a" d="M4.025,331.68l-.962-.962a.235.235,0,0,0-.188-.07.24.24,0,0,0-.175.1L.057,334.35a.24.24,0,0,0,.337.337L4,332.043a.24.24,0,0,0,.028-.364Z" transform="translate(0 -323.197)"/><path class="b" d="M61.241,177.931l-2.4-2.4a2.143,2.143,0,0,0-1.42-.45,2.48,2.48,0,0,0-1.8.69c-.39.39-.35.994.12,1.794a10.525,10.525,0,0,0,1.562,1.911c.956.956,2.163,1.949,3.043,1.949a.9.9,0,0,0,.662-.266A2.609,2.609,0,0,0,61.241,177.931Z" transform="translate(-54.091 -171.13)"/><path class="c" d="M192.115,109.151l-2.4-2.4a.24.24,0,0,0-.34,0l-1.923,1.923c-.314.314-.288,1.01.721,2.023a2.464,2.464,0,0,0,1.558.9.638.638,0,0,0,.465-.178l1.923-1.923A.24.24,0,0,0,192.115,109.151Z" transform="translate(-183.042 -104.273)"/><path class="b" d="M281.308,4.235a.24.24,0,0,0-.222-.149,4.675,4.675,0,0,1-2.474-1.372A4.673,4.673,0,0,1,277.24.241a.24.24,0,0,0-.411-.17,2.808,2.808,0,0,0,.24,4.186,3.214,3.214,0,0,0,2.269,1.062,2.719,2.719,0,0,0,1.917-.822A.24.24,0,0,0,281.308,4.235Z" transform="translate(-269.78)"/><path class="c" d="M312.4,1.531A4.183,4.183,0,0,0,309.583.019a.24.24,0,0,0-.24.24,5.072,5.072,0,0,0,1.512,2.814,5.069,5.069,0,0,0,2.814,1.512.24.24,0,0,0,.24-.24A4.181,4.181,0,0,0,312.4,1.531Z" transform="translate(-302.363 -0.019)"/><path d="M279.352,5.338a3.213,3.213,0,0,1-2.269-1.062,3.254,3.254,0,0,1-1.061-2.257,2.7,2.7,0,0,1,.821-1.93.24.24,0,0,1,.17-.07,4.181,4.181,0,0,1,2.814,1.512,4.182,4.182,0,0,1,1.512,2.814.24.24,0,0,1-.07.17A2.72,2.72,0,0,1,279.352,5.338ZM277.112.5a2.2,2.2,0,0,0-.611,1.512,2.788,2.788,0,0,0,.921,1.92,2.331,2.331,0,0,0,3.433.311,3.963,3.963,0,0,0-1.369-2.374A3.962,3.962,0,0,0,277.112.5Z" transform="translate(-269.792 -0.019)"/><path d="M313.67,4.586a5.072,5.072,0,0,1-2.814-1.512A5.066,5.066,0,0,1,309.343.259a.24.24,0,0,1,.481,0A4.672,4.672,0,0,0,311.2,2.733a4.678,4.678,0,0,0,2.474,1.372.24.24,0,0,1,0,.481Z" transform="translate(-302.363 -0.019)"/><path d="M189.727,111.485a2.466,2.466,0,0,1-1.558-.9c-1.01-1.01-1.036-1.708-.721-2.023l1.923-1.923a.24.24,0,1,1,.346.334l-.006.006-1.923,1.923c-.1.1-.051.571.721,1.343s1.245.817,1.343.721l1.923-1.923a.24.24,0,0,1,.34.34l-1.923,1.923A.638.638,0,0,1,189.727,111.485Z" transform="translate(-183.042 -104.165)"/><path d="M60.416,181.425c-.882,0-2.087-.993-3.043-1.949a10.524,10.524,0,0,1-1.561-1.911c-.471-.8-.511-1.4-.12-1.794a2.489,2.489,0,0,1,1.783-.69h.02a2.143,2.143,0,0,1,1.419.45.24.24,0,0,1-.34.34,1.756,1.756,0,0,0-1.079-.309h-.019a2.042,2.042,0,0,0-1.446.549c-.269.269-.042.807.2,1.211a10.074,10.074,0,0,0,1.487,1.814c1.452,1.452,2.611,2.1,3.025,1.683a2.151,2.151,0,0,0,.24-2.545.24.24,0,0,1,.34-.34,2.609,2.609,0,0,1-.24,3.224A.9.9,0,0,1,60.416,181.425Z" transform="translate(-54.168 -171.133)"/><path d="M.25,334.782a.24.24,0,0,1-.192-.385L2.7,330.791a.24.24,0,0,1,.385.288l-1.719,2.344L3.712,331.7a.24.24,0,0,1,.289.384H4L.395,334.734A.24.24,0,0,1,.25,334.782Z" transform="translate(-0.001 -323.243)"/></g></svg>