<svg xmlns="http://www.w3.org/2000/svg" width="162" height="162" viewBox="0 0 162 162"><defs><style>.a{fill:rgba(255,255,255,0);stroke:#fff;stroke-width:2px;stroke-dasharray:7;}.b{fill:#fcfdfd;}.c{fill:#fbfdfc;}.d{fill:#fafdfc;}.e{stroke:none;}.f{fill:none;}</style></defs><g transform="translate(-105.611 -290.611)"><g transform="translate(105.195 290.195)"><g transform="translate(0 0)"><g class="a" transform="translate(0.416 0.416)"><circle class="e" cx="81" cy="81" r="81"/><circle class="f" cx="81" cy="81" r="80"/></g></g><g transform="translate(35.574 31.406)"><path class="b" d="M690.247,356.979h1.108q20.537-.013,41.073-.041a1.16,1.16,0,0,1,1.23.739c1.825,3.645,3.7,7.267,5.551,10.9.144.281.27.572.407.863a1.5,1.5,0,0,1-.9.112c-7.8,0-15.6.014-23.4-.023a3.538,3.538,0,0,0-3.489,2.072c-2.849,5.474-5.757,10.917-8.623,16.382-1,1.906-.974,1.948,1.179,1.949,7.289,0,14.578.015,21.867-.047a3.4,3.4,0,0,1,3.533,2.3c1.319,2.993,2.814,5.908,4.229,8.859a3.382,3.382,0,0,1,.264.755.483.483,0,0,1-.49.66c-.456.028-.913.057-1.37.058-11.108.049-22.218.112-33.325-.068A5.4,5.4,0,0,0,693.5,406c-1.813,4.1-4.09,7.97-6.249,11.9a2.437,2.437,0,0,1-2.338,1.39c-3.765-.046-7.531-.017-11.3-.017-.108,0-.215,0-.323-.007-.825-.058-.929-.224-.646-.99a48.247,48.247,0,0,1,3.036-6.034q10.244-19.078,20.523-38.139c.636-1.181,1.255-2.372,1.932-3.529a2.42,2.42,0,0,0-.255-2.966c-2.168-2.869-4.293-5.77-6.417-8.672C691.046,358.358,690.708,357.724,690.247,356.979Z" transform="translate(-672.507 -331.128)"/><path class="c" d="M1030.048,472.951c1.748,0,3.5.036,5.243-.012a2.72,2.72,0,0,1,2.743,1.7q2.336,4.808,4.7,9.6,7.4,15.011,14.815,30.019a12.917,12.917,0,0,1,.575,1.328c.2.562.085.955-.616.972-.322.008-.643.067-.965.068-3.468.018-6.936.021-10.4.048a2.983,2.983,0,0,1-2.976-1.873q-7.946-16.306-15.964-32.576-1.806-3.684-3.56-7.395c-.758-1.594-.579-1.871,1.167-1.878s3.5,0,5.243,0Z" transform="translate(-966.598 -428.401)"/><path class="d" d="M903.244,197.048c1.333,2.169,2.521,4.392,3.706,6.615q3.652,6.851,7.276,13.717c.77,1.453.63,1.722-.985,1.729q-10.164.04-20.328.047c-1.359,0-1.594-.409-.955-1.608q5.127-9.623,10.261-19.242A3.548,3.548,0,0,1,903.244,197.048Z" transform="translate(-856.248 -197.048)"/></g></g></g></svg>