<svg xmlns="http://www.w3.org/2000/svg" width="50" height="50" viewBox="0 0 50 50"><defs><style>.a{fill:#00a54f;}.b{fill:#fff;}</style></defs><g transform="translate(-274 -216)"><rect class="a" width="50" height="50" rx="7" transform="translate(274 216)"/><g transform="translate(275.557 225.82)"><g transform="translate(9 1.513)"><path class="b" d="M22.466,24.668c-4.127-3.227-1.214-16.5-1.214-16.5h5.043a2.6,2.6,0,0,0,2.59-2.8c0-3.04-2.522-2.853-2.522-2.853H7.794C4.745,2.515,1.994,6,.415,8.5-.426,9.834.05,10.208,1.494,9.579,6.554,7.363,7.981,8.161,7.981,8.161c.357,1.707.475,9.408-.823,12.448-1.316,2.862-3.744,6.487-.178,8.618,2.785,1.579,5.706-1.664,5.417-7.184-.136-2.921-.365-13.874-.365-13.874h4.653c-.145,1.707-.934,10.418-.11,15.581.857,8.618,10.223,6.946,11.972,2.064a4.5,4.5,0,0,0,.008-3.168c-.595-1.452-1.588-1.528-1.477-.849a3.738,3.738,0,0,1-.043,1.24C26.83,24.218,24.419,26.069,22.466,24.668Z" transform="translate(0 -2.513)"/></g></g></g></svg>